<?xml version="1.0" standalone="no"?>
<!DOCTYPE svg PUBLIC "-//W3C//DTD SVG 20010904//EN"
 "http://www.w3.org/TR/2001/REC-SVG-20010904/DTD/svg10.dtd">
<svg version="1.0" xmlns="http://www.w3.org/2000/svg"
 width="500.000000pt" height="500.000000pt" viewBox="0 0 500.000000 500.000000"
 preserveAspectRatio="xMidYMid meet">
<g transform="translate(0.000000,500.000000) scale(0.100000,-0.100000)"
fill="#ffffff" stroke="none">
<path d="M2520 3780 l-45 -7 40 -1 c22 0 49 3 60 8 23 10 9 10 -55 0z"/>
<path d="M2270 3764 c0 -17 22 -14 28 4 2 7 -3 12 -12 12 -9 0 -16 -7 -16 -16z"/>
<path d="M2408 3773 c7 -3 16 -2 19 1 4 3 -2 6 -13 5 -11 0 -14 -3 -6 -6z"/>
<path d="M2776 3763 c-11 -11 -6 -23 9 -23 8 0 15 4 15 9 0 13 -16 22 -24 14z"/>
<path d="M2670 3735 c0 -8 4 -15 10 -15 5 0 7 7 4 15 -4 8 -8 15 -10 15 -2 0
-4 -7 -4 -15z"/>
<path d="M2227 3726 c-3 -8 -2 -18 3 -21 13 -8 24 15 12 27 -6 6 -11 4 -15 -6z"/>
<path d="M2308 3709 l-5 -31 18 23 c17 23 17 39 0 39 -5 0 -11 -14 -13 -31z"/>
<path d="M2440 3712 c-132 -43 -204 -156 -181 -280 12 -61 34 -96 88 -141 83
-68 103 -94 103 -131 0 -25 -9 -46 -28 -69 -25 -30 -35 -35 -86 -39 -64 -5
-125 15 -164 56 -34 36 -72 117 -72 156 0 45 -15 80 -58 134 -71 89 -185 112
-295 59 -65 -32 -100 -72 -128 -149 -22 -59 -20 -92 12 -166 23 -53 58 -93
109 -125 43 -27 160 -28 233 -3 26 9 67 16 91 16 83 0 185 -103 186 -189 1
-80 51 -163 128 -212 40 -26 55 -29 123 -29 62 0 86 4 116 22 72 42 125 124
136 211 8 61 38 118 79 151 18 14 39 31 46 37 18 15 146 6 167 -11 10 -8 46
-13 98 -13 95 -1 129 13 187 75 73 79 88 184 40 278 -27 52 -59 81 -130 116
-52 25 -58 26 -122 16 -90 -13 -141 -49 -185 -127 -21 -39 -33 -74 -33 -99 0
-25 -11 -58 -31 -93 -55 -95 -152 -135 -247 -102 -35 12 -72 64 -72 101 0 27
48 97 66 98 24 0 113 101 124 138 18 68 12 128 -20 191 -24 49 -39 65 -84 91
-71 40 -137 51 -196 32z m98 -31 c25 -14 56 -24 65 -23 4 1 7 -2 7 -8 0 -5 7
-10 15 -10 8 0 15 -4 15 -10 0 -5 11 -12 25 -16 20 -5 24 -12 23 -39 -1 -18 6
-40 14 -49 9 -9 16 -35 17 -66 1 -44 -2 -53 -19 -57 -11 -3 -17 -9 -14 -14 7
-11 -31 -61 -40 -52 -3 3 -6 0 -6 -8 0 -8 -9 -20 -20 -27 -17 -10 -20 -10 -20
5 0 15 -2 16 -9 3 -6 -8 -8 -17 -5 -21 2 -4 -7 -14 -21 -23 -14 -9 -24 -20
-23 -24 1 -4 -4 -19 -9 -33 -23 -55 -11 -113 33 -157 8 -7 14 -18 14 -24 0 -6
9 -8 20 -5 11 3 22 2 25 -2 6 -10 131 -4 152 8 10 5 23 11 28 13 6 1 9 6 8 9
-1 4 10 13 25 21 15 7 28 20 30 28 2 8 10 19 18 23 8 4 14 15 14 24 0 9 8 21
17 28 12 9 16 25 14 59 -3 60 7 95 21 75 7 -10 8 -6 4 13 -4 19 -1 30 12 40
11 7 24 23 30 35 9 16 19 21 39 18 16 -2 22 -2 16 1 -7 3 -13 10 -13 15 0 6 5
7 10 4 6 -3 16 -3 23 2 17 11 95 15 136 8 27 -5 31 -9 20 -17 -11 -8 -9 -9 7
-5 12 2 32 -6 49 -19 26 -21 28 -25 17 -50 -7 -14 -10 -29 -8 -32 3 -2 10 7
16 22 11 31 30 26 30 -7 0 -13 7 -33 17 -46 13 -19 14 -27 4 -43 -10 -16 -10
-19 1 -12 9 6 9 3 -1 -10 -12 -14 -12 -19 -2 -25 10 -6 8 -12 -9 -24 -12 -8
-19 -20 -15 -27 9 -15 -13 -40 -30 -34 -9 4 -12 0 -8 -14 7 -27 -27 -39 -44
-15 -19 28 -57 63 -68 63 -14 0 -3 -29 14 -35 11 -3 22 -19 26 -36 6 -25 10
-29 28 -23 20 6 20 6 3 -11 -13 -14 -22 -15 -39 -8 -16 8 -26 7 -35 -4 -10
-10 -26 -12 -60 -7 -26 3 -49 9 -52 13 -10 14 -45 24 -79 22 -25 -2 -31 0 -25
11 4 7 -2 5 -13 -5 -14 -12 -23 -15 -28 -8 -9 16 -45 13 -51 -4 -4 -8 -12 -15
-19 -15 -6 0 -20 -9 -30 -20 -10 -11 -23 -20 -29 -20 -6 0 -17 -14 -25 -32
-13 -28 -15 -30 -22 -12 -5 15 -8 16 -13 4 -3 -8 -4 -24 -2 -35 2 -11 -3 -37
-10 -58 -10 -28 -11 -44 -3 -59 9 -16 7 -20 -10 -25 -15 -4 -21 -13 -21 -34 0
-16 -4 -29 -9 -29 -5 0 -13 -9 -16 -20 -3 -11 -12 -20 -19 -20 -8 0 -19 -7
-26 -15 -7 -8 -24 -15 -39 -15 -18 0 -22 -3 -13 -9 9 -5 -9 -9 -48 -10 -39 -1
-59 3 -55 9 3 5 1 10 -4 10 -6 0 -11 -4 -11 -10 0 -20 -27 -9 -39 16 -8 18
-17 24 -27 20 -10 -4 -26 4 -42 21 -21 23 -29 46 -31 101 -1 6 -6 12 -12 12
-5 0 -7 -4 -4 -10 3 -5 1 -10 -5 -10 -8 0 -9 14 -5 45 6 34 3 48 -9 60 -9 9
-16 28 -16 42 0 16 -7 27 -20 30 -11 3 -20 11 -20 17 0 6 -17 20 -37 31 -20
11 -43 27 -51 34 -10 11 -34 14 -85 13 -39 -2 -75 -6 -81 -10 -6 -3 -19 -5
-30 -3 -10 1 -16 -2 -12 -7 8 -13 -58 -22 -112 -15 -34 5 -54 16 -88 49 -24
23 -44 47 -44 54 0 6 -4 9 -9 5 -6 -3 -13 10 -17 30 -3 19 -10 38 -15 41 -5 3
-9 13 -8 22 0 14 2 14 10 -3 7 -15 8 -10 5 21 -2 24 2 48 10 59 8 10 14 27 14
37 0 10 3 18 8 18 4 0 12 10 17 23 6 12 18 21 27 21 10 -1 16 2 13 6 -3 5 8
11 25 15 16 4 30 11 30 16 0 5 7 9 15 9 8 0 15 -4 15 -10 0 -5 14 -10 31 -10
22 0 30 4 26 13 -8 21 38 9 60 -16 17 -20 17 -20 -2 -13 -14 5 -17 4 -9 -4 6
-6 18 -8 28 -4 16 6 16 8 -1 28 -18 20 -18 20 2 7 26 -19 95 -92 95 -102 0 -4
-6 -10 -12 -12 -8 -3 -7 -6 4 -6 20 -1 31 -30 24 -63 -8 -34 74 -184 107 -198
12 -5 18 -9 12 -10 -5 0 8 -8 30 -16 45 -17 162 -19 182 -2 7 6 13 7 13 3 0
-13 39 36 45 56 7 21 21 25 27 7 3 -7 5 16 6 50 1 50 -1 60 -13 56 -13 -5 -21
14 -12 31 1 2 -9 12 -21 21 -20 14 -23 22 -17 50 7 42 -2 44 -16 4 l-11 -29
-39 45 c-21 25 -39 42 -40 37 0 -4 -4 1 -8 12 -5 11 -4 28 1 38 5 10 5 17 -1
17 -5 0 -12 -6 -14 -12 -3 -7 -4 10 -2 39 2 29 8 60 13 70 7 12 7 24 0 38 -6
11 -7 17 -3 13 5 -5 16 6 26 22 20 32 37 38 56 19 12 -12 6 -39 -11 -51 -7 -5
-7 -8 2 -8 20 0 36 52 20 65 -26 20 -9 45 30 45 28 0 33 3 22 10 -20 13 63 14
88 1z"/>
<path d="M2483 3633 c9 -2 23 -2 30 0 6 3 -1 5 -18 5 -16 0 -22 -2 -12 -5z"/>
<path d="M2630 3575 c0 -8 2 -15 4 -15 2 0 6 7 10 15 3 8 1 15 -4 15 -6 0 -10
-7 -10 -15z"/>
<path d="M2361 3454 c0 -11 3 -14 6 -6 3 7 2 16 -1 19 -3 4 -6 -2 -5 -13z"/>
<path d="M2601 3454 c0 -11 3 -14 6 -6 3 7 2 16 -1 19 -3 4 -6 -2 -5 -13z"/>
<path d="M2649 3432 c-3 -29 -1 -38 8 -35 15 6 17 41 4 62 -6 9 -10 1 -12 -27z"/>
<path d="M3148 3433 c7 -3 16 -2 19 1 4 3 -2 6 -13 5 -11 0 -14 -3 -6 -6z"/>
<path d="M1752 3380 c0 -14 2 -19 5 -12 2 6 2 18 0 25 -3 6 -5 1 -5 -13z"/>
<path d="M2558 3393 c7 -3 16 -2 19 1 4 3 -2 6 -13 5 -11 0 -14 -3 -6 -6z"/>
<path d="M2606 3381 c-4 -5 -2 -12 3 -15 5 -4 12 -2 15 3 4 5 2 12 -3 15 -5 4
-12 2 -15 -3z"/>
<path d="M2375 3370 c-8 -13 4 -32 16 -25 12 8 12 35 0 35 -6 0 -13 -4 -16
-10z"/>
<path d="M1707 3337 c-3 -8 -2 -19 3 -26 5 -10 9 -8 14 4 3 9 6 21 6 26 0 14
-17 11 -23 -4z"/>
<path d="M2001 3314 c0 -11 3 -14 6 -6 3 7 2 16 -1 19 -3 4 -6 -2 -5 -13z"/>
<path d="M1755 3280 c-3 -5 -1 -18 4 -27 9 -16 10 -14 11 10 0 28 -5 34 -15
17z"/>
<path d="M3245 3281 c-3 -5 -1 -12 5 -16 5 -3 10 1 10 9 0 18 -6 21 -15 7z"/>
<path d="M2957 3260 c-3 -11 -1 -20 4 -20 5 0 9 9 9 20 0 11 -2 20 -4 20 -2 0
-6 -9 -9 -20z"/>
<path d="M1660 3256 c0 -8 4 -17 9 -20 5 -4 7 3 4 14 -6 23 -13 26 -13 6z"/>
<path d="M3315 3250 c-3 -5 -1 -10 4 -10 6 0 11 5 11 10 0 6 -2 10 -4 10 -3 0
-8 -4 -11 -10z"/>
<path d="M3270 3240 c0 -8 5 -22 10 -30 9 -13 10 -13 10 0 0 8 -5 22 -10 30
-9 13 -10 13 -10 0z"/>
<path d="M1662 3190 c0 -14 2 -19 5 -12 2 6 2 18 0 25 -3 6 -5 1 -5 -13z"/>
<path d="M1750 3196 c0 -8 5 -18 10 -21 6 -3 10 1 10 9 0 8 -4 18 -10 21 -5 3
-10 -1 -10 -9z"/>
<path d="M3220 3196 c0 -17 14 -29 23 -20 8 8 -3 34 -14 34 -5 0 -9 -6 -9 -14z"/>
<path d="M1700 3175 c0 -8 5 -15 10 -15 6 0 10 7 10 15 0 8 -4 15 -10 15 -5 0
-10 -7 -10 -15z"/>
<path d="M1893 3163 c9 -2 23 -2 30 0 6 3 -1 5 -18 5 -16 0 -22 -2 -12 -5z"/>
<path d="M3060 3160 c0 -5 6 -10 14 -10 8 0 18 5 21 10 3 6 -3 10 -14 10 -12
0 -21 -4 -21 -10z"/>
<path d="M1800 3140 c13 -24 35 -27 26 -4 -3 9 -6 18 -6 20 0 2 -7 4 -15 4
-13 0 -14 -4 -5 -20z"/>
<path d="M3271 3146 c-8 -10 -9 -16 -1 -21 5 -3 13 1 16 10 9 22 -1 29 -15 11z"/>
<path d="M2000 3137 c0 -8 -8 -18 -17 -20 -17 -4 -17 -5 0 -6 18 -1 35 25 23
36 -3 4 -6 -1 -6 -10z"/>
<path d="M2080 3139 c0 -5 5 -7 10 -4 6 3 10 8 10 11 0 2 -4 4 -10 4 -5 0 -10
-5 -10 -11z"/>
<path d="M1738 3118 c23 -23 39 -20 29 7 -4 8 -17 15 -29 15 l-22 0 22 -22z"/>
<path d="M2926 3121 c-4 -7 -5 -15 -2 -18 9 -9 19 4 14 18 -4 11 -6 11 -12 0z"/>
<path d="M2070 3101 c0 -11 -6 -22 -12 -24 -8 -3 -6 -6 5 -6 9 -1 17 4 17 10
0 5 4 8 9 5 5 -4 7 3 4 14 -7 25 -23 26 -23 1z"/>
<path d="M1877 3089 c7 -7 15 -10 18 -7 3 3 -2 9 -12 12 -14 6 -15 5 -6 -5z"/>
<path d="M1780 3070 c0 -5 5 -10 10 -10 6 0 10 5 10 10 0 6 -4 10 -10 10 -5 0
-10 -4 -10 -10z"/>
<path d="M3155 3070 c-3 -5 1 -10 10 -10 9 0 13 5 10 10 -3 6 -8 10 -10 10 -2
0 -7 -4 -10 -10z"/>
<path d="M2626 2985 c4 -8 10 -12 15 -9 14 8 10 24 -6 24 -9 0 -12 -6 -9 -15z"/>
<path d="M2350 2908 c0 -7 5 -20 10 -28 8 -12 10 -9 10 13 0 15 -4 27 -10 27
-5 0 -10 -6 -10 -12z"/>
<path d="M2330 2826 c0 -9 5 -16 10 -16 6 0 10 4 10 9 0 6 -4 13 -10 16 -5 3
-10 -1 -10 -9z"/>
<path d="M2376 2795 c-3 -9 0 -15 9 -15 8 0 15 7 15 15 0 8 -4 15 -9 15 -5 0
-11 -7 -15 -15z"/>
<path d="M2340 2755 c0 -8 7 -15 15 -15 8 0 15 7 15 15 0 8 -7 15 -15 15 -8 0
-15 -7 -15 -15z"/>
<path d="M2420 2730 c0 -5 7 -10 15 -10 8 0 15 5 15 10 0 6 -7 10 -15 10 -8 0
-15 -4 -15 -10z"/>
<path d="M2551 2724 c0 -11 3 -14 6 -6 3 7 2 16 -1 19 -3 4 -6 -2 -5 -13z"/>
<path d="M2590 2731 c0 -11 26 -22 34 -14 12 12 5 23 -14 23 -11 0 -20 -4 -20
-9z"/>
<path d="M2490 2690 c-13 -8 -12 -10 3 -10 9 0 17 5 17 10 0 12 -1 12 -20 0z"/>
<path d="M2585 2670 c-3 -5 -1 -10 4 -10 6 0 11 5 11 10 0 6 -2 10 -4 10 -3 0
-8 -4 -11 -10z"/>
<path d="M2750 3661 c0 -29 15 -33 16 -5 1 13 -2 24 -7 24 -5 0 -9 -9 -9 -19z"/>
<path d="M2238 3626 c-20 -15 -23 -26 -8 -26 5 0 14 9 20 20 12 23 11 24 -12
6z"/>
<path d="M2785 3609 c-4 -6 -4 -27 0 -46 5 -27 9 -33 15 -23 6 9 5 17 -2 21
-6 4 -8 18 -4 33 7 27 2 34 -9 15z"/>
<path d="M2840 3590 c0 -5 7 -10 15 -10 8 0 15 5 15 10 0 6 -7 10 -15 10 -8 0
-15 -4 -15 -10z"/>
<path d="M2967 3573 c-4 -3 2 -11 12 -17 10 -6 28 -17 40 -24 13 -8 21 -9 21
-2 0 5 -5 10 -12 10 -6 0 -21 9 -33 20 -12 11 -24 17 -28 13z"/>
<path d="M3041 3564 c0 -11 3 -14 6 -6 3 7 2 16 -1 19 -3 4 -6 -2 -5 -13z"/>
<path d="M3285 3571 c-3 -5 4 -13 16 -16 28 -9 36 1 10 14 -12 7 -22 7 -26 2z"/>
<path d="M3160 3566 c0 -2 9 -6 20 -9 11 -3 20 -1 20 4 0 5 -9 9 -20 9 -11 0
-20 -2 -20 -4z"/>
<path d="M2080 3546 c0 -9 5 -16 10 -16 6 0 10 4 10 9 0 6 -4 13 -10 16 -5 3
-10 -1 -10 -9z"/>
<path d="M1848 3543 c7 -3 16 -2 19 1 4 3 -2 6 -13 5 -11 0 -14 -3 -6 -6z"/>
<path d="M1905 3540 c-16 -7 -17 -9 -3 -9 9 -1 20 4 23 9 7 11 7 11 -20 0z"/>
<path d="M3215 3540 c3 -5 8 -10 11 -10 2 0 4 5 4 10 0 6 -5 10 -11 10 -5 0
-7 -4 -4 -10z"/>
<path d="M1745 3530 c-13 -6 -15 -9 -5 -9 8 0 22 4 30 9 18 12 2 12 -25 0z"/>
<path d="M2876 3524 c-4 -9 -4 -19 -1 -22 2 -3 7 3 11 12 4 9 4 19 1 22 -2 3
-7 -3 -11 -12z"/>
<path d="M3345 3530 c3 -5 8 -10 11 -10 2 0 4 5 4 10 0 6 -5 10 -11 10 -5 0
-7 -4 -4 -10z"/>
<path d="M3058 3518 c5 -5 16 -8 23 -6 8 3 3 7 -10 11 -17 4 -21 3 -13 -5z"/>
<path d="M1948 3513 c7 -3 16 -2 19 1 4 3 -2 6 -13 5 -11 0 -14 -3 -6 -6z"/>
<path d="M3280 3510 c0 -5 6 -10 14 -10 8 0 17 -6 19 -12 4 -10 6 -10 6 -1 1
7 -8 17 -19 23 -14 7 -20 7 -20 0z"/>
<path d="M1996 3495 c5 -12 44 -28 52 -21 2 2 -10 11 -27 19 -22 11 -28 12
-25 2z"/>
<path d="M2960 3495 c0 -8 5 -15 10 -15 6 0 10 7 10 15 0 8 -4 15 -10 15 -5 0
-10 -7 -10 -15z"/>
<path d="M1665 3479 c-4 -6 -13 -8 -21 -5 -8 3 -14 1 -14 -3 0 -7 23 -21 35
-21 1 0 5 9 8 20 6 22 2 26 -8 9z"/>
<path d="M2065 3479 c-4 -6 -5 -12 -2 -15 2 -3 7 2 10 11 7 17 1 20 -8 4z"/>
<path d="M2933 3478 c1 -7 -6 -12 -15 -10 -10 2 -18 -2 -18 -8 0 -14 23 -13
38 2 15 15 16 28 2 28 -5 0 -9 -6 -7 -12z"/>
<path d="M1606 3434 c-9 -22 3 -32 14 -14 12 19 12 30 1 30 -5 0 -12 -7 -15
-16z"/>
<path d="M2835 3427 c-4 -10 -5 -21 -1 -24 10 -10 18 4 13 24 -4 17 -4 17 -12
0z"/>
<path d="M3380 3430 c0 -5 5 -10 10 -10 6 0 10 5 10 10 0 6 -4 10 -10 10 -5 0
-10 -4 -10 -10z"/>
<path d="M2874 3397 c-8 -21 -3 -29 13 -19 8 5 9 13 3 22 -7 12 -10 12 -16 -3z"/>
<path d="M2110 3393 c8 -3 18 -11 22 -17 5 -7 8 -4 8 7 0 11 -7 17 -22 16 -16
0 -18 -2 -8 -6z"/>
<path d="M2180 3390 c0 -5 5 -10 10 -10 6 0 10 5 10 10 0 6 -4 10 -10 10 -5 0
-10 -4 -10 -10z"/>
<path d="M2199 3308 c-11 -20 5 -26 16 -7 4 6 13 8 21 5 8 -3 14 0 14 7 0 19
-40 15 -51 -5z"/>
<path d="M2760 3310 c-12 -23 2 -27 19 -6 8 9 8 16 2 20 -6 4 -15 -3 -21 -14z"/>
<path d="M2138 3293 c5 -21 7 -23 10 -9 2 10 0 22 -6 28 -6 6 -7 0 -4 -19z"/>
<path d="M2260 3267 c0 -8 -11 -18 -24 -21 -22 -6 -45 -36 -27 -36 5 0 12 7
15 16 3 8 10 13 15 9 5 -3 12 -1 16 5 4 6 11 8 16 5 5 -4 9 1 9 9 0 8 -4 18
-10 21 -5 3 -10 0 -10 -8z"/>
<path d="M2157 3251 c-4 -17 -3 -21 5 -13 5 5 8 16 6 23 -3 8 -7 3 -11 -10z"/>
<path d="M2701 3256 c-9 -10 -8 -15 2 -19 23 -9 41 8 24 22 -11 9 -17 8 -26
-3z"/>
<path d="M2324 3243 c-7 -2 -10 -13 -7 -23 5 -20 18 -26 26 -12 8 12 -7 39
-19 35z"/>
<path d="M2820 3214 c0 -8 -4 -13 -9 -10 -5 3 -11 -1 -15 -9 -7 -19 6 -26 24
-14 8 5 11 9 7 9 -4 0 -3 9 3 20 7 14 7 20 0 20 -5 0 -10 -7 -10 -16z"/>
<path d="M2740 3210 c0 -5 4 -10 9 -10 6 0 13 5 16 10 3 6 -1 10 -9 10 -9 0
-16 -4 -16 -10z"/>
<path d="M2195 3170 c-3 -5 -1 -10 4 -10 6 0 11 5 11 10 0 6 -2 10 -4 10 -3 0
-8 -4 -11 -10z"/>
<path d="M2365 3170 c-3 -5 1 -10 10 -10 9 0 13 5 10 10 -3 6 -8 10 -10 10 -2
0 -7 -4 -10 -10z"/>
<path d="M2620 3168 c0 -6 -7 -7 -16 -4 -9 3 -12 2 -9 -5 4 -6 13 -8 20 -5 8
3 15 1 17 -4 2 -4 8 -2 15 5 9 10 8 14 -8 18 -10 3 -19 1 -19 -5z"/>
<path d="M2740 3140 c0 -5 4 -10 9 -10 6 0 13 5 16 10 3 6 -1 10 -9 10 -9 0
-16 -4 -16 -10z"/>
<path d="M2308 3123 c7 -3 16 -2 19 1 4 3 -2 6 -13 5 -11 0 -14 -3 -6 -6z"/>
<path d="M2360 3120 c0 -5 5 -10 10 -10 6 0 10 5 10 10 0 6 -4 10 -10 10 -5 0
-10 -4 -10 -10z"/>
<path d="M1612 3014 c-7 -8 -8 -14 -3 -14 10 0 25 19 20 25 -2 1 -10 -3 -17
-11z"/>
<path d="M3345 3010 c-3 -5 -1 -10 4 -10 6 0 11 5 11 10 0 6 -2 10 -4 10 -3 0
-8 -4 -11 -10z"/>
<path d="M3393 2986 c12 -13 25 -22 30 -19 4 2 -3 13 -17 24 -33 26 -39 24
-13 -5z"/>
<path d="M3305 2991 c-6 -11 9 -23 19 -14 9 9 7 23 -3 23 -6 0 -12 -4 -16 -9z"/>
<path d="M1640 2980 c0 -5 5 -10 10 -10 6 0 10 5 10 10 0 6 -4 10 -10 10 -5 0
-10 -4 -10 -10z"/>
<path d="M1338 2972 c-10 -2 -18 -8 -18 -13 0 -11 11 -11 30 1 18 11 11 18
-12 12z"/>
<path d="M2080 2973 c0 -5 11 -20 25 -33 14 -13 25 -19 25 -13 0 5 -11 20 -25
33 -14 13 -25 19 -25 13z"/>
<path d="M2917 2974 c-4 -4 -7 -14 -7 -23 0 -11 3 -12 11 -4 6 6 10 16 7 23
-2 6 -7 8 -11 4z"/>
<path d="M1706 2954 c-4 -10 -1 -14 6 -12 15 5 23 28 10 28 -5 0 -13 -7 -16
-16z"/>
<path d="M2995 2960 c-3 -5 1 -10 9 -10 9 0 16 5 16 10 0 6 -4 10 -9 10 -6 0
-13 -4 -16 -10z"/>
<path d="M3230 2965 c0 -7 78 -45 92 -44 7 0 2 6 -12 12 -14 6 -31 17 -38 24
-13 13 -42 18 -42 8z"/>
<path d="M1490 2956 c0 -2 7 -6 15 -10 8 -3 15 -1 15 4 0 6 -7 10 -15 10 -8 0
-15 -2 -15 -4z"/>
<path d="M3196 2935 c-4 -11 -14 -14 -33 -9 -22 4 -25 3 -13 -5 19 -14 50 -14
50 0 0 5 5 7 10 4 6 -3 10 1 10 9 0 20 -16 21 -24 1z"/>
<path d="M3380 2936 c0 -8 6 -16 14 -19 10 -4 12 0 9 14 -6 22 -23 26 -23 5z"/>
<path d="M1380 2924 c0 -8 5 -12 10 -9 6 3 10 10 10 16 0 5 -4 9 -10 9 -5 0
-10 -7 -10 -16z"/>
<path d="M1296 2922 c6 -4 14 -16 19 -27 8 -19 8 -19 13 -1 2 10 -2 22 -10 27
-16 11 -38 12 -22 1z"/>
<path d="M1643 2915 c0 -9 7 -15 16 -13 19 4 18 22 -2 26 -7 2 -14 -4 -14 -13z"/>
<path d="M2151 2921 c-10 -7 -8 -10 8 -16 27 -8 36 -2 18 13 -7 6 -18 7 -26 3z"/>
<path d="M2875 2920 c-13 -5 -14 -9 -5 -9 8 0 24 4 35 9 13 5 14 9 5 9 -8 0
-24 -4 -35 -9z"/>
<path d="M1748 2913 c7 -3 16 -2 19 1 4 3 -2 6 -13 5 -11 0 -14 -3 -6 -6z"/>
<path d="M1813 2913 c9 -2 25 -2 35 0 9 3 1 5 -18 5 -19 0 -27 -2 -17 -5z"/>
<path d="M3745 2910 c3 -5 8 -10 11 -10 2 0 4 5 4 10 0 6 -5 10 -11 10 -5 0
-7 -4 -4 -10z"/>
<path d="M3328 2903 c7 -3 16 -2 19 1 4 3 -2 6 -13 5 -11 0 -14 -3 -6 -6z"/>
<path d="M3654 2895 c11 -8 22 -12 25 -9 6 6 -19 24 -34 24 -5 -1 -1 -7 9 -15z"/>
<path d="M1230 2890 c0 -5 5 -10 10 -10 6 0 10 5 10 10 0 6 -4 10 -10 10 -5 0
-10 -4 -10 -10z"/>
<path d="M1438 2880 c-26 -10 -54 -25 -63 -34 -9 -9 -25 -21 -35 -26 -10 -5
-31 -36 -47 -67 -47 -98 -29 -219 45 -284 86 -77 165 -88 298 -43 70 23 81 24
128 13 131 -31 208 -168 138 -246 -42 -45 -78 -50 -138 -18 -42 23 -61 27
-141 27 -89 1 -93 0 -133 -32 -23 -18 -53 -51 -68 -74 -23 -37 -25 -51 -25
-132 0 -99 10 -122 78 -185 93 -86 261 -73 344 28 31 37 65 140 56 165 -4 9 2
34 11 56 19 42 63 72 108 72 34 0 106 -77 106 -113 0 -20 4 -28 13 -24 10 4
11 -7 6 -47 -14 -98 -20 -109 -96 -182 -63 -60 -78 -81 -99 -139 l-25 -68 21
-61 c52 -155 209 -228 344 -160 100 50 136 111 136 232 0 71 -3 83 -29 118
-16 21 -50 59 -76 84 -58 56 -75 88 -75 141 0 80 19 119 96 194 81 78 114 139
114 208 0 89 -75 198 -158 230 -53 21 -134 22 -172 2 -82 -42 -223 -32 -272
19 -31 32 -58 83 -58 109 0 12 -9 47 -20 77 -29 81 -98 142 -184 164 -76 19
-68 19 -128 -4z m180 -53 c31 -15 52 -35 62 -56 9 -17 19 -29 23 -25 4 4 7 -1
6 -12 -4 -37 1 -54 16 -54 12 0 14 -8 10 -32 -3 -18 -11 -38 -16 -44 -7 -8 -6
-15 2 -19 6 -4 15 -2 20 6 6 10 11 6 19 -16 6 -15 9 -34 6 -41 -3 -8 0 -11 9
-8 7 3 27 -8 43 -25 16 -17 38 -31 48 -31 22 0 46 -14 45 -25 -1 -12 80 -9
114 5 17 6 39 13 50 14 11 1 21 6 23 12 4 15 44 20 112 14 36 -4 59 -8 52 -8
-7 -1 -11 -6 -7 -12 3 -5 12 -6 21 -3 15 5 58 -30 48 -40 -3 -2 7 -8 22 -11
20 -5 25 -12 21 -26 -3 -11 -1 -18 4 -15 8 6 12 -7 23 -70 6 -35 -22 -147 -35
-139 -5 3 -9 0 -9 -6 0 -12 -24 -40 -34 -40 -3 0 -22 -16 -42 -35 -19 -19 -32
-35 -27 -35 4 0 -4 -8 -18 -18 -14 -9 -24 -23 -22 -29 3 -7 -2 -20 -11 -28
-11 -12 -14 -31 -11 -83 7 -96 22 -128 60 -123 6 1 2 -5 -9 -13 -18 -14 -15
-36 5 -36 6 0 7 5 3 11 -4 8 0 8 15 0 21 -12 29 -41 11 -41 -5 0 -10 -8 -10
-17 1 -17 1 -17 14 0 17 22 32 22 45 0 6 -10 11 -13 11 -8 0 11 20 -15 20 -27
0 -4 -9 -10 -20 -13 -11 -3 -20 -11 -20 -16 0 -6 7 -6 18 -1 9 5 23 7 30 5 14
-5 17 -53 2 -53 -5 0 -10 -5 -10 -11 0 -5 5 -7 10 -4 15 9 12 -58 -2 -74 -11
-11 -10 -14 0 -18 9 -3 3 -14 -17 -33 -16 -16 -27 -31 -24 -34 3 -3 -6 -8 -20
-11 -14 -4 -28 -13 -31 -21 -3 -8 -18 -19 -33 -25 -35 -14 -135 -21 -128 -9 3
4 -12 14 -32 21 -36 11 -51 24 -51 43 0 4 -15 18 -33 30 -28 19 -32 28 -36 76
-3 42 -1 51 8 40 8 -12 10 -10 6 10 -3 14 -8 34 -12 45 -4 13 1 28 15 43 11
12 18 22 15 22 -4 0 10 16 31 35 20 19 39 35 42 35 3 0 18 15 33 33 25 28 28
29 30 12 0 -11 5 -5 9 15 5 19 6 45 3 58 -4 18 -1 25 16 29 17 4 19 9 10 24
-5 11 -8 23 -5 28 3 5 -1 23 -10 40 -12 24 -13 35 -5 45 8 10 8 16 -2 25 -8 6
-16 8 -19 5 -3 -3 -8 7 -12 21 -4 14 -13 25 -22 25 -9 0 -18 8 -21 19 -2 10
-19 25 -37 33 -27 14 -36 14 -57 2 -13 -7 -32 -13 -41 -14 -20 0 -36 22 -20
28 7 2 10 8 7 13 -4 5 1 6 9 3 9 -4 16 -1 16 6 0 7 8 19 18 27 9 8 11 12 5 8
-16 -8 -17 9 -1 34 9 15 9 25 0 46 -7 14 -9 37 -6 50 4 18 1 25 -15 30 -12 3
-21 13 -21 21 0 8 -3 13 -7 11 -5 -3 -24 8 -43 24 -19 17 -28 29 -20 29 13 0
13 1 0 10 -9 5 -17 5 -20 0 -3 -5 -19 -2 -35 7 -29 16 -135 26 -135 13 0 -9
-51 -32 -58 -25 -3 2 -11 0 -17 -5 -21 -18 -133 -21 -149 -5 -8 8 -19 15 -25
15 -14 0 -81 65 -81 79 0 6 -4 11 -9 11 -5 0 -11 11 -13 25 -3 14 -2 25 3 25
7 0 3 66 -6 80 -4 7 13 69 22 80 2 2 9 -2 14 -10 8 -12 9 -11 7 5 -6 32 71 92
109 86 6 -1 15 4 19 10 10 17 86 4 142 -24z m97 -667 c6 -4 22 -10 38 -14 15
-3 27 -11 27 -16 0 -14 70 -24 83 -11 17 17 37 13 37 -8 0 -24 -19 -38 -29
-22 -4 7 -8 -2 -8 -19 0 -20 -7 -36 -21 -46 -20 -14 -21 -17 -7 -37 19 -27 19
-61 1 -76 -8 -7 -18 -26 -21 -43 -6 -26 -65 -100 -65 -81 0 4 -5 2 -11 -4 -6
-6 -18 -9 -25 -6 -8 3 -14 -1 -14 -9 0 -7 -9 -14 -20 -15 -11 -1 -20 2 -20 8
0 13 -28 11 -32 -2 -5 -16 -67 5 -96 32 -12 11 -22 17 -22 13 0 -4 -9 1 -20
11 -11 10 -20 23 -20 30 0 7 -9 22 -20 35 -11 13 -20 37 -21 54 -3 118 -1 128
20 142 12 8 21 24 21 36 0 14 5 18 15 14 8 -3 15 -1 15 5 0 6 4 8 9 4 5 -3 12
4 16 14 4 14 17 21 43 23 47 5 134 -3 147 -12z"/>
<path d="M1596 2773 c-6 -14 -5 -15 5 -6 7 7 10 15 7 18 -3 3 -9 -2 -12 -12z"/>
<path d="M1362 2740 c0 -14 2 -19 5 -12 2 6 2 18 0 25 -3 6 -5 1 -5 -13z"/>
<path d="M1645 2730 c-3 -5 -1 -10 4 -10 6 0 11 5 11 10 0 6 -2 10 -4 10 -3 0
-8 -4 -11 -10z"/>
<path d="M1627 2703 c-4 -3 -7 -11 -7 -17 0 -6 5 -5 12 2 6 6 9 14 7 17 -3 3
-9 2 -12 -2z"/>
<path d="M1682 2660 c0 -14 2 -19 5 -12 2 6 2 18 0 25 -3 6 -5 1 -5 -13z"/>
<path d="M1646 2615 c4 -8 8 -15 10 -15 2 0 4 7 4 15 0 8 -4 15 -10 15 -5 0
-7 -7 -4 -15z"/>
<path d="M1356 2584 c-8 -20 0 -32 14 -18 5 5 5 15 1 22 -6 11 -10 10 -15 -4z"/>
<path d="M1541 2564 c0 -11 3 -14 6 -6 3 7 2 16 -1 19 -3 4 -6 -2 -5 -13z"/>
<path d="M1615 2570 c-18 -8 -17 -9 8 -9 16 -1 26 3 22 9 -3 6 -7 10 -8 9 -1
0 -11 -4 -22 -9z"/>
<path d="M1678 2543 c7 -3 16 -2 19 1 4 3 -2 6 -13 5 -11 0 -14 -3 -6 -6z"/>
<path d="M1600 2510 c0 -5 5 -10 10 -10 6 0 10 5 10 10 0 6 -4 10 -10 10 -5 0
-10 -4 -10 -10z"/>
<path d="M2120 2450 c0 -13 11 -13 30 0 12 8 11 10 -7 10 -13 0 -23 -4 -23
-10z"/>
<path d="M1997 2403 c-12 -12 -7 -22 8 -17 8 4 15 10 15 15 0 11 -14 12 -23 2z"/>
<path d="M1971 2314 c0 -11 3 -14 6 -6 3 7 2 16 -1 19 -3 4 -6 -2 -5 -13z"/>
<path d="M1986 2237 c3 -10 9 -15 12 -12 3 3 0 11 -7 18 -10 9 -11 8 -5 -6z"/>
<path d="M2307 2204 c-3 -5 1 -15 9 -22 16 -14 18 -5 5 17 -5 7 -11 9 -14 5z"/>
<path d="M2230 2190 c0 -5 5 -10 10 -10 6 0 10 5 10 10 0 6 -4 10 -10 10 -5 0
-10 -4 -10 -10z"/>
<path d="M2145 2171 c-3 -5 4 -16 15 -24 11 -7 17 -16 15 -19 -3 -3 1 -8 10
-11 10 -4 15 -1 15 11 -1 20 -46 56 -55 43z"/>
<path d="M2260 2161 c0 -12 5 -21 10 -21 6 0 10 6 10 14 0 8 -4 18 -10 21 -5
3 -10 -3 -10 -14z"/>
<path d="M2100 2123 c0 -13 14 -27 35 -39 11 -7 20 -21 19 -32 0 -13 5 -19 15
-17 22 4 15 26 -14 50 -14 12 -25 26 -25 33 0 7 -7 12 -15 12 -8 0 -15 -3 -15
-7z"/>
<path d="M2148 1843 c7 -3 16 -2 19 1 4 3 -2 6 -13 5 -11 0 -14 -3 -6 -6z"/>
<path d="M2146 1744 c-8 -20 -4 -25 11 -16 7 4 9 13 4 21 -6 10 -10 9 -15 -5z"/>
<path d="M2100 1685 c0 -8 7 -15 15 -15 8 0 15 7 15 15 0 8 -7 15 -15 15 -8 0
-15 -7 -15 -15z"/>
<path d="M2233 1655 c-16 -18 -16 -30 0 -43 10 -9 13 -4 13 23 0 19 0 35 0 35
-1 -1 -7 -7 -13 -15z"/>
<path d="M2055 1650 c-16 -7 -17 -9 -3 -9 9 -1 18 -7 21 -13 3 -7 4 -3 4 10
-1 12 -1 22 -2 21 0 0 -9 -4 -20 -9z"/>
<path d="M2157 1646 c-19 -14 -23 -36 -7 -36 6 0 10 6 10 14 0 8 8 16 18 18 9
2 12 6 7 10 -6 3 -18 1 -28 -6z"/>
<path d="M2001 1604 c0 -11 3 -14 6 -6 3 7 2 16 -1 19 -3 4 -6 -2 -5 -13z"/>
<path d="M2260 1578 c0 -12 3 -17 8 -12 4 5 11 12 15 15 5 3 2 9 -7 12 -12 5
-16 0 -16 -15z"/>
<path d="M2190 1580 c0 -5 5 -10 10 -10 6 0 10 5 10 10 0 6 -4 10 -10 10 -5 0
-10 -4 -10 -10z"/>
<path d="M2320 1545 c0 -8 4 -15 10 -15 5 0 7 7 4 15 -4 8 -8 15 -10 15 -2 0
-4 -7 -4 -15z"/>
<path d="M2231 1495 c1 -40 1 -40 10 -10 5 18 5 33 -1 39 -7 7 -10 -4 -9 -29z"/>
<path d="M2278 1455 c-5 -25 3 -40 16 -28 9 10 7 53 -3 53 -5 0 -11 -11 -13
-25z"/>
<path d="M2108 1393 c7 -3 16 -2 19 1 4 3 -2 6 -13 5 -11 0 -14 -3 -6 -6z"/>
<path d="M2230 1391 c0 -6 5 -13 10 -16 6 -3 10 1 10 9 0 9 -4 16 -10 16 -5 0
-10 -4 -10 -9z"/>
<path d="M2130 1342 c0 -5 7 -9 15 -9 8 0 15 4 15 9 0 4 -7 8 -15 8 -8 0 -15
-4 -15 -8z"/>
<path d="M1720 2136 c0 -2 9 -6 20 -9 11 -3 20 -1 20 4 0 5 -9 9 -20 9 -11 0
-20 -2 -20 -4z"/>
<path d="M1510 2079 c-10 -18 -9 -20 7 -17 10 2 19 11 21 21 5 24 -15 21 -28
-4z"/>
<path d="M1790 2060 c-8 -5 -12 -11 -9 -14 7 -8 49 5 49 15 0 12 -21 11 -40
-1z"/>
<path d="M1536 2024 c-11 -7 -17 -16 -15 -19 3 -3 14 2 25 9 10 8 17 17 14 19
-3 3 -14 -1 -24 -9z"/>
<path d="M1480 2000 c0 -5 4 -10 9 -10 6 0 13 5 16 10 3 6 -1 10 -9 10 -9 0
-16 -4 -16 -10z"/>
<path d="M1539 1968 c-7 -24 -5 -38 4 -35 15 5 22 37 8 37 -6 0 -11 -1 -12 -2z"/>
<path d="M1583 1800 c1 -11 5 -20 9 -20 4 0 8 9 8 20 0 11 -4 20 -9 20 -6 0
-9 -9 -8 -20z"/>
<path d="M3422 2880 c-99 -33 -151 -92 -179 -203 -25 -96 -52 -136 -113 -169
-62 -32 -95 -32 -205 3 -115 36 -191 20 -274 -56 -72 -67 -92 -141 -64 -238
16 -54 27 -71 99 -142 66 -65 84 -89 94 -127 22 -84 -4 -156 -80 -217 -63 -51
-100 -123 -100 -198 0 -110 46 -182 145 -229 97 -46 203 -25 279 56 54 57 81
123 73 179 -6 49 -55 147 -81 165 -45 29 -106 97 -111 123 -4 16 -11 47 -17
71 -8 32 -8 46 1 55 6 6 11 20 11 32 0 32 76 103 118 111 24 5 37 3 40 -5 2
-6 10 -11 17 -11 21 0 55 -76 55 -125 0 -24 5 -47 10 -50 6 -3 10 -16 10 -28
0 -29 52 -92 102 -124 92 -57 234 -33 306 54 55 66 73 149 48 232 -18 61 -40
92 -97 133 -39 28 -50 31 -123 31 -68 1 -90 -3 -140 -27 -40 -19 -66 -26 -85
-21 -36 9 -91 64 -91 91 0 27 28 91 55 126 55 69 179 92 263 49 58 -30 160
-29 213 1 22 12 39 25 39 29 0 4 8 10 19 14 25 8 70 93 77 148 17 125 -51 224
-186 271 -55 19 -62 19 -128 -4z m93 -26 c-20 -15 -20 -15 0 -12 37 4 97 -14
91 -28 -3 -8 0 -11 10 -7 7 3 14 1 14 -4 0 -5 13 -16 29 -26 23 -13 28 -22 25
-46 -2 -17 3 -36 11 -44 8 -8 11 -17 8 -21 -4 -3 -1 -6 5 -6 7 0 12 -5 12 -11
0 -6 -6 -9 -14 -6 -10 4 -14 -1 -13 -16 0 -12 0 -37 -1 -55 l-2 -33 -35 38
c-20 21 -35 32 -35 24 0 -8 12 -27 26 -42 26 -27 25 -55 -2 -45 -19 7 -30 -14
-13 -25 10 -6 5 -10 -18 -15 -18 -3 -35 -14 -38 -24 -5 -14 -17 -17 -82 -15
-58 2 -78 6 -85 19 -5 9 -22 16 -41 16 -21 0 -28 3 -19 9 8 5 -20 8 -66 7 -44
-1 -84 -5 -88 -9 -5 -4 0 -5 11 -1 18 7 18 6 6 -9 -12 -16 -15 -16 -43 1 l-29
17 28 6 c15 3 27 10 25 17 -1 7 4 12 12 12 8 0 17 7 20 16 3 8 11 12 17 8 8
-4 9 -3 5 5 -7 11 13 81 24 81 3 0 7 17 8 37 2 22 11 45 23 56 11 11 18 26 15
34 -3 8 -1 11 4 8 6 -3 10 4 10 15 0 16 5 20 15 16 9 -3 19 3 25 14 6 11 27
24 48 29 20 5 53 14 72 19 48 13 48 13 25 -4z m-591 -387 c16 -12 26 -15 22
-8 -7 10 -3 11 15 6 13 -4 26 -11 29 -15 8 -12 53 -24 46 -12 -3 6 -1 14 5 18
8 4 9 3 5 -4 -5 -8 3 -12 23 -12 19 0 30 5 29 12 -4 19 37 21 52 4 10 -13 9
-17 -6 -22 -11 -4 -29 -19 -41 -33 -18 -20 -24 -23 -31 -13 -8 11 -10 11 -15
-2 -4 -9 -2 -16 4 -16 6 0 6 -7 -1 -20 -6 -11 -8 -24 -5 -29 3 -5 1 -11 -4
-13 -9 -3 -14 -41 -12 -88 1 -19 3 -22 10 -11 8 12 11 8 17 -15 8 -32 30 -53
57 -54 10 0 20 -7 23 -15 8 -19 27 -19 82 0 24 9 47 13 52 10 5 -3 11 4 15 15
6 18 15 20 95 20 79 0 89 -2 83 -16 -4 -11 -2 -15 7 -12 16 5 50 -21 50 -39 0
-6 9 -15 20 -18 15 -5 20 -15 20 -41 0 -20 4 -43 10 -53 10 -19 6 -38 -24
-116 -12 -33 -15 -36 -16 -15 0 19 -3 21 -9 11 -5 -8 -7 -20 -4 -28 8 -19 -25
-53 -45 -46 -9 4 -13 2 -9 -4 15 -25 -67 -43 -127 -27 -21 5 -27 4 -22 -5 10
-15 -5 -14 -26 3 -10 7 -14 17 -10 21 4 4 -4 5 -17 2 -29 -7 -97 53 -87 78 8
22 -5 80 -15 64 -13 -22 -19 -6 -12 34 4 25 11 37 22 37 13 1 12 3 -4 12 -33
19 -46 36 -35 43 14 9 -7 35 -27 35 -10 0 -14 7 -11 18 4 15 0 17 -23 14 -25
-4 -29 -1 -29 19 0 16 -3 20 -8 12 -5 -7 -22 -15 -39 -17 -21 -2 -44 -16 -67
-41 -19 -20 -40 -34 -46 -30 -6 4 -10 -4 -10 -17 0 -13 -5 -29 -10 -34 -24
-24 -4 -254 21 -238 5 3 9 1 9 -4 0 -12 66 -79 91 -93 11 -5 19 -16 19 -24 0
-8 4 -15 9 -15 5 0 11 -12 13 -27 2 -16 9 -28 17 -28 8 0 16 -6 19 -13 2 -7 0
-12 -5 -11 -27 5 -34 -2 -19 -17 20 -19 20 -54 1 -80 -8 -10 -15 -27 -15 -37
0 -11 -8 -21 -19 -24 -11 -3 -17 -11 -14 -21 4 -16 -45 -55 -64 -51 -4 1 -21
-3 -36 -9 -35 -15 -67 -15 -67 -2 0 6 -7 10 -16 10 -8 0 -13 -4 -10 -9 4 -5
-13 0 -36 12 -24 11 -46 20 -50 19 -4 -1 -4 6 -1 15 5 12 3 14 -7 8 -10 -6
-12 -4 -7 9 6 14 3 16 -13 11 -15 -5 -22 0 -30 21 -6 15 -8 29 -5 32 3 3 -2
14 -12 24 -9 10 -13 18 -8 18 4 0 2 7 -5 15 -9 11 -9 15 -1 15 8 0 10 14 7 46
-3 26 -2 43 3 39 5 -3 12 3 16 14 9 29 45 72 56 66 5 -4 9 -2 9 4 0 17 32 42
47 37 11 -4 11 -1 3 14 -13 24 -7 26 14 4 9 -8 16 -11 16 -5 0 5 -4 13 -10 16
-5 3 -10 14 -10 23 0 15 2 15 11 2 9 -12 10 -11 6 8 -3 12 -1 20 4 16 5 -3 9
1 9 10 0 8 4 16 8 18 5 2 5 38 1 81 -6 68 -11 81 -34 99 -24 19 -26 25 -20 66
4 30 3 42 -4 37 -6 -3 -11 -13 -11 -21 0 -8 -9 -14 -21 -14 -16 0 -20 5 -16
20 3 11 2 18 -3 15 -4 -2 -20 7 -34 20 -15 14 -32 25 -37 25 -6 0 -7 4 -4 10
3 5 -1 24 -9 42 -17 37 -19 148 -3 148 6 0 8 3 4 6 -3 3 7 20 23 38 17 17 30
34 30 39 0 4 9 7 20 7 11 0 19 -3 19 -7 -1 -5 -1 -19 0 -32 1 -18 4 -22 12
-14 7 7 8 17 3 25 -26 40 -3 67 55 66 23 0 44 2 47 4 9 10 59 -5 88 -25z"/>
<path d="M3280 2540 c0 -12 8 -12 35 0 18 8 17 9 -7 9 -16 1 -28 -3 -28 -9z"/>
<path d="M2778 2453 c7 -3 16 -2 19 1 4 3 -2 6 -13 5 -11 0 -14 -3 -6 -6z"/>
<path d="M2850 2440 c0 -5 7 -10 15 -10 8 0 15 5 15 10 0 6 -7 10 -15 10 -8 0
-15 -4 -15 -10z"/>
<path d="M2968 2403 c6 -2 18 -2 25 0 6 3 1 5 -13 5 -14 0 -19 -2 -12 -5z"/>
<path d="M2720 2205 c0 -10 80 -85 90 -85 6 0 2 10 -10 22 -11 12 -20 25 -20
30 0 4 -7 8 -15 8 -8 0 -15 4 -15 9 0 5 -7 11 -15 15 -8 3 -15 3 -15 1z"/>
<path d="M2992 2198 c3 -7 15 -14 29 -16 23 -2 23 -2 5 13 -24 18 -39 20 -34
3z"/>
<path d="M2710 2163 c0 -13 27 -49 33 -43 3 3 -3 16 -14 29 -10 13 -19 19 -19
14z"/>
<path d="M2840 2160 c0 -5 5 -10 10 -10 6 0 10 5 10 10 0 6 -4 10 -10 10 -5 0
-10 -4 -10 -10z"/>
<path d="M2885 2120 c-3 -6 1 -7 9 -4 18 7 21 14 7 14 -6 0 -13 -4 -16 -10z"/>
<path d="M3338 2122 c-10 -2 -18 -8 -18 -13 0 -13 27 -11 35 2 9 13 4 16 -17
11z"/>
<path d="M2832 2088 c6 -18 28 -21 28 -4 0 9 -7 16 -16 16 -9 0 -14 -5 -12
-12z"/>
<path d="M3380 2085 c0 -9 5 -15 11 -13 6 2 11 8 11 13 0 5 -5 11 -11 13 -6 2
-11 -4 -11 -13z"/>
<path d="M3460 2086 c0 -7 9 -16 21 -19 15 -4 19 -2 15 10 -3 8 -6 17 -6 19 0
2 -7 4 -15 4 -8 0 -15 -6 -15 -14z"/>
<path d="M3187 2074 c-8 -13 20 -41 30 -30 3 3 1 6 -5 6 -6 0 -12 8 -14 18 -2
11 -6 13 -11 6z"/>
<path d="M3270 2073 c0 -17 17 -29 53 -40 20 -6 37 -7 37 -2 0 5 -8 9 -18 9
-11 0 -29 9 -42 20 -25 22 -30 24 -30 13z"/>
<path d="M3517 2057 c-3 -8 1 -14 8 -14 7 0 11 6 8 14 -3 7 -6 13 -8 13 -2 0
-5 -6 -8 -13z"/>
<path d="M2800 2045 c0 -9 -6 -12 -17 -8 -15 6 -16 5 -3 -9 13 -14 16 -14 27
1 15 20 16 31 3 31 -5 0 -10 -7 -10 -15z"/>
<path d="M3425 2050 c-3 -5 1 -10 10 -10 9 0 13 5 10 10 -3 6 -8 10 -10 10 -2
0 -7 -4 -10 -10z"/>
<path d="M3460 2010 c0 -5 9 -10 20 -10 11 0 20 5 20 10 0 6 -9 10 -20 10 -11
0 -20 -4 -20 -10z"/>
<path d="M3441 1974 c0 -11 3 -14 6 -6 3 7 2 16 -1 19 -3 4 -6 -2 -5 -13z"/>
<path d="M3192 1950 c0 -14 2 -19 5 -12 2 6 2 18 0 25 -3 6 -5 1 -5 -13z"/>
<path d="M3460 1871 c0 -5 5 -13 10 -16 6 -3 10 -2 10 4 0 5 -4 13 -10 16 -5
3 -10 2 -10 -4z"/>
<path d="M3400 1800 c0 -5 5 -10 10 -10 6 0 10 5 10 10 0 6 -4 10 -10 10 -5 0
-10 -4 -10 -10z"/>
<path d="M2844 1711 c14 -13 18 -13 31 -1 12 13 10 15 -16 16 -28 1 -29 0 -15
-15z"/>
<path d="M2870 1681 c0 -14 5 -19 15 -14 17 6 15 25 -3 31 -7 2 -12 -5 -12
-17z"/>
<path d="M2750 1655 c0 -17 5 -25 13 -22 6 2 12 12 12 22 0 10 -6 20 -12 23
-8 2 -13 -6 -13 -23z"/>
<path d="M2800 1675 c0 -12 40 -48 47 -42 3 4 -3 16 -15 27 -21 20 -32 25 -32
15z"/>
<path d="M2708 1628 c-3 -7 1 -19 8 -26 11 -10 14 -10 14 0 0 7 -4 19 -9 26
-7 11 -9 11 -13 0z"/>
<path d="M2910 1610 c0 -5 7 -10 16 -10 8 0 12 5 9 10 -3 6 -10 10 -16 10 -5
0 -9 -4 -9 -10z"/>
<path d="M2786 1591 c-4 -7 -5 -15 -2 -18 9 -9 19 4 14 18 -4 11 -6 11 -12 0z"/>
<path d="M2711 1434 c0 -11 3 -14 6 -6 3 7 2 16 -1 19 -3 4 -6 -2 -5 -13z"/>
<path d="M2745 1400 c-3 -5 1 -10 9 -10 9 0 16 5 16 10 0 6 -4 10 -9 10 -6 0
-13 -4 -16 -10z"/>
<path d="M2800 1400 c0 -14 15 -19 29 -11 9 6 7 10 -8 14 -12 3 -21 1 -21 -3z"/>
<path d="M1700 2880 c0 -5 5 -10 10 -10 6 0 10 5 10 10 0 6 -4 10 -10 10 -5 0
-10 -4 -10 -10z"/>
<path d="M1782 2878 c2 -6 10 -14 16 -16 7 -2 10 2 6 12 -7 18 -28 22 -22 4z"/>
<path d="M3276 2875 c4 -8 8 -15 10 -15 2 0 4 7 4 15 0 8 -4 15 -10 15 -5 0
-7 -7 -4 -15z"/>
<path d="M2080 2872 c0 -5 7 -9 15 -9 8 0 12 4 9 9 -3 4 -9 8 -15 8 -5 0 -9
-4 -9 -8z"/>
<path d="M3200 2870 c0 -5 5 -10 11 -10 5 0 7 5 4 10 -3 6 -8 10 -11 10 -2 0
-4 -4 -4 -10z"/>
<path d="M1270 2855 c0 -9 5 -15 11 -13 6 2 11 8 11 13 0 5 -5 11 -11 13 -6 2
-11 -4 -11 -13z"/>
<path d="M1741 2846 c-9 -11 -8 -15 5 -20 23 -9 38 8 21 23 -11 9 -17 8 -26
-3z"/>
<path d="M2172 2833 c5 -7 14 -10 19 -7 16 10 9 23 -10 21 -15 -1 -17 -4 -9
-14z"/>
<path d="M3225 2841 c3 -6 14 -9 25 -8 24 2 15 17 -11 17 -11 0 -18 -4 -14 -9z"/>
<path d="M2791 2831 c-7 -5 -9 -11 -5 -14 5 -3 15 1 22 9 14 16 5 18 -17 5z"/>
<path d="M3740 2828 c0 -4 4 -8 9 -8 6 0 12 4 15 8 3 5 -1 9 -9 9 -8 0 -15 -4
-15 -9z"/>
<path d="M1235 2810 c3 -5 8 -10 11 -10 2 0 4 5 4 10 0 6 -5 10 -11 10 -5 0
-7 -4 -4 -10z"/>
<path d="M1786 2811 c-4 -7 -5 -15 -2 -18 9 -9 19 4 14 18 -4 11 -6 11 -12 0z"/>
<path d="M3211 2784 c0 -11 3 -14 6 -6 3 7 2 16 -1 19 -3 4 -6 -2 -5 -13z"/>
<path d="M1207 2753 c-11 -11 -8 -20 8 -20 8 0 15 6 15 14 0 14 -12 17 -23 6z"/>
<path d="M2200 2720 c0 -11 5 -20 10 -20 6 0 10 9 10 20 0 11 -4 20 -10 20 -5
0 -10 -9 -10 -20z"/>
<path d="M2771 2694 c0 -11 3 -14 6 -6 3 7 2 16 -1 19 -3 4 -6 -2 -5 -13z"/>
<path d="M1816 2684 c-8 -22 -4 -25 11 -9 7 8 9 16 4 19 -5 3 -12 -1 -15 -10z"/>
<path d="M3790 2661 c0 -12 5 -21 10 -21 6 0 10 6 10 14 0 8 -4 18 -10 21 -5
3 -10 -3 -10 -14z"/>
<path d="M1201 2644 c0 -11 3 -14 6 -6 3 7 2 16 -1 19 -3 4 -6 -2 -5 -13z"/>
<path d="M2720 2651 c0 -5 -3 -18 -6 -28 -6 -16 -5 -16 9 2 19 23 21 35 7 35
-5 0 -10 -4 -10 -9z"/>
<path d="M2260 2633 c0 -11 3 -14 8 -7 4 6 14 14 22 17 10 4 8 6 -7 6 -16 1
-23 -5 -23 -16z"/>
<path d="M2236 2615 c-3 -8 -1 -15 4 -15 6 0 10 7 10 15 0 8 -2 15 -4 15 -2 0
-6 -7 -10 -15z"/>
<path d="M2800 2600 c0 -5 5 -10 11 -10 5 0 7 5 4 10 -3 6 -8 10 -11 10 -2 0
-4 -4 -4 -10z"/>
<path d="M1870 2596 c0 -11 30 -39 36 -34 2 3 -5 13 -16 23 -11 10 -20 15 -20
11z"/>
<path d="M3116 2586 c3 -8 12 -12 20 -9 21 8 17 23 -6 23 -13 0 -18 -5 -14
-14z"/>
<path d="M3790 2589 c0 -5 5 -7 10 -4 6 3 10 8 10 11 0 2 -4 4 -10 4 -5 0 -10
-5 -10 -11z"/>
<path d="M2720 2580 c0 -5 7 -10 16 -10 8 0 12 5 9 10 -3 6 -10 10 -16 10 -5
0 -9 -4 -9 -10z"/>
<path d="M1940 2570 c0 -5 5 -10 10 -10 6 0 10 5 10 10 0 6 -4 10 -10 10 -5 0
-10 -4 -10 -10z"/>
<path d="M2075 2570 c-3 -6 1 -7 9 -4 18 7 21 14 7 14 -6 0 -13 -4 -16 -10z"/>
<path d="M2208 2573 c7 -3 16 -2 19 1 4 3 -2 6 -13 5 -11 0 -14 -3 -6 -6z"/>
<path d="M2253 2573 c9 -2 23 -2 30 0 6 3 -1 5 -18 5 -16 0 -22 -2 -12 -5z"/>
<path d="M2881 2576 c2 -2 22 -6 44 -9 27 -4 35 -3 25 3 -14 9 -79 15 -69 6z"/>
<path d="M2350 2560 c0 -5 5 -10 10 -10 6 0 10 5 10 10 0 6 -4 10 -10 10 -5 0
-10 -4 -10 -10z"/>
<path d="M3016 2561 c-4 -5 -2 -12 3 -15 5 -4 12 -2 15 3 4 5 2 12 -3 15 -5 4
-12 2 -15 -3z"/>
<path d="M3068 2563 c7 -3 16 -2 19 1 4 3 -2 6 -13 5 -11 0 -14 -3 -6 -6z"/>
<path d="M1970 2550 c0 -5 7 -10 15 -10 8 0 15 5 15 10 0 6 -7 10 -15 10 -8 0
-15 -4 -15 -10z"/>
<path d="M2413 2543 c9 -2 23 -2 30 0 6 3 -1 5 -18 5 -16 0 -22 -2 -12 -5z"/>
<path d="M2568 2533 c6 -2 18 -2 25 0 6 3 1 5 -13 5 -14 0 -19 -2 -12 -5z"/>
<path d="M2391 2521 c-8 -5 -9 -11 -3 -15 5 -3 12 1 16 9 6 17 6 18 -13 6z"/>
<path d="M3780 2514 c0 -8 5 -12 10 -9 6 4 8 11 5 16 -9 14 -15 11 -15 -7z"/>
<path d="M2590 2511 c0 -5 9 -7 20 -4 11 3 20 7 20 9 0 2 -9 4 -20 4 -11 0
-20 -4 -20 -9z"/>
<path d="M3750 2480 c0 -5 5 -10 11 -10 5 0 7 5 4 10 -3 6 -8 10 -11 10 -2 0
-4 -4 -4 -10z"/>
<path d="M2572 2460 c0 -14 2 -19 5 -12 2 6 2 18 0 25 -3 6 -5 1 -5 -13z"/>
<path d="M3720 2445 c0 -17 25 -20 35 -5 4 6 -1 7 -11 3 -12 -4 -15 -3 -10 5
4 7 2 12 -3 12 -6 0 -11 -7 -11 -15z"/>
<path d="M1292 2425 c-11 -12 -10 -15 3 -15 8 0 15 7 15 15 0 18 -2 18 -18 0z"/>
<path d="M2451 2424 c0 -11 3 -14 6 -6 3 7 2 16 -1 19 -3 4 -6 -2 -5 -13z"/>
<path d="M3677 2413 c-4 -3 -7 -11 -7 -17 0 -6 5 -5 12 2 6 6 9 14 7 17 -3 3
-9 2 -12 -2z"/>
<path d="M3618 2373 c7 -3 16 -2 19 1 4 3 -2 6 -13 5 -11 0 -14 -3 -6 -6z"/>
<path d="M1792 2361 c4 -13 18 -16 19 -4 0 4 -5 9 -11 12 -7 2 -11 -2 -8 -8z"/>
<path d="M2490 2350 c13 -23 20 -26 20 -6 0 8 -7 16 -15 20 -13 4 -14 2 -5
-14z"/>
<path d="M3185 2360 c-3 -6 1 -7 9 -4 18 7 21 14 7 14 -6 0 -13 -4 -16 -10z"/>
<path d="M3380 2345 c-14 -16 -3 -20 19 -6 8 5 9 11 3 15 -5 3 -15 -1 -22 -9z"/>
<path d="M3520 2330 c0 -5 7 -10 15 -10 8 0 15 5 15 10 0 6 -7 10 -15 10 -8 0
-15 -4 -15 -10z"/>
<path d="M1844 2303 c1 -19 5 -28 10 -23 6 6 5 18 -1 32 -10 21 -10 21 -9 -9z"/>
<path d="M3135 2294 c-20 -15 -20 -16 4 -12 14 2 26 9 29 16 5 16 -9 15 -33
-4z"/>
<path d="M1410 2269 c0 -5 5 -7 10 -4 6 3 10 8 10 11 0 2 -4 4 -10 4 -5 0 -10
-5 -10 -11z"/>
<path d="M1805 2270 c4 -6 11 -8 16 -5 14 9 11 15 -7 15 -8 0 -12 -5 -9 -10z"/>
<path d="M3318 2273 c7 -3 16 -2 19 1 4 3 -2 6 -13 5 -11 0 -14 -3 -6 -6z"/>
<path d="M1864 2255 c-3 -8 -4 -20 -2 -27 3 -7 7 -1 10 15 6 29 1 36 -8 12z"/>
<path d="M3448 2253 c7 -3 16 -2 19 1 4 3 -2 6 -13 5 -11 0 -14 -3 -6 -6z"/>
<path d="M3200 2241 c0 -11 26 -22 34 -14 3 3 3 10 0 14 -7 12 -34 11 -34 0z"/>
<path d="M1426 2212 c-2 -4 -1 -14 5 -22 7 -12 9 -10 9 8 0 23 -5 28 -14 14z"/>
<path d="M1375 2170 c-3 -5 -1 -10 4 -10 6 0 11 5 11 10 0 6 -2 10 -4 10 -3 0
-8 -4 -11 -10z"/>
<path d="M1396 2164 c-8 -20 0 -32 14 -18 5 5 5 15 1 22 -6 11 -10 10 -15 -4z"/>
<path d="M2481 2164 c0 -11 3 -14 6 -6 3 7 2 16 -1 19 -3 4 -6 -2 -5 -13z"/>
<path d="M1355 2130 c-3 -5 -1 -10 4 -10 6 0 11 5 11 10 0 6 -2 10 -4 10 -3 0
-8 -4 -11 -10z"/>
<path d="M3627 2126 c-4 -10 -1 -13 9 -9 9 3 14 -1 14 -13 0 -9 3 -15 6 -11 8
7 -5 47 -16 47 -4 0 -10 -7 -13 -14z"/>
<path d="M3720 2120 c0 -5 5 -10 11 -10 5 0 7 5 4 10 -3 6 -8 10 -11 10 -2 0
-4 -4 -4 -10z"/>
<path d="M2560 2100 c0 -4 9 -10 20 -13 11 -3 20 -2 20 3 0 4 -9 10 -20 13
-11 3 -20 2 -20 -3z"/>
<path d="M3725 2090 c3 -5 8 -10 11 -10 2 0 4 5 4 10 0 6 -5 10 -11 10 -5 0
-7 -4 -4 -10z"/>
<path d="M2375 2050 c-3 -5 -1 -10 4 -10 6 0 11 5 11 10 0 6 -2 10 -4 10 -3 0
-8 -4 -11 -10z"/>
<path d="M3030 2010 c0 -19 3 -21 12 -12 9 9 9 15 0 24 -9 9 -12 7 -12 -12z"/>
<path d="M1960 1994 c0 -14 4 -23 10 -19 6 3 10 15 10 26 0 10 -4 19 -10 19
-5 0 -10 -12 -10 -26z"/>
<path d="M2010 2004 c0 -8 5 -12 10 -9 6 4 8 11 5 16 -9 14 -15 11 -15 -7z"/>
<path d="M2312 2009 c2 -7 10 -15 17 -17 8 -3 12 1 9 9 -2 7 -10 15 -17 17 -8
3 -12 -1 -9 -9z"/>
<path d="M2634 1994 c-4 -14 -2 -30 3 -35 7 -7 9 -2 6 15 -4 19 -1 26 10 26 9
0 19 5 22 10 3 6 -3 10 -14 10 -14 0 -23 -9 -27 -26z"/>
<path d="M2980 2004 c0 -8 5 -12 10 -9 6 3 10 10 10 16 0 5 -4 9 -10 9 -5 0
-10 -7 -10 -16z"/>
<path d="M2941 1984 c0 -11 3 -14 6 -6 3 7 2 16 -1 19 -3 4 -6 -2 -5 -13z"/>
<path d="M3671 1984 c0 -11 3 -14 6 -6 3 7 2 16 -1 19 -3 4 -6 -2 -5 -13z"/>
<path d="M2040 1980 c0 -5 5 -10 11 -10 5 0 7 5 4 10 -3 6 -8 10 -11 10 -2 0
-4 -4 -4 -10z"/>
<path d="M2296 1964 c-4 -10 -1 -21 6 -25 16 -11 22 5 10 27 -8 15 -10 15 -16
-2z"/>
<path d="M2022 1944 c7 -15 14 -21 16 -15 5 16 -5 41 -17 41 -7 0 -6 -10 1
-26z"/>
<path d="M2377 1959 c7 -7 15 -10 18 -7 3 3 -2 9 -12 12 -14 6 -15 5 -6 -5z"/>
<path d="M3071 1944 c0 -11 3 -14 6 -6 3 7 2 16 -1 19 -3 4 -6 -2 -5 -13z"/>
<path d="M1918 1895 c-3 -13 -2 -22 3 -20 4 3 9 -1 12 -7 2 -7 4 2 5 20 1 38
-14 43 -20 7z"/>
<path d="M2264 1904 c3 -9 6 -20 6 -25 0 -5 4 -9 9 -9 4 0 6 11 3 25 -2 14 -9
25 -14 25 -6 0 -7 -7 -4 -16z"/>
<path d="M2345 1907 c-4 -10 -5 -21 -1 -24 10 -10 18 4 13 24 -4 17 -4 17 -12
0z"/>
<path d="M2713 1898 c-2 -18 0 -20 7 -8 12 18 13 30 2 30 -4 0 -9 -10 -9 -22z"/>
<path d="M2951 1904 c0 -11 3 -14 6 -6 3 7 2 16 -1 19 -3 4 -6 -2 -5 -13z"/>
<path d="M1983 1880 c-1 -11 2 -20 8 -20 5 0 9 9 9 20 0 11 -4 20 -8 20 -4 0
-8 -9 -9 -20z"/>
<path d="M3003 1871 c0 -11 5 -17 9 -15 11 7 10 34 -1 34 -6 0 -9 -9 -8 -19z"/>
<path d="M3662 1855 c0 -16 2 -22 5 -12 2 9 2 23 0 30 -3 6 -5 -1 -5 -18z"/>
<path d="M2956 1855 c4 -8 8 -15 10 -15 2 0 4 7 4 15 0 8 -4 15 -10 15 -5 0
-7 -7 -4 -15z"/>
<path d="M3075 1860 c-3 -5 1 -10 9 -10 9 0 16 5 16 10 0 6 -4 10 -9 10 -6 0
-13 -4 -16 -10z"/>
<path d="M2381 1843 c7 -10 15 -20 16 -22 2 -2 3 3 3 11 0 9 -7 19 -16 22 -15
6 -15 4 -3 -11z"/>
<path d="M1357 1817 c-3 -8 1 -14 9 -14 16 0 19 13 5 21 -5 3 -11 0 -14 -7z"/>
<path d="M2320 1812 c-17 -13 -19 -19 -8 -19 8 0 20 9 27 19 6 10 9 18 7 18
-2 0 -14 -8 -26 -18z"/>
<path d="M1890 1811 c0 -10 19 -25 25 -20 1 2 -3 10 -11 17 -8 7 -14 8 -14 3z"/>
<path d="M2630 1811 c0 -6 0 -13 0 -16 0 -3 3 -5 6 -4 4 0 10 -5 15 -12 4 -8
10 -11 13 -9 2 3 -4 16 -15 29 -10 13 -19 18 -19 12z"/>
<path d="M3023 1794 c-3 -9 3 -23 15 -35 23 -21 42 -25 42 -9 0 6 -7 10 -15
10 -8 0 -15 5 -15 11 0 5 -5 7 -11 3 -8 -4 -9 0 -4 15 7 24 -3 29 -12 5z"/>
<path d="M3080 1784 c0 -9 5 -14 12 -12 18 6 21 28 4 28 -9 0 -16 -7 -16 -16z"/>
<path d="M2350 1771 c-13 -26 2 -35 18 -11 7 11 8 21 2 25 -5 3 -14 -3 -20
-14z"/>
<path d="M1836 1763 c-6 -14 -5 -15 5 -6 7 7 10 15 7 18 -3 3 -9 -2 -12 -12z"/>
<path d="M1950 1760 c0 -5 -7 -10 -15 -10 -17 0 -20 -25 -5 -35 5 -3 7 0 4 9
-3 9 2 17 15 21 21 6 29 25 11 25 -5 0 -10 -4 -10 -10z"/>
<path d="M3124 1735 c-7 -13 -9 -26 -6 -29 7 -7 31 25 32 42 0 20 -14 13 -26
-13z"/>
<path d="M3570 1740 c0 -5 5 -10 10 -10 6 0 10 5 10 10 0 6 -4 10 -10 10 -5 0
-10 -4 -10 -10z"/>
<path d="M1820 1730 c13 -8 12 -10 -2 -10 -19 0 -24 -15 -9 -25 6 -3 15 3 20
13 11 20 6 32 -13 32 -6 0 -4 -5 4 -10z"/>
<path d="M2626 1731 c-3 -5 1 -11 9 -14 9 -4 12 -1 8 9 -6 16 -10 17 -17 5z"/>
<path d="M3170 1727 c0 -10 8 -17 18 -17 9 0 13 4 7 8 -5 4 -13 11 -17 16 -5
5 -8 2 -8 -7z"/>
<path d="M1442 1723 c-19 -8 -4 -22 18 -16 11 3 17 9 14 14 -6 10 -12 10 -32
2z"/>
<path d="M2385 1719 c-4 -6 -5 -12 -2 -15 2 -3 7 2 10 11 7 17 1 20 -8 4z"/>
<path d="M3540 1720 c-9 -6 -10 -10 -3 -10 6 0 15 5 18 10 8 12 4 12 -15 0z"/>
<path d="M1863 1695 c2 -5 10 -10 17 -10 7 0 15 5 17 10 2 6 -6 11 -17 11 -11
0 -19 -5 -17 -11z"/>
<path d="M3090 1695 c0 -8 4 -15 10 -15 5 0 7 7 4 15 -4 8 -8 15 -10 15 -2 0
-4 -7 -4 -15z"/>
<path d="M3227 1703 c-12 -12 -7 -22 8 -17 8 4 15 10 15 15 0 11 -14 12 -23 2z"/>
<path d="M3200 1670 c0 -5 5 -10 11 -10 5 0 7 5 4 10 -3 6 -8 10 -11 10 -2 0
-4 -4 -4 -10z"/>
<path d="M3510 1670 c0 -6 7 -10 15 -10 8 0 15 2 15 4 0 2 -7 6 -15 10 -8 3
-15 1 -15 -4z"/>
<path d="M1481 1654 c9 -8 36 -17 60 -19 l44 -4 -40 8 c-21 5 -41 14 -43 20
-2 6 -11 11 -20 11 -15 0 -15 -1 -1 -16z"/>
<path d="M1673 1656 c0 -8 8 -11 19 -8 10 2 18 8 18 13 0 5 -8 9 -18 9 -10 0
-19 -6 -19 -14z"/>
<path d="M1820 1651 c-16 -31 -12 -36 10 -11 23 26 24 30 10 30 -5 0 -14 -9
-20 -19z"/>
<path d="M3146 1661 c-4 -6 -1 -18 8 -26 27 -27 36 -13 13 20 -10 12 -16 15
-21 6z"/>
<path d="M3288 1663 c6 -2 18 -2 25 0 6 3 1 5 -13 5 -14 0 -19 -2 -12 -5z"/>
<path d="M1625 1640 c-3 -5 3 -10 15 -10 12 0 18 5 15 10 -3 6 -10 10 -15 10
-5 0 -12 -4 -15 -10z"/>
<path d="M1720 1640 c0 -5 9 -10 21 -10 11 0 17 5 14 10 -3 6 -13 10 -21 10
-8 0 -14 -4 -14 -10z"/>
<path d="M3230 1641 c0 -15 36 -41 56 -40 17 0 17 2 -3 11 -13 6 -23 14 -23
18 0 5 -7 10 -15 14 -8 3 -15 2 -15 -3z"/>
<path d="M3330 1636 c0 -9 7 -15 18 -13 26 4 30 22 5 25 -16 2 -23 -2 -23 -12z"/>
<path d="M3420 1640 c-9 -6 -10 -10 -3 -10 6 0 15 5 18 10 8 12 4 12 -15 0z"/>
<path d="M1862 1620 c0 -14 2 -19 5 -12 2 6 2 18 0 25 -3 6 -5 1 -5 -13z"/>
<path d="M3458 1633 c6 -2 18 -2 25 0 6 3 1 5 -13 5 -14 0 -19 -2 -12 -5z"/>
<path d="M2450 1601 c0 -6 4 -13 10 -16 6 -3 7 1 4 9 -7 18 -14 21 -14 7z"/>
<path d="M2466 1558 c3 -5 10 -6 15 -3 13 9 11 12 -6 12 -8 0 -12 -4 -9 -9z"/>
<path d="M1805 1550 c3 -5 8 -10 11 -10 2 0 4 5 4 10 0 6 -5 10 -11 10 -5 0
-7 -4 -4 -10z"/>
<path d="M1852 1489 c6 -16 12 -28 14 -26 5 5 -13 57 -20 57 -3 0 0 -14 6 -31z"/>
<path d="M1806 1445 c4 -8 8 -15 10 -15 2 0 4 7 4 15 0 8 -4 15 -10 15 -5 0
-7 -7 -4 -15z"/>
<path d="M2452 1430 c0 -19 2 -27 5 -17 2 9 2 25 0 35 -3 9 -5 1 -5 -18z"/>
<path d="M2472 1430 c0 -19 2 -27 5 -17 2 9 2 25 0 35 -3 9 -5 1 -5 -18z"/>
<path d="M3113 1373 c-7 -3 -13 -11 -13 -18 0 -8 -8 -18 -17 -24 -10 -5 -15
-13 -11 -17 10 -9 38 14 38 31 0 8 6 15 13 18 6 2 10 7 7 9 -3 3 -11 3 -17 1z"/>
<path d="M1800 1360 c0 -5 5 -10 10 -10 6 0 10 5 10 10 0 6 -4 10 -10 10 -5 0
-10 -4 -10 -10z"/>
<path d="M1880 1354 c0 -8 5 -12 10 -9 6 3 10 10 10 16 0 5 -4 9 -10 9 -5 0
-10 -7 -10 -16z"/>
<path d="M2596 1341 c-18 -7 -18 -8 4 -14 27 -7 39 -1 24 12 -5 5 -18 5 -28 2z"/>
<path d="M3157 1310 c-9 -11 -24 -20 -32 -20 -8 0 -15 -9 -15 -20 0 -11 1 -20
3 -20 6 0 77 68 77 74 0 12 -16 5 -33 -14z"/>
<path d="M1851 1311 c-7 -5 -11 -15 -9 -22 3 -10 8 -7 17 9 13 24 12 26 -8 13z"/>
<path d="M1935 1310 c3 -5 1 -10 -4 -10 -19 0 -12 -17 9 -23 16 -4 20 0 20 19
0 15 -6 24 -16 24 -8 0 -12 -4 -9 -10z"/>
<path d="M2370 1296 c0 -2 7 -9 15 -16 12 -10 15 -10 15 4 0 9 -7 16 -15 16
-8 0 -15 -2 -15 -4z"/>
<path d="M3032 1280 c-6 -11 -8 -21 -3 -25 5 -3 13 4 16 16 9 28 2 33 -13 9z"/>
<path d="M2316 1273 c-3 -3 -3 -10 0 -14 7 -12 44 -12 44 0 0 10 -36 21 -44
14z"/>
<path d="M2641 1260 c-13 -11 -19 -20 -13 -20 5 0 20 9 33 20 13 10 20 19 14
19 -5 0 -21 -9 -34 -19z"/>
<path d="M1800 1255 c0 -8 5 -15 10 -15 6 0 10 7 10 15 0 8 -4 15 -10 15 -5 0
-10 -7 -10 -15z"/>
<path d="M1898 1243 c7 -3 16 -2 19 1 4 3 -2 6 -13 5 -11 0 -14 -3 -6 -6z"/>
<path d="M2276 1241 c-12 -5 -15 -10 -9 -14 6 -4 16 0 23 8 14 17 13 17 -14 6z"/>
<path d="M2675 1240 c3 -5 14 -10 23 -10 15 0 15 2 2 10 -20 13 -33 13 -25 0z"/>
<path d="M2391 1224 c0 -11 3 -14 6 -6 3 7 2 16 -1 19 -3 4 -6 -2 -5 -13z"/>
<path d="M3067 1220 c6 -22 15 -19 19 5 1 8 -4 15 -11 15 -8 0 -11 -7 -8 -20z"/>
<path d="M3153 1223 c-18 -7 -16 -23 2 -23 8 0 15 7 15 15 0 8 -1 15 -2 14 -2
0 -9 -3 -15 -6z"/>
</g>
</svg>
