<?xml version="1.0" standalone="no"?>
<!DOCTYPE svg PUBLIC "-//W3C//DTD SVG 20010904//EN"
 "http://www.w3.org/TR/2001/REC-SVG-20010904/DTD/svg10.dtd">
<svg version="1.0" xmlns="http://www.w3.org/2000/svg"
 width="474.000000pt" height="474.000000pt" viewBox="0 0 474.000000 474.000000"
 preserveAspectRatio="xMidYMid meet">
<g transform="translate(0.000000,474.000000) scale(0.100000,-0.100000)"
fill="#ffffff" stroke="none">
<path d="M2200 4143 l0 -50 108 -6 c615 -37 1158 -373 1482 -919 93 -155 178
-391 216 -599 22 -120 29 -374 14 -511 -61 -569 -402 -1089 -900 -1375 -144
-83 -386 -179 -500 -199 -14 -2 -54 -9 -90 -15 -36 -6 -81 -15 -100 -19 l-35
-8 35 -1 c19 0 55 4 80 10 25 5 61 12 80 15 19 3 81 18 137 35 501 145 932
513 1168 994 60 123 129 335 155 477 42 224 37 512 -11 730 -114 517 -435 962
-885 1228 -246 145 -554 239 -845 256 l-109 7 0 -50z m206 5 c-6 -4 9 -7 34
-6 25 1 79 -5 120 -14 41 -9 79 -13 84 -10 5 3 6 1 3 -5 -4 -6 16 -17 44 -27
60 -19 73 -20 63 -5 -4 7 1 7 16 -1 18 -10 20 -14 9 -21 -10 -6 -5 -9 16 -10
45 -3 46 -3 100 -28 27 -12 58 -20 67 -17 10 2 16 0 13 -4 -3 -5 -2 -10 2 -13
5 -2 1 -2 -7 0 -11 3 -12 1 -4 -7 6 -6 28 -12 50 -14 30 -3 38 -8 36 -21 -2
-11 2 -15 10 -12 7 2 12 11 10 18 -3 11 -1 12 10 1 11 -11 10 -14 -2 -22 -11
-7 -5 -8 18 -5 30 3 32 2 20 -12 -12 -15 -11 -15 11 -4 13 7 21 9 18 3 -4 -5
5 -14 18 -20 14 -7 25 -18 25 -27 0 -18 11 -19 29 -2 11 10 12 9 7 -1 -4 -7
-2 -20 5 -28 11 -13 9 -15 -12 -12 -32 5 -51 17 -43 30 4 6 -1 8 -16 3 -16 -5
-21 -4 -18 6 3 8 14 13 24 11 15 -2 16 -1 5 7 -8 5 -22 6 -30 2 -10 -5 -32 -1
-56 10 -22 9 -34 18 -26 18 20 1 8 11 -19 16 -13 3 -26 9 -30 15 -4 6 -15 8
-26 4 -14 -4 -16 -3 -5 4 10 7 0 14 -42 26 -30 9 -60 16 -66 16 -6 0 -11 4
-11 9 0 5 -10 7 -22 4 -19 -4 -20 -3 -8 7 12 9 10 10 -12 6 -17 -4 -28 -2 -28
4 0 6 5 8 10 5 6 -3 10 -1 10 5 0 8 -11 9 -31 5 -21 -5 -29 -4 -25 3 4 7 -7 9
-29 8 -19 -2 -32 1 -29 6 3 5 13 7 23 3 12 -5 13 -3 5 5 -9 9 -17 9 -32 1 -25
-13 -35 -14 -28 -2 7 10 -45 21 -121 26 -28 2 -66 10 -82 18 -17 9 -31 12 -31
8 0 -5 -19 -5 -42 0 -24 4 -68 8 -98 9 -49 0 -56 2 -56 20 0 19 6 20 92 18 51
-2 87 -6 80 -10z m859 -316 c-3 -3 -11 0 -18 7 -9 10 -8 11 6 5 10 -3 15 -9
12 -12z m15 -22 c0 -5 5 -10 11 -10 5 0 7 5 3 12 -5 7 -3 8 5 3 7 -4 21 -21
32 -39 10 -17 19 -27 19 -23 0 4 9 3 21 -3 12 -7 18 -18 15 -26 -4 -11 -1 -14
12 -10 9 3 28 -4 42 -14 15 -12 18 -18 8 -14 -12 4 -18 1 -18 -9 0 -20 16 -31
25 -17 10 17 25 11 18 -7 -4 -11 -3 -14 5 -9 7 4 12 2 12 -3 0 -9 -28 -9 -50
-1 -3 2 -9 2 -13 1 -5 -1 -6 3 -3 8 7 11 -33 43 -45 35 -4 -2 -11 1 -15 7 -4
8 -3 9 4 5 7 -4 12 -2 12 3 0 10 -20 15 -42 12 -4 0 -5 8 -3 19 4 19 -9 28
-18 13 -2 -5 -2 -2 0 6 2 8 -2 11 -11 8 -8 -3 -25 7 -40 24 -31 35 -32 39 -6
39 11 0 20 -4 20 -10z m246 -191 c3 -6 1 -15 -6 -19 -7 -4 -9 -13 -5 -20 6 -9
9 -9 15 0 12 19 56 -19 52 -45 -2 -16 -1 -17 7 -5 8 11 11 12 11 2 0 -7 5 -10
10 -7 6 4 10 3 9 -2 -1 -4 1 -16 6 -26 5 -11 3 -23 -4 -30 -9 -9 -11 -8 -5 7
5 13 4 17 -4 12 -8 -5 -10 -1 -5 11 6 16 5 16 -10 4 -14 -11 -23 -10 -14 2 1
2 -4 11 -11 20 -8 9 -11 21 -7 27 3 5 -1 10 -10 10 -10 0 -13 -5 -9 -12 4 -7
-10 3 -33 22 -35 31 -38 37 -25 48 19 15 29 15 38 1z m120 -154 c-3 -8 -1 -15
3 -15 5 0 19 -16 31 -35 13 -21 27 -32 33 -29 7 4 7 1 -1 -7 -11 -12 -14 -12
-22 1 -5 8 -10 11 -10 5 0 -5 -7 1 -16 13 -8 12 -12 28 -8 35 6 9 5 9 -8 -1
-13 -10 -15 -9 -13 10 4 35 5 38 11 38 3 0 4 -7 0 -15z m86 -119 c-2 -9 2 -16
7 -16 6 0 8 -7 5 -15 -5 -11 -9 -11 -19 -2 -7 6 -10 18 -7 26 3 9 1 12 -6 7
-13 -8 -17 6 -5 18 12 11 28 0 25 -18z m52 -69 c16 -11 17 -17 7 -33 -11 -17
-11 -16 -5 6 6 23 6 24 -11 10 -14 -11 -17 -11 -11 -1 5 8 3 17 -5 22 -8 5 -9
9 -3 9 5 0 18 -6 28 -13z m42 -61 c12 -19 13 -29 5 -43 -6 -11 -11 -13 -11 -5
0 7 -5 10 -12 6 -7 -4 -8 -3 -4 5 4 6 2 20 -6 29 -12 15 -11 16 5 3 19 -15 24
-2 5 17 -7 7 -9 12 -5 12 3 0 14 -11 23 -24z m36 -83 c15 -29 15 -33 0 -45
-11 -9 -14 -9 -9 -1 10 16 -2 65 -14 57 -5 -3 -6 2 -3 11 7 18 6 19 26 -22z
m41 -90 c-3 -7 -6 -13 -8 -13 -2 0 -5 6 -8 13 -3 8 1 14 8 14 7 0 11 -6 8 -14z
m7 -27 c0 -3 -4 -8 -10 -11 -5 -3 -10 -1 -10 4 0 6 5 11 10 11 6 0 10 -2 10
-4z m14 -32 c3 -8 2 -12 -4 -9 -6 3 -10 10 -10 16 0 14 7 11 14 -7z m23 -56
c-3 -8 -6 -5 -6 6 -1 11 2 17 5 13 3 -3 4 -12 1 -19z"/>
<path d="M2460 4130 c21 -7 22 -8 5 -10 l-20 -1 20 -9 c27 -12 43 -12 25 0
-12 8 -12 10 5 11 l20 0 -20 9 c-11 5 -29 8 -40 8 -16 0 -15 -2 5 -8z"/>
<path d="M2885 4000 c27 -12 43 -12 25 0 -8 5 -22 9 -30 9 -10 0 -8 -3 5 -9z"/>
<path d="M3078 3903 c7 -3 16 -2 19 1 4 3 -2 6 -13 5 -11 0 -14 -3 -6 -6z"/>
<path d="M3305 3790 c6 -9 1 -10 -16 -5 -13 3 -19 3 -14 -2 6 -5 13 -12 16
-16 3 -4 12 -1 18 7 9 11 9 16 0 22 -8 5 -9 3 -4 -6z"/>
<path d="M3345 3740 c-4 -6 -5 -10 -3 -11 25 -6 38 -6 38 1 0 12 -29 20 -35
10z"/>
<path d="M3395 3700 c-4 -6 1 -7 11 -3 13 5 15 3 9 -7 -5 -9 -4 -11 4 -6 6 4
9 12 6 17 -8 12 -22 12 -30 -1z"/>
<path d="M3010 4090 c-8 -5 -10 -10 -5 -10 6 0 17 5 25 10 8 5 11 10 5 10 -5
0 -17 -5 -25 -10z"/>
<path d="M2160 4075 c0 -5 5 -17 10 -25 5 -8 10 -10 10 -5 0 6 -5 17 -10 25
-5 8 -10 11 -10 5z"/>
<path d="M2185 4070 c3 -5 8 -10 11 -10 2 0 4 5 4 10 0 6 -5 10 -11 10 -5 0
-7 -4 -4 -10z"/>
<path d="M2633 3995 c0 -8 4 -12 9 -9 5 3 6 10 3 15 -9 13 -12 11 -12 -6z"/>
<path d="M3108 4003 c6 -2 10 -9 7 -13 -3 -5 0 -12 6 -16 8 -4 9 -3 5 4 -4 7
-1 12 6 12 9 0 9 3 -2 10 -8 5 -19 9 -25 9 -5 0 -4 -3 3 -6z"/>
<path d="M2000 3990 c-72 -10 -293 -60 -309 -69 -8 -6 2 -68 14 -89 1 -1 21 5
45 13 125 44 249 60 465 60 182 0 224 -3 320 -24 676 -144 1169 -644 1300
-1321 23 -116 31 -354 16 -477 -40 -328 -170 -627 -381 -877 -30 -36 -60 -63
-67 -61 -7 2 -10 -2 -7 -9 6 -15 -63 -79 -76 -71 -6 4 -10 3 -9 -2 4 -21 -2
-24 -18 -12 -16 12 -17 12 -6 -2 11 -13 10 -19 -6 -33 -11 -10 -25 -15 -32
-10 -7 4 -10 3 -5 -4 7 -11 -47 -55 -58 -47 -3 3 -4 2 -1 -2 7 -9 -33 -35 -44
-28 -6 3 -8 14 -6 25 2 12 0 18 -5 15 -9 -6 -8 -24 3 -42 9 -15 -37 -48 -53
-38 -6 4 -9 1 -8 -5 2 -6 -41 -34 -94 -63 -104 -56 -127 -78 -31 -30 448 222
773 627 892 1109 44 179 55 280 48 471 -9 256 -54 444 -162 669 -233 490 -670
827 -1210 934 -124 25 -402 35 -515 20z m325 -24 c28 -2 66 -10 85 -18 35 -15
35 -15 -35 -11 -38 2 -97 6 -130 10 -33 3 -98 -1 -145 -8 -47 -7 -97 -12 -112
-11 -15 2 -37 -2 -49 -8 -17 -10 -20 -9 -17 2 7 20 50 39 76 33 12 -3 22 -1
22 3 0 5 33 7 73 5 39 -2 67 -1 60 4 -10 7 52 7 172 -1z m158 -20 c-4 -5 6 -6
21 -2 16 4 25 3 22 -2 -3 -5 15 -10 39 -10 25 -1 53 -5 62 -10 10 -5 25 -7 33
-5 9 3 7 -1 -5 -11 -19 -15 -18 -15 13 -6 20 5 30 5 27 -1 -4 -5 3 -9 15 -9
13 0 18 -4 14 -11 -8 -14 -73 -2 -95 17 -9 8 -18 12 -21 9 -11 -11 -143 19
-161 36 -16 17 -16 18 12 16 16 -1 27 -6 24 -11z m-563 -3 c-1 -19 -18 -33
-34 -27 -15 6 -15 7 1 20 20 15 33 18 33 7z m-69 -10 c-11 -5 -11 -7 0 -14 10
-6 7 -9 -11 -9 -17 0 -21 -3 -12 -9 10 -6 1 -11 -27 -18 -23 -6 -38 -7 -35 -2
3 5 0 9 -5 9 -6 0 -11 4 -11 10 0 5 18 13 40 16 22 4 43 11 46 15 3 5 11 9 17
8 8 0 7 -3 -2 -6z m-101 -54 c0 -6 -4 -7 -10 -4 -5 3 -10 11 -10 16 0 6 5 7
10 4 6 -3 10 -11 10 -16z m1044 -13 c6 -1 23 -10 37 -19 15 -10 33 -16 40 -15
8 2 13 -2 12 -8 -1 -7 9 -15 22 -18 57 -14 80 -27 65 -36 -9 -6 -22 -2 -38 11
-14 10 -31 19 -39 19 -8 0 -21 7 -30 16 -9 8 -22 13 -29 10 -19 -7 -85 25 -77
37 4 6 -1 8 -11 4 -10 -4 -15 -3 -11 4 4 5 16 7 27 3 11 -3 26 -7 32 -8z m203
-112 c-3 -3 -12 -4 -19 -1 -8 3 -5 6 6 6 11 1 17 -2 13 -5z m33 -4 c0 -5 -2
-10 -4 -10 -3 0 -8 5 -11 10 -3 6 -1 10 4 10 6 0 11 -4 11 -10z m54 -32 c-5
-7 -1 -9 9 -5 9 3 16 3 16 -1 -1 -4 0 -9 1 -12 7 -19 7 -39 -1 -34 -5 3 -6 10
-3 16 5 7 1 9 -9 5 -10 -4 -16 -2 -14 6 1 7 -6 11 -15 11 -10 -1 -16 2 -13 6
3 5 -3 11 -12 13 -10 2 -5 3 10 1 19 -3 26 0 21 8 -4 7 -3 8 5 4 6 -4 8 -12 5
-18z m102 -73 c28 -26 28 -30 0 -19 -9 3 -13 11 -9 17 4 6 0 8 -11 4 -9 -4
-15 -3 -11 2 3 5 -1 12 -7 14 -10 4 -10 6 -1 6 7 1 24 -10 39 -24z m61 -61 c0
-18 0 -18 -21 5 -17 19 -17 19 1 15 11 -3 20 -12 20 -20z m28 -14 c-3 -4 0
-11 5 -13 6 -3 5 -4 -1 -3 -7 1 -13 10 -15 19 -1 9 2 15 7 11 5 -3 7 -9 4 -14z
m87 -74 c-3 -4 -8 -2 -13 5 -4 8 -12 14 -16 14 -4 0 -17 6 -28 14 -15 9 -16
11 -2 7 9 -3 17 -1 17 4 0 5 10 -1 23 -13 13 -12 21 -26 19 -31z m74 -84 c-9
-8 -26 10 -26 26 1 15 2 15 15 -2 8 -11 13 -21 11 -24z m40 -24 c3 -4 -1 -5
-10 -4 -8 1 -18 5 -22 8 -3 4 1 5 10 4 8 -1 18 -5 22 -8z m14 -29 c0 -5 5 -7
10 -4 6 3 10 1 10 -4 0 -16 -16 -13 -30 4 -9 10 -9 15 -1 15 6 0 11 -5 11 -11z
m91 -106 c13 -16 12 -17 -3 -4 -10 7 -18 15 -18 17 0 8 8 3 21 -13z"/>
<path d="M2578 3913 c6 -2 18 -2 25 0 6 3 1 5 -13 5 -14 0 -19 -2 -12 -5z"/>
<path d="M1788 3893 c7 -3 16 -2 19 1 4 3 -2 6 -13 5 -11 0 -14 -3 -6 -6z"/>
<path d="M2796 3851 c-3 -5 1 -12 10 -15 22 -8 25 -4 9 11 -8 7 -16 9 -19 4z"/>
<path d="M3216 3930 c3 -3 16 -5 29 -5 14 -1 22 2 19 5 -3 3 -16 5 -29 5 -14
1 -22 -2 -19 -5z"/>
<path d="M2035 3824 c-187 -29 -334 -71 -475 -136 -82 -37 -250 -137 -250
-148 0 -3 10 -18 23 -34 l23 -28 69 45 c203 130 419 204 676 229 254 25 547
-31 779 -147 665 -334 982 -1089 749 -1788 -40 -120 -96 -235 -167 -342 -81
-122 -86 -128 -175 -218 -43 -44 -75 -82 -72 -85 6 -6 132 121 179 180 16 21
34 35 39 31 6 -3 7 -1 4 5 -12 18 43 91 65 87 10 -2 16 0 13 6 -4 5 -11 7 -16
4 -15 -10 -11 1 22 57 73 124 139 300 176 468 26 122 26 468 -1 590 -59 275
-171 503 -352 715 -208 243 -530 426 -864 490 -82 16 -381 29 -445 19z m223
-21 c-10 -2 -18 -8 -18 -11 0 -4 -18 -7 -40 -7 -22 0 -40 3 -40 7 0 3 -8 8
-17 10 -10 3 16 5 57 5 41 1 67 -1 58 -4z m-213 -13 c-11 -5 -31 -8 -45 -8
l-25 0 25 8 c14 4 34 8 45 8 l20 1 -20 -9z m279 1 c3 -4 -6 -6 -19 -3 -14 2
-25 6 -25 8 0 8 39 4 44 -5z m56 -1 c0 -5 -7 -7 -15 -4 -8 4 -15 8 -15 10 0 2
7 4 15 4 8 0 15 -4 15 -10z m-440 -26 c-19 -8 -43 -13 -52 -10 -10 2 -18 1
-18 -2 0 -4 -19 -8 -43 -9 l-42 -1 48 13 c26 7 57 11 70 8 14 -3 18 -2 10 4
-9 6 0 9 24 10 l38 1 -35 -14z m535 6 c8 -13 -5 -13 -25 0 -13 8 -13 10 2 10
9 0 20 -4 23 -10z m-680 -41 c16 -8 15 -8 -8 -4 -22 4 -27 3 -21 -7 6 -10 3
-9 -9 1 -9 7 -17 15 -17 17 0 7 35 3 55 -7z m850 1 c3 -6 -1 -7 -9 -4 -18 7
-21 14 -7 14 6 0 13 -4 16 -10z m-911 -6 c22 -9 20 -27 -2 -20 -12 4 -26 -1
-37 -14 -15 -16 -26 -19 -49 -14 -28 6 -29 5 -17 -10 12 -14 12 -16 -4 -10
-14 6 -16 4 -10 -7 6 -11 5 -12 -6 -1 -7 6 -20 12 -28 11 -11 0 -12 -2 -3 -6
22 -9 1 -23 -26 -17 -21 4 -24 3 -12 -5 13 -10 13 -11 0 -12 -8 -1 -19 -1 -23
0 -4 1 -10 -6 -13 -14 -5 -13 -9 -13 -22 -3 -13 11 -14 10 -10 -2 5 -17 -56
-65 -72 -55 -5 3 -22 -2 -37 -12 l-28 -17 25 25 c17 18 29 22 38 16 7 -6 15
-7 19 -3 3 3 1 6 -5 6 -7 0 -12 5 -12 10 0 6 10 8 24 4 14 -3 27 -1 31 6 5 9
1 10 -14 5 -11 -3 -21 -4 -21 -1 0 9 57 36 63 29 6 -5 38 21 34 28 -1 2 0 3 2
2 2 -2 25 8 50 21 59 31 81 38 81 26 0 -6 7 -10 15 -10 8 0 14 4 13 9 -2 5 6
17 17 25 24 18 20 17 39 10z m961 -4 c3 -6 -1 -7 -9 -4 -18 7 -21 14 -7 14 6
0 13 -4 16 -10z m134 -56 c14 -12 -19 -1 -35 12 -18 14 -18 14 6 3 14 -6 27
-13 29 -15z m112 -51 c13 -16 12 -17 -3 -4 -17 13 -22 21 -14 21 2 0 10 -8 17
-17z m44 -22 c-3 -6 3 -14 12 -20 10 -6 14 -10 8 -10 -5 0 -18 6 -28 13 -14
11 -15 15 -5 19 19 8 20 8 13 -2z"/>
<path d="M3064 3818 c10 -6 22 -6 26 -2 5 5 -3 10 -18 11 -22 1 -24 0 -8 -9z"/>
<path d="M3470 3760 c-9 -6 -10 -10 -3 -10 6 0 15 5 18 10 8 12 4 12 -15 0z"/>
<path d="M3173 3725 c0 -8 4 -12 9 -9 5 3 6 10 3 15 -9 13 -12 11 -12 -6z"/>
<path d="M3203 3715 c0 -8 4 -12 9 -9 5 3 6 10 3 15 -9 13 -12 11 -12 -6z"/>
<path d="M3230 3726 c0 -2 7 -7 16 -10 8 -3 12 -2 9 4 -6 10 -25 14 -25 6z"/>
<path d="M1461 3691 c-10 -7 -7 -9 12 -8 14 1 23 5 20 10 -6 9 -15 9 -32 -2z"/>
<path d="M3286 3687 c3 -10 9 -15 12 -12 3 3 0 11 -7 18 -10 9 -11 8 -5 -6z"/>
<path d="M2940 3686 c0 -2 7 -7 16 -10 8 -3 12 -2 9 4 -6 10 -25 14 -25 6z"/>
<path d="M2040 3670 c-364 -51 -671 -218 -890 -485 l-58 -71 30 -21 30 -21 58
71 c59 73 82 96 180 178 155 130 363 228 582 276 117 25 399 25 518 0 425 -91
768 -361 949 -747 137 -293 158 -663 54 -970 -14 -41 -29 -82 -34 -91 -4 -9
-5 -19 -2 -23 15 -15 70 156 97 303 23 122 21 352 -4 484 -37 194 -102 353
-207 511 -206 310 -534 525 -908 596 -81 15 -315 21 -395 10z m141 -28 c-7 -2
-18 1 -23 6 -8 8 -4 9 13 5 13 -4 18 -8 10 -11z m-134 2 c-3 -3 -12 -4 -19 -1
-8 3 -5 6 6 6 11 1 17 -2 13 -5z m-147 -34 c-8 -5 -26 -9 -40 -9 -23 1 -23 2
5 9 43 11 52 11 35 0z m-80 -14 c0 -2 -7 -7 -16 -10 -8 -3 -12 -2 -9 4 6 10
25 14 25 6z m-76 -34 c-23 -9 -49 -23 -58 -31 -13 -11 -19 -12 -29 -2 -9 10
-8 11 7 5 15 -6 17 -4 11 7 -4 8 -5 11 -1 8 4 -4 24 2 44 12 20 10 44 18 52
18 8 0 -4 -8 -26 -17z m-94 -46 c0 -9 -30 -14 -35 -6 -4 6 3 10 14 10 12 0 21
-2 21 -4z m-62 -30 c-16 -5 -28 -13 -28 -18 0 -4 -6 -5 -13 -2 -8 3 -20 -2
-27 -11 -7 -8 -17 -15 -23 -15 -17 0 38 38 66 45 15 4 27 11 27 17 0 5 6 6 13
1 8 -5 3 -10 -15 -17z m-128 -76 c0 -5 -2 -10 -4 -10 -3 0 -8 5 -11 10 -3 6
-1 10 4 10 6 0 11 -4 11 -10z m-20 -14 c0 -11 -19 -15 -25 -6 -3 5 1 10 9 10
9 0 16 -2 16 -4z m-44 -15 c-4 -5 0 -11 6 -14 7 -2 1 -8 -14 -12 -16 -4 -25
-12 -21 -18 3 -5 2 -8 -3 -5 -11 7 -35 -17 -26 -26 3 -4 -2 -4 -13 0 -15 6
-17 4 -11 -12 6 -16 5 -17 -6 -6 -11 11 -8 17 15 34 15 11 24 25 21 30 -4 6
-2 8 3 5 6 -4 18 2 28 13 19 21 30 27 21 11z m-115 -110 c-8 -5 -10 -14 -5
-22 6 -11 4 -11 -10 0 -13 11 -14 16 -4 22 7 5 18 9 23 9 6 0 4 -4 -4 -9z
m-30 -49 c-5 -10 -20 -18 -33 -19 -17 -2 -19 0 -8 7 8 5 18 6 22 4 7 -5 12 11
9 29 -1 5 3 6 9 2 6 -4 7 -12 1 -23z m-51 -40 c0 -5 -9 -17 -19 -26 -20 -18
-24 -5 -8 22 9 14 27 16 27 4z m-44 -54 c5 -7 3 -8 -6 -3 -10 6 -12 4 -6 -11
5 -14 4 -16 -5 -7 -6 6 -8 16 -5 22 9 14 13 14 22 -1z"/>
<path d="M2635 3661 c-3 -5 -2 -12 3 -15 5 -3 9 1 9 9 0 17 -3 19 -12 6z"/>
<path d="M3585 3659 c-4 -6 -5 -12 -2 -15 2 -3 7 2 10 11 7 17 1 20 -8 4z"/>
<path d="M1750 3650 c-9 -6 -10 -10 -3 -10 6 0 15 5 18 10 8 12 4 12 -15 0z"/>
<path d="M1371 3634 c0 -11 3 -14 6 -6 3 7 2 16 -1 19 -3 4 -6 -2 -5 -13z"/>
<path d="M3310 3640 c-8 -5 -10 -10 -5 -10 6 0 17 5 25 10 8 5 11 10 5 10 -5
0 -17 -5 -25 -10z"/>
<path d="M3047 3617 c-6 -15 28 -17 40 -1 5 5 4 6 -1 2 -5 -4 -15 -3 -21 2 -9
7 -14 6 -18 -3z"/>
<path d="M3606 3608 c3 -5 10 -6 15 -3 13 9 11 12 -6 12 -8 0 -12 -4 -9 -9z"/>
<path d="M3655 3610 c3 -5 8 -10 11 -10 2 0 4 5 4 10 0 6 -5 10 -11 10 -5 0
-7 -4 -4 -10z"/>
<path d="M1292 3605 c4 -4 3 -14 -3 -21 -7 -8 -7 -14 1 -19 5 -3 10 -5 11 -3
6 27 5 39 -4 45 -7 3 -9 3 -5 -2z"/>
<path d="M2775 3590 c3 -5 8 -10 11 -10 2 0 4 5 4 10 0 6 -5 10 -11 10 -5 0
-7 -4 -4 -10z"/>
<path d="M3125 3581 c-7 -12 12 -24 25 -16 11 7 4 25 -10 25 -5 0 -11 -4 -15
-9z"/>
<path d="M3663 3578 c-15 -20 -25 -38 -20 -38 3 0 12 11 21 25 17 26 16 35 -1
13z"/>
<path d="M3404 3543 c15 -18 22 -20 33 -12 7 6 13 14 13 17 0 3 -5 1 -12 -6
-9 -9 -16 -8 -32 6 -21 17 -21 17 -2 -5z"/>
<path d="M2917 3536 c-4 -10 -1 -13 8 -9 8 3 12 9 9 14 -7 12 -11 11 -17 -5z"/>
<path d="M1991 3524 c-214 -36 -439 -145 -614 -298 -71 -62 -174 -187 -229
-278 -38 -64 -122 -248 -116 -253 10 -8 48 -25 56 -25 5 0 13 15 16 33 9 45
93 209 151 292 107 153 296 311 466 389 282 130 603 150 882 55 184 -62 323
-145 451 -268 185 -178 304 -397 352 -646 18 -95 24 -299 12 -415 -7 -64 -7
-63 8 15 18 98 13 316 -10 423 -52 240 -169 456 -341 627 -186 188 -410 304
-671 349 -108 19 -298 19 -413 0z m-381 -158 c0 -2 -8 -10 -17 -17 -16 -13
-17 -12 -4 4 13 16 21 21 21 13z m-103 -75 c0 -11 -5 -18 -9 -15 -4 3 -5 11
-1 19 7 21 12 19 10 -4z m-65 -48 c-6 -2 -9 -10 -5 -16 3 -7 3 -9 -2 -5 -4 4
-17 3 -29 -3 -17 -8 -16 -6 4 10 14 11 30 20 35 20 6 0 4 -3 -3 -6z m-66 -60
c-3 -17 -26 -32 -26 -16 0 8 20 33 26 33 1 0 1 -8 0 -17z m-51 -53 c3 -5 1
-10 -4 -10 -6 0 -11 5 -11 10 0 6 2 10 4 10 3 0 8 -4 11 -10z m-25 -20 c0 -5
-5 -10 -11 -10 -5 0 -7 5 -4 10 3 6 8 10 11 10 2 0 4 -4 4 -10z m-37 -65 c-3
-9 -8 -14 -10 -11 -3 3 -2 9 2 15 9 16 15 13 8 -4z m-55 -70 c-6 -14 -13 -23
-15 -21 -3 2 0 13 6 24 6 11 7 23 3 27 -4 5 -2 5 5 1 9 -5 10 -13 1 -31z m-28
-33 c0 -5 -7 -17 -15 -28 -14 -18 -14 -17 -4 9 12 27 19 34 19 19z m-33 -77
c-7 -13 -14 -20 -15 -14 -2 5 2 16 8 24 18 21 20 18 7 -10z m-30 -47 c-3 -8
-6 -5 -6 6 -1 11 2 17 5 13 3 -3 4 -12 1 -19z"/>
<path d="M1284 3500 c0 -16 2 -29 5 -28 3 0 8 -1 11 -2 19 -7 39 -7 34 1 -3 5
-9 7 -14 4 -11 -7 -33 22 -26 34 4 5 3 12 -2 15 -5 3 -8 -8 -8 -24z"/>
<path d="M3742 3470 c0 -14 2 -19 5 -12 2 6 2 18 0 25 -3 6 -5 1 -5 -13z"/>
<path d="M2090 3414 c-14 -2 -56 -9 -95 -15 -83 -14 -214 -58 -305 -104 -191
-96 -382 -290 -484 -493 -59 -117 -116 -342 -116 -459 0 -29 3 -33 28 -33 l28
0 11 108 c27 245 124 456 291 634 364 386 951 447 1395 146 121 -82 327 -317
312 -356 -2 -7 -1 -11 4 -8 21 13 130 -271 132 -343 0 -20 5 -45 10 -56 13
-30 1 78 -17 145 -114 421 -434 724 -859 816 -69 15 -286 27 -335 18z m-690
-378 c0 -2 -8 -10 -17 -17 -16 -13 -17 -12 -4 4 13 16 21 21 21 13z"/>
<path d="M2550 3410 c-9 -6 -10 -10 -3 -10 6 0 15 5 18 10 8 12 4 12 -15 0z"/>
<path d="M3320 3410 c0 -5 5 -10 11 -10 5 0 7 5 4 10 -3 6 -8 10 -11 10 -2 0
-4 -4 -4 -10z"/>
<path d="M2897 3369 c7 -7 15 -10 18 -7 3 3 -2 9 -12 12 -14 6 -15 5 -6 -5z"/>
<path d="M3816 3368 c3 -5 10 -6 15 -3 13 9 11 12 -6 12 -8 0 -12 -4 -9 -9z"/>
<path d="M2960 3366 c0 -2 8 -10 18 -17 15 -13 16 -12 3 4 -13 16 -21 21 -21
13z"/>
<path d="M3375 3360 c3 -5 8 -10 11 -10 2 0 4 5 4 10 0 6 -5 10 -11 10 -5 0
-7 -4 -4 -10z"/>
<path d="M3564 3359 c-8 -14 14 -19 25 -6 8 10 7 14 -5 14 -8 0 -17 -4 -20 -8z"/>
<path d="M3352 3346 c7 -8 15 -12 17 -11 5 6 -10 25 -20 25 -5 0 -4 -6 3 -14z"/>
<path d="M1226 3333 c-6 -14 -5 -15 5 -6 7 7 10 15 7 18 -3 3 -9 -2 -12 -12z"/>
<path d="M1635 3310 c-3 -6 1 -7 9 -4 18 7 21 14 7 14 -6 0 -13 -4 -16 -10z"/>
<path d="M2066 3300 c-221 -35 -399 -124 -558 -278 -258 -250 -363 -620 -273
-961 16 -63 15 -62 44 -54 19 5 21 10 16 32 -38 147 -48 326 -25 449 53 296
250 561 517 696 406 205 907 98 1184 -254 35 -45 67 -86 71 -93 4 -6 10 -8 15
-4 4 5 3 11 -3 15 -5 4 -19 22 -30 40 -11 17 -49 62 -84 99 -195 202 -429 308
-700 318 -63 2 -142 0 -174 -5z"/>
<path d="M2805 3300 c-7 -12 19 -24 37 -17 7 3 2 6 -12 6 -20 1 -22 3 -10 11
9 6 10 10 3 10 -6 0 -15 -5 -18 -10z"/>
<path d="M3251 3278 c5 -10 11 -18 12 -18 2 0 3 8 3 18 0 10 -6 19 -13 19 -8
0 -9 -6 -2 -19z"/>
<path d="M3456 3288 c3 -5 10 -6 15 -3 13 9 11 12 -6 12 -8 0 -12 -4 -9 -9z"/>
<path d="M3224 3270 c0 -10 2 -17 5 -15 2 3 13 -3 24 -12 17 -15 16 -12 -3 15
-13 17 -24 32 -25 32 0 0 -1 -9 -1 -20z"/>
<path d="M1154 3258 l-19 -23 23 19 c21 18 27 26 19 26 -2 0 -12 -10 -23 -22z"/>
<path d="M2885 3269 c-8 -12 0 -22 20 -25 8 -1 13 2 9 7 -3 5 -10 6 -16 3 -7
-5 -9 -1 -5 9 7 19 2 23 -8 6z"/>
<path d="M2831 3267 c2 -1 13 -9 24 -17 19 -14 19 -14 6 3 -7 9 -18 17 -24 17
-6 0 -8 -1 -6 -3z"/>
<path d="M3285 3261 c-3 -5 -2 -12 3 -15 5 -3 9 1 9 9 0 17 -3 19 -12 6z"/>
<path d="M3466 3261 c-4 -5 -2 -20 3 -33 9 -21 9 -20 8 9 -2 36 -3 38 -11 24z"/>
<path d="M2702 3241 c-11 -7 -11 -9 0 -14 9 -3 15 1 15 9 0 8 -1 14 -1 14 -1
0 -7 -4 -14 -9z"/>
<path d="M3696 3237 c3 -10 9 -15 12 -12 3 3 0 11 -7 18 -10 9 -11 8 -5 -6z"/>
<path d="M1123 3233 c4 -3 1 -13 -6 -22 -11 -14 -10 -14 5 -2 16 12 16 31 1
31 -4 0 -3 -3 0 -7z"/>
<path d="M2900 3219 c0 -5 5 -7 10 -4 6 3 10 8 10 11 0 2 -4 4 -10 4 -5 0 -10
-5 -10 -11z"/>
<path d="M2925 3210 c-3 -5 -1 -11 5 -15 6 -4 8 -10 5 -15 -3 -5 0 -12 6 -16
8 -4 9 -3 5 4 -4 7 -1 12 6 12 10 0 10 2 -1 9 -11 7 -10 10 5 13 17 3 17 4 -3
10 -13 3 -25 2 -28 -2z"/>
<path d="M2085 3203 c-382 -61 -678 -336 -761 -704 -20 -90 -23 -279 -4 -364
20 -96 67 -215 113 -287 38 -61 44 -65 60 -53 18 13 17 17 -22 80 -137 228
-160 523 -61 775 81 205 267 393 475 479 109 46 201 63 335 63 228 -1 440 -86
598 -239 46 -46 72 -58 72 -36 0 4 -3 3 -6 0 -4 -4 -19 6 -33 22 -53 57 -144
126 -222 166 -44 23 -77 43 -75 46 2 2 -5 5 -17 5 -12 1 -56 11 -97 23 -74 22
-284 36 -355 24z"/>
<path d="M3310 3191 c0 -6 4 -13 10 -16 6 -3 7 1 4 9 -7 18 -14 21 -14 7z"/>
<path d="M2758 3183 c7 -3 16 -2 19 1 4 3 -2 6 -13 5 -11 0 -14 -3 -6 -6z"/>
<path d="M3490 3170 c6 -11 13 -20 16 -20 2 0 0 9 -6 20 -6 11 -13 20 -16 20
-2 0 0 -9 6 -20z"/>
<path d="M3026 3161 c-4 -5 -2 -12 3 -15 5 -4 12 -2 15 3 4 5 2 12 -3 15 -5 4
-12 2 -15 -3z"/>
<path d="M2966 3147 c3 -10 9 -15 12 -12 3 3 0 11 -7 18 -10 9 -11 8 -5 -6z"/>
<path d="M3169 3138 c13 -17 41 -14 41 4 0 7 -5 6 -13 -1 -10 -8 -17 -7 -27 2
-12 10 -12 9 -1 -5z"/>
<path d="M3726 3128 c3 -5 10 -6 15 -3 13 9 11 12 -6 12 -8 0 -12 -4 -9 -9z"/>
<path d="M1043 3115 c0 -8 4 -12 9 -9 5 3 6 10 3 15 -9 13 -12 11 -12 -6z"/>
<path d="M2880 3120 c-9 -6 -10 -10 -3 -10 6 0 15 5 18 10 8 12 4 12 -15 0z"/>
<path d="M1216 3108 c3 -5 10 -6 15 -3 13 9 11 12 -6 12 -8 0 -12 -4 -9 -9z"/>
<path d="M1539 3103 c-13 -16 -12 -17 4 -4 9 7 17 15 17 17 0 8 -8 3 -21 -13z"/>
<path d="M2015 3100 c-171 -44 -331 -146 -439 -282 -148 -185 -207 -397 -172
-624 28 -187 102 -331 239 -466 78 -76 80 -78 94 -58 8 12 13 22 12 24 -134
88 -253 270 -300 456 -31 124 -24 299 18 422 42 121 103 220 192 309 87 87
183 147 292 183 185 62 331 59 557 -9 12 -4 22 -5 22 -2 0 4 -37 18 -82 33
-116 37 -315 44 -433 14z"/>
<path d="M2720 3113 c8 -3 22 -11 30 -17 13 -10 13 -9 1 7 -7 9 -21 17 -30 16
-13 0 -14 -1 -1 -6z"/>
<path d="M3224 3102 c0 -10 6 -19 13 -19 8 0 9 6 2 19 -5 10 -11 18 -12 18 -2
0 -3 -8 -3 -18z"/>
<path d="M2915 3100 c12 -19 -6 -32 -19 -14 -10 13 -15 14 -21 4 -5 -8 -4 -11
2 -7 6 4 14 0 17 -9 5 -12 10 -14 20 -5 7 6 16 7 21 3 4 -4 2 3 -4 16 -6 12
-14 22 -17 22 -3 0 -2 -4 1 -10z"/>
<path d="M1050 3090 c-9 -6 -10 -10 -3 -10 6 0 15 5 18 10 8 12 4 12 -15 0z"/>
<path d="M3790 3080 c6 -11 13 -20 16 -20 2 0 0 9 -6 20 -6 11 -13 20 -16 20
-2 0 0 -9 6 -20z"/>
<path d="M2783 3083 c4 -3 -1 -16 -10 -27 -18 -21 -18 -21 4 -2 20 16 23 36 6
36 -4 0 -3 -3 0 -7z"/>
<path d="M3077 3075 c-4 -8 -1 -18 6 -22 16 -10 41 -14 32 -5 -4 4 -12 7 -18
7 -7 0 -11 8 -9 18 4 21 -4 22 -11 2z"/>
<path d="M3981 3074 c0 -11 3 -14 6 -6 3 7 2 16 -1 19 -3 4 -6 -2 -5 -13z"/>
<path d="M1173 3055 c0 -8 4 -12 9 -9 5 3 6 10 3 15 -9 13 -12 11 -12 -6z"/>
<path d="M2799 3053 c-12 -16 -12 -17 2 -6 9 7 20 9 24 5 5 -4 5 -1 1 6 -9 16
-11 15 -27 -5z"/>
<path d="M3235 3059 c-4 -6 -4 -13 -1 -16 3 -4 6 -1 6 7 0 10 4 10 18 -1 15
-13 16 -12 3 4 -16 20 -18 20 -26 6z"/>
<path d="M3385 3061 c-3 -5 -2 -12 3 -15 5 -3 9 1 9 9 0 17 -3 19 -12 6z"/>
<path d="M3606 3062 c-3 -5 1 -9 9 -9 8 0 12 4 9 9 -3 4 -7 8 -9 8 -2 0 -6 -4
-9 -8z"/>
<path d="M2554 3048 c-4 -6 1 -17 11 -25 28 -20 43 -15 18 6 -12 10 -19 21
-16 25 4 3 4 6 0 6 -3 0 -9 -5 -13 -12z"/>
<path d="M2926 3051 c-3 -4 4 -17 17 -27 l22 -19 -20 24 c-18 22 -18 24 -2 18
11 -4 16 -3 12 3 -8 12 -22 13 -29 1z"/>
<path d="M2151 3039 c-180 -16 -313 -75 -441 -196 -157 -147 -233 -321 -233
-533 -1 -188 66 -357 195 -495 100 -108 287 -219 309 -184 12 20 11 29 -5 29
-7 0 -49 18 -93 40 -391 196 -505 725 -230 1065 135 166 324 257 554 266 29 2
50 6 47 11 -3 4 -6 7 -7 7 -1 -1 -44 -6 -96 -10z"/>
<path d="M2295 3030 c-3 -5 3 -10 15 -10 12 0 18 5 15 10 -3 6 -10 10 -15 10
-5 0 -12 -4 -15 -10z"/>
<path d="M2826 3021 c18 -19 25 -21 40 -11 18 11 18 11 0 6 -11 -4 -28 1 -40
11 -21 17 -21 17 0 -6z"/>
<path d="M2988 3023 c-30 -35 -33 -46 -8 -33 12 6 19 14 16 17 -3 4 -1 12 5
20 6 7 9 13 7 13 -3 0 -12 -8 -20 -17z"/>
<path d="M3269 3022 c-13 -15 -12 -16 3 -4 13 10 17 10 21 0 4 -9 6 -9 6 -1 2
20 -16 24 -30 5z"/>
<path d="M1136 3018 c3 -5 10 -6 15 -3 13 9 11 12 -6 12 -8 0 -12 -4 -9 -9z"/>
<path d="M3970 3021 c0 -6 4 -13 10 -16 6 -3 7 1 4 9 -7 18 -14 21 -14 7z"/>
<path d="M3142 2990 c-15 -25 4 -38 24 -18 13 12 13 17 2 26 -11 8 -17 6 -26
-8z m23 -10 c-3 -5 -11 -10 -16 -10 -6 0 -7 5 -4 10 3 6 11 10 16 10 6 0 7 -4
4 -10z"/>
<path d="M3636 2993 c-6 -14 -5 -15 5 -6 7 7 10 15 7 18 -3 3 -9 -2 -12 -12z"/>
<path d="M3476 2992 c-3 -5 1 -9 9 -9 8 0 12 4 9 9 -3 4 -7 8 -9 8 -2 0 -6 -4
-9 -8z"/>
<path d="M3032 2977 c-8 -10 -6 -13 7 -13 11 0 17 6 14 13 -3 7 -6 13 -8 13
-1 0 -7 -6 -13 -13z"/>
<path d="M2028 2944 c-32 -7 -80 -25 -108 -39 -28 -14 -56 -23 -62 -19 -7 4
-8 3 -4 -4 10 -17 -35 -41 -69 -38 -25 3 -27 2 -13 -7 15 -10 9 -19 -47 -78
-70 -75 -134 -193 -160 -294 -22 -87 -19 -234 6 -325 74 -268 300 -456 582
-483 41 -4 47 -2 47 14 0 15 -7 19 -32 19 -61 0 -169 29 -241 64 -169 82 -295
235 -341 413 -25 96 -21 245 9 340 35 111 139 274 165 258 6 -4 7 -11 4 -17
-4 -7 -2 -8 5 -4 8 6 9 12 2 20 -20 24 94 110 199 149 25 10 74 24 110 31 36
8 52 14 35 14 -16 0 -56 -6 -87 -14z"/>
<path d="M2098 2923 c12 -2 32 -2 45 0 12 2 2 4 -23 4 -25 0 -35 -2 -22 -4z"/>
<path d="M3315 2920 c3 -5 8 -10 11 -10 2 0 4 5 4 10 0 6 -5 10 -11 10 -5 0
-7 -4 -4 -10z"/>
<path d="M3366 2912 c-3 -5 1 -9 9 -9 8 0 12 4 9 9 -3 4 -7 8 -9 8 -2 0 -6 -4
-9 -8z"/>
<path d="M3344 2880 c0 -13 4 -16 10 -10 7 7 7 13 0 20 -6 6 -10 3 -10 -10z"/>
<path d="M1049 2863 c-13 -16 -12 -17 4 -4 9 7 17 15 17 17 0 8 -8 3 -21 -13z"/>
<path d="M3381 2853 c7 -12 15 -20 18 -17 3 2 -3 12 -13 22 -17 16 -18 16 -5
-5z"/>
<path d="M3235 2850 c3 -5 8 -10 11 -10 2 0 4 5 4 10 0 6 -5 10 -11 10 -5 0
-7 -4 -4 -10z"/>
<path d="M3687 2837 c-3 -8 1 -14 8 -14 7 0 11 6 8 14 -3 7 -6 13 -8 13 -2 0
-5 -6 -8 -13z"/>
<path d="M1903 2825 c0 -8 4 -12 9 -9 5 3 6 10 3 15 -9 13 -12 11 -12 -6z"/>
<path d="M4056 2817 c3 -10 9 -15 12 -12 3 3 0 11 -7 18 -10 9 -11 8 -5 -6z"/>
<path d="M3071 2783 c13 -21 26 -40 29 -43 4 -3 10 -12 13 -20 5 -13 6 -13 6
1 1 14 -55 99 -66 99 -2 0 6 -17 18 -37z"/>
<path d="M1850 2790 c-8 -5 -11 -12 -7 -16 4 -4 15 0 24 9 18 18 8 23 -17 7z"/>
<path d="M3170 2781 c0 -6 4 -13 10 -16 6 -3 7 1 4 9 -7 18 -14 21 -14 7z"/>
<path d="M1783 2730 c-31 -32 -40 -37 -53 -27 -13 10 -13 10 -3 -3 9 -12 3
-28 -28 -79 -65 -108 -84 -178 -83 -311 0 -93 5 -128 23 -180 99 -283 376
-450 666 -400 64 11 75 16 75 32 0 15 -4 18 -17 13 -10 -3 -40 -11 -67 -16
-281 -53 -569 130 -651 415 -25 85 -17 258 15 341 29 75 63 131 116 187 22 23
43 49 48 56 14 24 -4 11 -41 -28z"/>
<path d="M3260 2761 c0 -6 4 -13 10 -16 6 -3 7 1 4 9 -7 18 -14 21 -14 7z"/>
<path d="M3300 2750 c-8 -5 -12 -12 -9 -15 4 -3 12 1 19 10 14 17 11 19 -10 5z"/>
<path d="M3435 2740 c-3 -5 -1 -10 4 -10 6 0 11 5 11 10 0 6 -2 10 -4 10 -3 0
-8 -4 -11 -10z"/>
<path d="M3411 2724 c0 -11 3 -14 6 -6 3 7 2 16 -1 19 -3 4 -6 -2 -5 -13z"/>
<path d="M1795 2699 c-11 -16 -1 -19 13 -3 7 8 8 14 3 14 -5 0 -13 -5 -16 -11z"/>
<path d="M1810 2675 c-13 -14 -18 -25 -12 -25 7 0 12 5 12 11 0 6 6 9 13 6 8
-3 13 3 13 14 0 11 -1 19 -1 19 -1 0 -12 -11 -25 -25z"/>
<path d="M3606 2635 c-9 -26 -7 -32 5 -12 6 10 9 21 6 23 -2 3 -7 -2 -11 -11z"/>
<path d="M1766 2624 c-3 -8 -11 -12 -17 -8 -7 4 -9 3 -6 -4 4 -5 -4 -32 -18
-59 -74 -149 -74 -327 1 -482 36 -75 160 -197 236 -234 119 -57 242 -71 367
-42 64 15 181 71 181 86 0 20 -23 18 -57 -6 -99 -67 -284 -88 -414 -46 -273
87 -422 386 -329 657 20 57 57 126 72 132 11 5 10 22 -1 22 -5 0 -12 -7 -15
-16z"/>
<path d="M1744 2473 c-3 -16 -10 -44 -15 -63 -13 -53 -11 -149 6 -213 23 -89
62 -156 129 -223 185 -184 467 -189 661 -12 43 39 63 64 56 71 -6 6 -29 -10
-65 -46 -263 -264 -717 -114 -778 257 -11 67 -9 93 17 229 3 15 3 27 0 27 -2
0 -7 -12 -11 -27z"/>
<path d="M4132 2400 c0 -14 2 -19 5 -12 2 6 2 18 0 25 -3 6 -5 1 -5 -13z"/>
<path d="M1775 2266 c5 -102 43 -184 122 -261 170 -166 428 -166 602 0 32 31
69 79 84 109 31 63 32 66 15 66 -7 0 -21 -21 -32 -46 -28 -69 -116 -158 -194
-196 -63 -31 -73 -33 -177 -33 -99 0 -116 3 -167 27 -77 36 -121 70 -164 130
-45 61 -74 134 -84 218 l-9 65 4 -79z"/>
<path d="M1055 2279 c-4 -6 -5 -12 -2 -15 2 -3 7 2 10 11 7 17 1 20 -8 4z"/>
<path d="M1825 2169 c-4 -6 -5 -12 -2 -15 2 -3 7 2 10 11 7 17 1 20 -8 4z"/>
<path d="M2517 2165 c3 -8 9 -12 14 -9 12 7 11 11 -5 17 -10 4 -13 1 -9 -8z"/>
<path d="M2492 2099 c-7 -12 -11 -24 -8 -27 3 -3 6 0 6 7 0 7 4 10 8 7 4 -2 9
4 9 15 2 24 1 24 -15 -2z"/>
<path d="M2607 2089 c-19 -22 -9 -25 18 -6 10 8 14 17 8 20 -5 3 -17 -3 -26
-14z"/>
<path d="M3381 2084 c0 -11 3 -14 6 -6 3 7 2 16 -1 19 -3 4 -6 -2 -5 -13z"/>
<path d="M1891 2081 c-9 -6 -10 -11 -2 -15 6 -4 11 -2 11 4 0 6 5 8 12 4 7 -4
8 -3 4 4 -8 14 -7 14 -25 3z"/>
<path d="M2620 2019 c0 -5 -4 -8 -9 -4 -5 3 -13 0 -17 -6 -5 -8 -3 -9 6 -4 9
6 12 4 8 -7 -4 -8 -1 -15 5 -15 7 0 13 11 13 24 1 13 0 23 -2 23 -2 0 -4 -5
-4 -11z"/>
<path d="M3736 2018 c3 -5 10 -6 15 -3 13 9 11 12 -6 12 -8 0 -12 -4 -9 -9z"/>
<path d="M2366 1991 c-4 -5 3 -7 14 -4 23 6 26 13 6 13 -8 0 -17 -4 -20 -9z"/>
<path d="M1244 1972 c-8 -5 -7 -11 4 -22 14 -13 15 -12 9 4 -6 14 -4 17 8 12
9 -3 13 -2 10 4 -7 12 -16 12 -31 2z"/>
<path d="M3571 1964 c0 -11 3 -14 6 -6 3 7 2 16 -1 19 -3 4 -6 -2 -5 -13z"/>
<path d="M3590 1970 c0 -5 5 -10 11 -10 5 0 7 5 4 10 -3 6 -8 10 -11 10 -2 0
-4 -4 -4 -10z"/>
<path d="M2540 1881 c0 -6 4 -13 10 -16 6 -3 7 1 4 9 -7 18 -14 21 -14 7z"/>
<path d="M1366 1872 c-2 -4 4 -8 14 -8 10 0 16 4 14 8 -3 4 -9 8 -14 8 -5 0
-11 -4 -14 -8z"/>
<path d="M2399 1783 c-13 -16 -12 -17 3 -5 9 8 23 10 29 6 8 -4 9 -3 5 4 -10
17 -21 15 -37 -5z"/>
<path d="M3434 1729 c-6 -19 -16 -33 -23 -31 -7 1 -10 -2 -6 -7 3 -6 -1 -24
-10 -41 -8 -16 -12 -30 -7 -30 12 0 65 117 60 132 -2 6 -9 -4 -14 -23z"/>
<path d="M1526 1717 c3 -10 9 -15 12 -12 3 3 0 11 -7 18 -10 9 -11 8 -5 -6z"/>
<path d="M1614 1705 c-3 -8 -4 -20 -2 -27 3 -7 7 -1 10 15 6 29 1 36 -8 12z"/>
<path d="M2365 1710 c-3 -6 1 -7 9 -4 18 7 21 14 7 14 -6 0 -13 -4 -16 -10z"/>
<path d="M3529 1693 c-13 -16 -12 -17 4 -4 9 7 17 15 17 17 0 8 -8 3 -21 -13z"/>
<path d="M3375 1689 c-4 -6 -5 -12 -2 -15 2 -3 7 2 10 11 7 17 1 20 -8 4z"/>
<path d="M3685 1670 c2 -36 10 -47 19 -25 4 10 2 14 -5 9 -7 -4 -9 0 -5 14 4
11 3 23 -2 26 -5 3 -8 -8 -7 -24z"/>
<path d="M1763 1645 c0 -7 6 -11 14 -8 7 3 13 6 13 8 0 2 -6 5 -13 8 -8 3 -14
-1 -14 -8z"/>
<path d="M1706 1632 c-3 -5 1 -9 9 -9 8 0 12 4 9 9 -3 4 -7 8 -9 8 -2 0 -6 -4
-9 -8z"/>
<path d="M2047 1629 c7 -7 15 -10 18 -7 3 3 -2 9 -12 12 -14 6 -15 5 -6 -5z"/>
<path d="M3604 1528 c22 -33 22 -33 22 -8 0 10 -2 17 -5 15 -2 -3 -11 1 -19 8
-11 9 -11 4 2 -15z"/>
<path d="M3454 1529 c-3 -6 -2 -15 3 -20 5 -5 9 -1 9 11 0 23 -2 24 -12 9z"/>
<path d="M3410 1440 c-6 -11 -8 -20 -6 -20 3 0 10 9 16 20 6 11 8 20 6 20 -3
0 -10 -9 -16 -20z"/>
<path d="M3765 1449 c-4 -6 -5 -12 -2 -15 2 -3 7 2 10 11 7 17 1 20 -8 4z"/>
<path d="M3775 1424 c-9 -15 -12 -23 -6 -20 11 7 35 46 28 46 -3 0 -12 -12
-22 -26z"/>
<path d="M3367 1423 c3 -7 6 -13 8 -13 2 0 5 6 8 13 3 8 -1 14 -8 14 -7 0 -11
-6 -8 -14z"/>
<path d="M3669 1415 c-1 -3 -2 -8 -3 -12 -1 -5 -5 -15 -10 -23 -7 -12 -6 -13
4 -3 13 12 23 43 14 43 -2 0 -5 -2 -5 -5z"/>
<path d="M3891 1394 c0 -11 3 -14 6 -6 3 7 2 16 -1 19 -3 4 -6 -2 -5 -13z"/>
<path d="M3545 1370 c-4 -6 -12 -7 -18 -4 -7 4 -8 3 -4 -1 13 -15 34 -14 34 1
0 17 -4 18 -12 4z"/>
<path d="M3830 1311 c0 -7 -5 -9 -12 -5 -7 5 -8 3 -3 -5 5 -9 10 -10 18 -2 6
6 8 14 4 18 -4 3 -7 1 -7 -6z"/>
<path d="M3689 1283 c-13 -16 -12 -17 4 -4 16 13 21 21 13 21 -2 0 -10 -8 -17
-17z"/>
<path d="M3579 1273 c-13 -16 -12 -17 4 -4 16 13 21 21 13 21 -2 0 -10 -8 -17
-17z"/>
<path d="M3560 1246 c0 -2 8 -10 18 -17 15 -13 16 -12 3 4 -13 16 -21 21 -21
13z"/>
<path d="M3603 1207 c-4 -6 -1 -7 7 -2 10 6 12 4 6 -10 -5 -15 -4 -16 9 -5 8
7 15 16 15 20 0 10 -30 8 -37 -3z"/>
<path d="M3394 1189 c-3 -6 -1 -16 5 -22 9 -9 10 -7 5 7 -6 16 -4 18 10 13 10
-4 15 -3 11 3 -8 13 -22 13 -31 -1z"/>
<path d="M3630 1175 c-7 -9 -11 -17 -9 -20 3 -2 10 5 17 15 14 24 10 26 -8 5z"/>
<path d="M3729 1188 c-7 -23 -4 -35 7 -35 9 0 11 4 4 12 -5 7 -7 15 -3 18 3 4
3 7 0 7 -4 0 -7 -1 -8 -2z"/>
<path d="M3505 1171 c-3 -5 -2 -12 3 -15 5 -3 9 1 9 9 0 17 -3 19 -12 6z"/>
<path d="M3366 1157 c3 -10 9 -15 12 -12 3 3 0 11 -7 18 -10 9 -11 8 -5 -6z"/>
<path d="M3287 1129 c7 -7 15 -10 18 -7 3 3 -2 9 -12 12 -14 6 -15 5 -6 -5z"/>
<path d="M3342 1127 c10 -8 14 -18 10 -22 -4 -5 -1 -5 6 -1 17 10 15 14 -10
26 -21 10 -21 10 -6 -3z"/>
<path d="M3215 1041 c-3 -5 -2 -12 3 -15 5 -3 9 1 9 9 0 17 -3 19 -12 6z"/>
<path d="M3447 1031 c-4 -17 -3 -21 5 -13 5 5 8 16 6 23 -3 8 -7 3 -11 -10z"/>
<path d="M3250 1026 c7 -7 13 -7 20 0 6 6 3 10 -10 10 -13 0 -16 -4 -10 -10z"/>
<path d="M3465 1009 c-4 -6 -5 -12 -2 -15 2 -3 7 2 10 11 7 17 1 20 -8 4z"/>
<path d="M3314 999 c-4 -7 -3 -9 4 -5 5 3 13 0 15 -6 4 -9 6 -10 6 -1 1 17
-16 25 -25 12z"/>
<path d="M3153 965 c0 -8 4 -12 9 -9 5 3 6 10 3 15 -9 13 -12 11 -12 -6z"/>
<path d="M3432 965 l-23 -12 21 -6 c12 -3 19 -3 16 0 -3 4 -1 12 5 20 13 15
12 15 -19 -2z"/>
<path d="M3385 929 c-4 -6 -5 -12 -2 -15 2 -3 7 2 10 11 7 17 1 20 -8 4z"/>
<path d="M3217 919 c7 -7 15 -10 18 -7 3 3 -2 9 -12 12 -14 6 -15 5 -6 -5z"/>
<path d="M3494 919 c-4 -7 -3 -9 4 -5 5 3 13 0 15 -6 4 -9 6 -10 6 -1 1 17
-16 25 -25 12z"/>
<path d="M3582 914 c-7 -8 -8 -14 -3 -14 10 0 25 19 20 25 -2 1 -10 -3 -17
-11z"/>
<path d="M3310 860 c-9 -6 -10 -10 -3 -10 6 0 15 5 18 10 8 12 4 12 -15 0z"/>
<path d="M3080 846 c0 -3 9 -10 20 -16 11 -6 20 -8 20 -6 0 3 -9 10 -20 16
-11 6 -20 8 -20 6z"/>
<path d="M3286 837 c3 -10 9 -15 12 -12 3 3 0 11 -7 18 -10 9 -11 8 -5 -6z"/>
<path d="M3413 837 c0 -8 6 -14 14 -14 9 0 10 4 2 14 -6 7 -12 13 -14 13 -1 0
-2 -6 -2 -13z"/>
<path d="M3263 805 c0 -8 4 -12 9 -9 5 3 6 10 3 15 -9 13 -12 11 -12 -6z"/>
<path d="M3345 801 c-3 -5 -2 -12 3 -15 5 -3 9 1 9 9 0 17 -3 19 -12 6z"/>
<path d="M3317 773 c-3 -5 -2 -15 4 -23 6 -11 9 -12 9 -2 0 7 4 11 9 7 5 -3
13 0 17 7 4 7 4 10 -1 6 -4 -4 -14 -3 -21 3 -7 5 -15 6 -17 2z"/>
<path d="M3126 732 c-3 -5 1 -9 9 -9 8 0 12 4 9 9 -3 4 -7 8 -9 8 -2 0 -6 -4
-9 -8z"/>
<path d="M3065 720 c-3 -5 -1 -10 4 -10 6 0 11 5 11 10 0 6 -2 10 -4 10 -3 0
-8 -4 -11 -10z"/>
<path d="M3096 721 c-3 -5 1 -12 10 -15 22 -8 25 -4 9 11 -8 7 -16 9 -19 4z"/>
<path d="M3047 695 c3 -8 9 -12 14 -9 12 7 11 11 -5 17 -10 4 -13 1 -9 -8z"/>
<path d="M2885 609 c-4 -6 -4 -13 -1 -16 3 -4 6 -1 6 6 0 8 6 11 16 7 8 -3 12
-2 9 4 -8 13 -22 13 -30 -1z"/>
<path d="M3090 606 c0 -2 7 -7 16 -10 8 -3 12 -2 9 4 -6 10 -25 14 -25 6z"/>
<path d="M2717 559 c7 -7 15 -10 18 -7 3 3 -2 9 -12 12 -14 6 -15 5 -6 -5z"/>
<path d="M2885 510 c-3 -6 1 -7 9 -4 18 7 21 14 7 14 -6 0 -13 -4 -16 -10z"/>
<path d="M2630 450 c-8 -5 -10 -10 -5 -10 6 0 17 5 25 10 8 5 11 10 5 10 -5 0
-17 -5 -25 -10z"/>
</g>
</svg>
