<?xml version="1.0" standalone="no"?>
<!DOCTYPE svg PUBLIC "-//W3C//DTD SVG 20010904//EN"
 "http://www.w3.org/TR/2001/REC-SVG-20010904/DTD/svg10.dtd">
<svg version="1.0" xmlns="http://www.w3.org/2000/svg"
 width="2040.000000pt" height="2096.000000pt" viewBox="0 0 2040.000000 2096.000000"
 preserveAspectRatio="xMidYMid meet">
<g transform="translate(0.000000,2096.000000) scale(0.100000,-0.100000)"
fill="#ffffff" stroke="none">
<path d="M9850 19829 c-29 -30 -61 -72 -70 -95 -10 -23 -29 -65 -43 -95 -14
-30 -29 -67 -32 -84 -4 -16 -13 -46 -20 -65 -7 -19 -23 -80 -35 -135 -11 -55
-27 -127 -35 -161 -8 -34 -17 -88 -20 -120 -3 -32 -12 -99 -20 -149 -8 -49
-19 -216 -25 -370 -17 -453 -35 -654 -65 -740 -8 -22 -19 -66 -24 -99 -23
-125 -126 -301 -254 -434 -44 -46 -202 -142 -233 -142 -11 0 -54 -9 -97 -19
-63 -16 -89 -18 -130 -10 -29 5 -83 13 -122 18 -40 4 -91 19 -120 33 -27 14
-72 33 -100 44 -27 10 -126 57 -220 104 -239 121 -461 207 -615 236 -372 72
-525 -27 -419 -271 9 -20 14 -28 59 -100 66 -106 223 -279 345 -380 39 -32 72
-62 75 -66 3 -4 34 -30 70 -58 36 -28 79 -64 95 -80 24 -24 177 -128 257 -176
9 -5 48 -31 85 -56 37 -25 115 -77 173 -115 58 -38 107 -72 110 -75 3 -4 29
-24 59 -44 64 -44 107 -82 170 -149 25 -28 55 -59 67 -70 90 -91 259 -340 345
-507 29 -57 67 -129 84 -159 17 -30 38 -75 47 -100 34 -96 41 -116 59 -155 10
-23 30 -72 44 -110 14 -39 30 -79 35 -90 10 -21 34 -114 54 -205 7 -30 17 -64
23 -75 6 -11 14 -41 18 -68 4 -26 11 -50 16 -53 5 -3 9 -20 9 -37 0 -18 7 -70
15 -117 86 -472 90 -826 13 -1155 -12 -49 -27 -99 -35 -110 -7 -11 -13 -26
-13 -34 0 -14 -42 -113 -60 -141 -6 -8 -16 -26 -23 -40 -33 -68 -222 -280
-249 -280 -4 0 -16 -8 -27 -19 -10 -10 -45 -30 -77 -45 -33 -15 -67 -31 -77
-37 -116 -64 -400 -80 -607 -33 -63 14 -122 30 -132 35 -9 5 -25 9 -36 9 -10
0 -29 9 -42 20 -13 11 -32 20 -43 20 -20 0 -236 105 -285 139 -15 10 -52 35
-82 55 -30 20 -64 42 -75 50 -11 7 -47 31 -80 52 -33 22 -69 47 -80 57 -38 34
-50 43 -97 77 -27 18 -48 36 -48 40 0 4 -35 34 -78 68 -78 60 -399 377 -430
425 -10 13 -34 44 -55 68 -85 97 -227 287 -239 320 -3 8 -31 52 -62 98 -62 91
-74 113 -166 306 -34 72 -68 141 -75 155 -7 14 -16 43 -20 65 -3 22 -12 56
-19 75 -42 113 -50 146 -62 255 -13 116 -24 281 -43 638 -9 162 -20 237 -57
399 -9 37 -18 101 -21 143 -4 45 -11 79 -19 86 -8 6 -14 17 -14 25 0 20 -49
175 -65 207 -8 16 -15 35 -15 43 0 61 -149 261 -219 293 l-50 24 -53 -19 c-97
-35 -180 -179 -239 -416 -5 -21 -14 -57 -20 -80 -5 -24 -16 -99 -24 -168 -8
-69 -19 -141 -24 -160 -6 -19 -11 -98 -11 -175 0 -77 -5 -167 -10 -200 -27
-174 -41 -240 -54 -260 -8 -12 -19 -40 -25 -62 -21 -79 -171 -257 -250 -298
-155 -81 -197 -90 -407 -89 -182 2 -201 5 -399 71 -71 23 -247 104 -360 166
-22 12 -62 34 -90 49 -27 15 -113 59 -190 98 -77 39 -147 75 -155 80 -26 15
-132 60 -142 60 -5 0 -34 11 -64 25 -30 14 -61 25 -68 25 -7 0 -19 6 -25 14
-7 8 -28 17 -47 21 -20 3 -50 12 -68 20 -208 90 -527 149 -649 120 -292 -70
-126 -378 458 -850 28 -23 82 -62 120 -89 39 -26 104 -72 145 -101 41 -29 118
-79 170 -111 174 -105 187 -113 390 -252 314 -214 523 -548 506 -808 -11 -166
-129 -389 -251 -474 -20 -14 -67 -50 -104 -80 -38 -30 -93 -70 -122 -87 -236
-142 -468 -322 -594 -462 -27 -31 -53 -58 -57 -61 -22 -17 -99 -148 -117 -199
-26 -75 -26 -75 0 -128 54 -112 250 -143 529 -83 176 37 218 47 260 65 19 8
96 35 170 61 74 25 139 50 145 55 5 5 17 9 27 9 29 0 275 117 427 204 107 60
235 123 306 149 22 8 64 24 93 36 29 12 88 26 130 32 42 6 85 15 95 21 51 27
483 54 630 40 67 -7 177 -16 243 -22 67 -5 135 -15 150 -21 16 -6 67 -15 114
-20 47 -5 139 -23 205 -40 66 -17 147 -37 180 -44 69 -14 144 -37 232 -71 34
-13 66 -24 71 -24 6 0 23 -7 39 -15 15 -8 71 -30 123 -50 106 -40 193 -81 495
-233 28 -14 50 -28 163 -104 159 -108 432 -389 432 -447 0 -6 6 -14 14 -18 19
-11 59 -100 97 -213 40 -122 48 -360 15 -465 -87 -276 -241 -488 -491 -675
-154 -116 -187 -134 -575 -325 -50 -25 -147 -61 -227 -86 -18 -5 -35 -14 -38
-19 -4 -6 -15 -10 -26 -10 -11 0 -37 -9 -57 -20 -42 -22 -115 -45 -222 -70
-41 -10 -100 -25 -130 -33 -137 -39 -260 -65 -355 -77 -44 -6 -105 -15 -135
-20 -147 -27 -504 -37 -717 -20 -107 8 -313 43 -334 56 -4 2 -33 9 -63 15 -54
10 -91 24 -244 95 -40 19 -74 34 -77 34 -2 0 -43 23 -92 51 -133 77 -420 219
-443 219 -5 0 -38 11 -72 24 -35 14 -97 37 -138 52 -41 15 -79 31 -85 36 -5 4
-18 8 -30 8 -11 0 -33 7 -49 15 -16 9 -61 22 -100 31 -39 9 -89 20 -111 25
-165 40 -410 39 -491 -2 -167 -84 -120 -253 141 -514 118 -118 418 -355 448
-355 28 0 357 -247 396 -296 103 -133 97 -123 161 -287 31 -80 24 -228 -15
-332 -14 -38 -30 -83 -35 -99 -33 -104 -278 -388 -415 -478 -23 -16 -49 -35
-55 -43 -7 -8 -17 -15 -23 -15 -9 0 -144 -87 -157 -101 -4 -4 -42 -28 -101
-64 -9 -5 -41 -26 -70 -46 -30 -20 -72 -47 -94 -60 -22 -13 -44 -28 -50 -35
-5 -6 -46 -33 -90 -59 -44 -27 -100 -65 -125 -85 -25 -20 -66 -50 -91 -68 -55
-37 -206 -170 -321 -284 -74 -73 -105 -109 -198 -230 -11 -14 -20 -31 -20 -36
0 -5 -6 -15 -14 -21 -8 -7 -22 -43 -31 -82 -24 -97 -8 -136 73 -175 66 -32
248 -30 379 5 40 10 75 16 78 13 3 -3 20 1 38 10 18 9 82 32 142 51 98 32 171
58 285 102 19 8 63 27 97 44 34 17 73 33 88 37 14 3 25 10 25 14 0 4 48 31
108 59 59 29 132 65 162 81 30 16 84 43 120 60 36 17 72 35 80 41 8 5 22 12
30 15 21 9 124 60 185 91 49 25 94 40 205 69 30 8 64 20 74 26 50 27 346 28
446 1 85 -23 182 -66 200 -88 7 -8 18 -15 25 -15 7 0 48 -38 90 -85 82 -90
165 -250 165 -319 0 -17 7 -53 16 -81 11 -34 18 -118 24 -270 5 -121 13 -236
18 -255 6 -19 13 -74 17 -122 4 -48 13 -95 21 -105 7 -10 14 -36 14 -59 0 -22
11 -74 25 -114 14 -40 25 -81 25 -90 0 -23 74 -164 99 -189 12 -12 21 -25 21
-30 0 -5 20 -23 46 -40 86 -59 156 -33 252 94 48 65 142 262 142 299 0 9 6 30
14 48 28 64 54 164 60 226 3 35 10 71 15 81 6 10 15 57 21 105 6 47 15 98 21
113 6 15 17 145 24 288 25 450 39 616 59 685 8 25 26 88 41 140 28 101 36 123
78 211 15 31 27 61 27 66 0 6 7 16 15 23 8 7 15 20 15 30 0 9 9 29 20 43 11
14 20 31 20 38 0 18 83 160 159 272 14 21 33 48 41 61 43 66 64 94 186 246
149 184 421 461 552 559 45 35 82 66 82 69 0 4 25 25 55 46 30 22 55 43 55 48
0 4 5 8 11 8 10 0 267 164 295 189 21 17 267 141 282 141 8 0 26 6 40 14 171
92 532 122 741 62 190 -55 437 -252 503 -402 7 -16 22 -45 35 -64 68 -108 130
-350 152 -596 13 -151 -27 -730 -54 -774 -2 -3 -8 -44 -15 -90 -11 -84 -22
-135 -60 -260 -10 -36 -26 -90 -34 -120 -29 -107 -69 -225 -82 -245 -8 -11
-14 -25 -14 -33 0 -7 -9 -32 -19 -55 -11 -24 -23 -56 -26 -72 -13 -54 -228
-478 -264 -520 -9 -11 -43 -58 -74 -105 -32 -47 -70 -101 -85 -121 -44 -60
-231 -254 -273 -285 -22 -16 -52 -39 -67 -52 -29 -25 -169 -122 -175 -122 -7
0 -203 -121 -232 -143 -5 -4 -51 -34 -101 -67 -50 -33 -144 -106 -209 -163
-65 -56 -147 -125 -181 -153 -114 -91 -302 -297 -344 -375 -8 -15 -30 -53 -47
-83 -29 -48 -39 -76 -59 -161 -7 -30 36 -104 79 -139 38 -31 41 -31 171 -34
102 -3 141 0 169 11 20 9 58 19 84 23 26 3 60 13 75 20 15 8 34 14 43 14 10 0
31 6 48 14 18 7 55 22 82 31 28 10 77 31 110 46 33 15 72 31 88 34 15 4 29 11
32 15 4 6 256 133 330 166 17 7 56 24 87 38 31 15 69 26 85 26 15 1 55 7 88
15 76 19 173 19 205 0 14 -8 39 -14 56 -15 68 0 209 -87 301 -184 47 -49 92
-104 99 -122 8 -18 18 -35 23 -38 5 -4 12 -19 16 -35 3 -16 13 -35 21 -42 8
-6 14 -18 14 -27 0 -8 7 -24 17 -34 9 -10 17 -30 18 -46 1 -15 14 -76 29 -137
32 -130 55 -405 71 -830 6 -169 24 -331 55 -505 10 -58 21 -118 24 -135 8 -49
37 -157 51 -195 8 -19 17 -51 21 -70 3 -19 13 -44 20 -55 8 -11 14 -27 14 -36
0 -9 8 -27 18 -40 11 -13 22 -36 25 -50 8 -31 106 -134 137 -144 42 -13 87 4
137 53 48 46 58 63 106 172 51 113 134 444 147 584 5 51 14 105 20 120 5 15
14 136 20 269 19 489 41 769 69 867 11 41 26 97 32 125 11 48 33 94 102 217
54 98 160 208 240 250 38 21 76 43 83 49 23 19 175 48 250 49 81 0 232 -30
265 -54 13 -9 29 -16 37 -16 12 0 216 -99 342 -165 73 -38 189 -90 280 -125
157 -59 185 -69 225 -75 22 -4 59 -14 81 -22 76 -27 280 -23 334 7 54 31 90
88 90 147 0 43 -34 146 -57 174 -7 8 -13 20 -13 25 0 5 -23 41 -50 79 -28 39
-58 81 -67 95 -45 65 -217 230 -368 355 -26 22 -80 67 -119 101 -73 62 -127
102 -225 166 -31 20 -67 45 -81 56 -14 10 -74 47 -135 82 -60 35 -131 80 -157
99 -25 20 -71 53 -101 75 -79 56 -305 293 -334 350 -8 17 -23 40 -33 51 -48
55 -160 232 -185 295 -3 8 -17 33 -30 55 -34 58 -86 165 -140 290 -7 17 -15
39 -18 50 -3 11 -21 58 -40 105 -19 47 -42 110 -51 140 -8 30 -36 125 -61 210
-25 85 -52 196 -60 245 -15 96 -28 171 -46 263 -32 160 -40 684 -14 819 42
212 69 295 135 420 322 611 1002 673 1745 159 17 -11 64 -43 105 -70 64 -43
185 -137 255 -198 11 -10 65 -57 120 -105 55 -49 111 -100 125 -114 14 -14 66
-68 115 -120 50 -52 114 -123 143 -159 28 -36 57 -72 64 -80 15 -18 101 -126
123 -155 8 -11 28 -40 44 -65 15 -25 58 -90 94 -145 36 -55 85 -141 110 -190
96 -193 136 -281 142 -315 4 -19 11 -40 16 -46 5 -6 13 -31 18 -55 6 -24 16
-64 24 -89 37 -112 52 -270 86 -865 4 -71 15 -161 24 -200 19 -85 33 -159 54
-285 52 -326 243 -672 370 -670 138 3 276 257 327 605 29 190 35 250 41 390
11 243 37 419 75 500 56 123 63 136 88 163 95 104 120 128 142 140 14 7 43 23
65 37 72 44 96 51 237 76 124 21 421 -17 515 -66 15 -8 35 -15 44 -15 9 0 66
-24 125 -54 306 -152 568 -283 644 -323 95 -49 133 -66 270 -118 52 -20 99
-41 104 -46 6 -5 17 -9 25 -9 9 0 29 -7 45 -15 15 -8 36 -15 45 -15 9 0 41 -9
71 -21 100 -37 331 -78 453 -78 180 -2 245 110 158 273 -22 41 -49 84 -60 95
-12 12 -21 27 -21 34 0 15 -243 264 -314 322 -58 47 -68 55 -168 137 -82 67
-160 126 -189 143 -9 5 -64 42 -120 80 -94 64 -173 114 -247 155 -51 29 -171
110 -177 120 -3 5 -13 10 -22 10 -9 0 -33 15 -53 32 -21 18 -56 46 -77 61 -62
46 -242 225 -259 259 -9 17 -32 53 -50 80 -35 49 -84 148 -84 168 0 6 -9 36
-20 67 -28 80 -28 250 0 308 11 22 19 45 20 51 1 58 145 257 226 314 19 14 66
48 104 77 38 29 106 73 150 98 45 25 101 61 124 78 24 18 90 67 148 109 123
90 345 306 404 393 88 131 89 260 2 313 -84 51 -307 59 -503 18 -143 -30 -204
-46 -241 -62 -89 -38 -105 -44 -117 -44 -7 0 -25 -7 -40 -15 -16 -8 -47 -20
-70 -25 -93 -24 -461 -187 -507 -225 -15 -12 -180 -97 -235 -121 -16 -7 -66
-30 -110 -50 -44 -21 -105 -44 -135 -50 -55 -13 -89 -20 -235 -54 -161 -38
-761 -35 -955 4 -41 8 -104 20 -140 26 -173 28 -207 36 -388 91 -34 10 -70 19
-80 19 -21 0 -173 48 -187 59 -5 5 -21 12 -35 16 -25 7 -64 21 -195 71 -65 24
-230 102 -265 124 -8 5 -58 30 -110 55 -52 26 -117 61 -145 79 -27 18 -68 44
-90 57 -22 13 -47 31 -55 40 -8 9 -45 39 -81 67 -75 58 -196 182 -236 243 -15
23 -45 67 -65 98 -21 31 -42 67 -48 81 -6 14 -17 37 -25 51 -38 67 -97 351
-79 380 2 4 9 52 14 106 11 115 57 237 142 378 121 200 396 442 653 572 168
86 364 177 460 213 33 12 85 33 115 45 111 44 149 56 423 126 110 27 236 54
280 59 45 6 98 15 117 21 33 10 274 33 490 46 109 7 452 -21 518 -42 23 -8 80
-19 125 -26 75 -10 179 -47 315 -109 23 -11 49 -20 57 -20 8 0 36 -15 62 -32
74 -51 263 -158 278 -158 4 0 63 -25 132 -56 69 -30 151 -61 181 -69 30 -8 59
-18 66 -23 6 -5 47 -21 91 -36 44 -15 91 -33 105 -41 14 -7 43 -16 65 -20 22
-4 56 -12 75 -20 19 -7 60 -16 90 -20 30 -4 84 -13 120 -21 161 -34 363 -5
430 61 42 42 37 160 -10 238 -19 32 -41 70 -48 83 -27 50 -267 278 -373 354
-76 55 -220 153 -250 170 -109 62 -312 214 -352 261 -95 117 -157 213 -157
247 0 5 -9 29 -20 53 -42 94 -15 338 52 463 96 179 281 377 473 502 55 36 109
74 120 84 11 9 31 21 45 26 29 10 215 128 335 210 17 12 55 37 85 57 144 92
416 320 549 460 107 112 192 222 206 267 4 14 14 34 21 45 17 24 18 112 1 142
-79 141 -404 109 -907 -89 -196 -78 -200 -80 -785 -377 -223 -113 -336 -161
-381 -161 -14 0 -39 -7 -55 -16 -18 -9 -79 -19 -152 -25 -67 -5 -128 -12 -135
-14 -19 -7 -210 25 -247 40 -57 25 -80 36 -120 60 -22 14 -47 28 -56 32 -9 5
-37 33 -64 63 -27 30 -56 60 -64 66 -36 26 -131 244 -131 301 -1 21 -5 58 -10
83 -5 25 -16 155 -25 290 -8 135 -18 252 -20 260 -3 9 -9 47 -14 85 -34 250
-117 490 -201 582 -90 99 -198 84 -288 -40 -20 -28 -43 -63 -50 -77 -6 -14
-16 -32 -21 -40 -42 -64 -127 -334 -141 -443 -5 -42 -16 -103 -24 -135 -8 -31
-18 -82 -21 -112 -4 -30 -12 -66 -17 -80 -6 -14 -14 -92 -18 -175 -9 -161 -23
-358 -41 -575 -17 -211 -77 -426 -177 -632 -34 -70 -62 -130 -62 -134 0 -6
-53 -98 -95 -164 -12 -19 -49 -78 -82 -130 -34 -52 -77 -115 -97 -140 -21 -25
-60 -74 -87 -110 -86 -113 -111 -142 -219 -254 -212 -220 -595 -556 -635 -556
-2 0 -27 -15 -54 -32 -26 -18 -82 -55 -122 -82 -116 -77 -241 -144 -329 -175
-30 -11 -93 -33 -140 -50 -47 -17 -97 -31 -111 -31 -15 0 -46 -7 -69 -15 -68
-24 -305 -20 -422 6 -365 84 -599 361 -713 847 -35 151 -36 643 -1 842 28 156
55 315 60 350 3 19 14 64 25 100 11 36 37 128 59 205 21 77 46 154 55 172 10
18 17 37 17 44 0 6 8 30 19 53 18 41 30 72 59 156 8 25 21 52 27 60 7 8 16 26
20 40 4 14 12 31 18 38 5 7 38 69 73 138 74 146 228 381 314 479 59 66 251
255 260 255 4 0 39 24 76 53 38 29 110 76 159 106 157 91 210 125 290 181 84
60 227 171 261 204 12 12 53 46 90 76 162 130 338 326 414 460 122 216 105
329 -54 375 -87 25 -279 4 -430 -47 -182 -62 -199 -68 -210 -76 -6 -5 -45 -21
-86 -37 -41 -16 -97 -42 -125 -58 -27 -16 -79 -45 -115 -64 -36 -18 -72 -38
-80 -42 -26 -16 -137 -61 -148 -61 -6 0 -26 -9 -44 -19 -127 -74 -415 -76
-548 -3 -163 89 -246 173 -325 327 -24 48 -49 93 -55 100 -23 28 -83 291 -91
400 -18 237 -30 440 -40 679 -6 152 -16 270 -24 304 -8 31 -15 82 -15 113 0
32 -9 86 -20 121 -11 34 -20 74 -20 88 0 24 -13 77 -63 250 -28 99 -108 257
-152 300 -30 29 -43 34 -93 38 l-58 4 -54 -53z m140 -2163 c0 -20 7 -35 20
-44 12 -7 20 -23 20 -40 0 -16 8 -32 20 -40 13 -8 20 -23 20 -42 0 -17 4 -30
10 -30 11 0 33 -77 25 -90 -3 -5 15 -28 40 -52 32 -31 45 -51 45 -70 0 -16 3
-28 8 -28 23 -1 112 -102 112 -127 0 -18 8 -33 21 -41 14 -9 19 -20 16 -33 -7
-25 137 -171 159 -162 10 3 38 -18 80 -60 43 -44 70 -64 80 -60 10 3 25 -4 40
-20 15 -16 30 -24 40 -20 10 4 25 -4 40 -21 21 -22 31 -25 62 -20 31 5 40 2
59 -19 21 -24 23 -25 137 -20 l116 6 35 -34 34 -34 -45 -43 c-24 -24 -42 -48
-39 -53 11 -16 -15 -49 -39 -49 -13 0 -38 -15 -57 -33 -19 -18 -42 -36 -51
-40 -23 -8 -23 -26 -2 -34 10 -4 22 0 29 10 22 30 63 32 70 4 14 -55 -48 -107
-127 -107 -60 0 -116 -42 -85 -64 9 -7 17 -21 17 -30 0 -21 -29 -21 -45 1 -11
15 -18 12 -63 -36 -31 -32 -48 -59 -45 -68 4 -9 -17 -36 -56 -74 -40 -40 -61
-68 -61 -83 0 -13 -7 -29 -15 -36 -8 -7 -15 -27 -15 -45 0 -37 -36 -89 -56
-81 -19 7 -43 -20 -37 -43 3 -13 -2 -24 -16 -33 -13 -8 -21 -23 -21 -40 0 -17
-8 -33 -20 -40 -12 -8 -20 -24 -20 -40 0 -17 -8 -33 -20 -40 -12 -8 -20 -24
-20 -40 0 -17 -8 -33 -20 -40 -12 -8 -20 -24 -20 -40 0 -17 -8 -33 -20 -40
-12 -8 -20 -24 -20 -39 0 -15 -11 -35 -26 -48 -23 -20 -25 -28 -20 -62 5 -32
3 -40 -14 -49 -24 -13 -26 -29 -3 -45 21 -16 11 -31 -27 -38 -29 -6 -30 -9
-30 -57 0 -39 -4 -53 -20 -62 -15 -10 -20 -24 -20 -60 0 -37 -5 -51 -20 -60
-15 -10 -20 -24 -20 -60 0 -37 -5 -51 -20 -60 -17 -11 -20 -24 -20 -79 0 -67
-15 -129 -31 -129 -5 0 -9 -24 -9 -54 0 -46 -3 -56 -20 -61 -19 -6 -24 -16
-21 -43 3 -21 -19 -42 -43 -42 -29 0 -46 18 -46 48 0 13 -7 30 -15 38 -14 15
-18 40 -20 142 -1 31 -6 46 -23 57 -17 13 -21 25 -20 61 2 25 -3 48 -9 52 -19
12 -33 60 -33 110 0 36 -5 50 -20 60 -13 8 -20 23 -20 42 0 17 -4 30 -9 30
-14 0 -31 59 -31 109 0 35 -5 49 -20 59 -12 7 -20 23 -20 40 0 16 -8 32 -20
40 -12 7 -20 23 -20 40 0 16 -8 32 -20 40 -15 9 -20 23 -20 60 0 37 -5 50 -21
60 -12 8 -19 21 -17 35 2 17 -6 26 -34 39 -23 11 -38 25 -38 36 0 10 -18 36
-40 57 -45 44 -48 54 -21 77 22 19 27 91 7 107 -10 9 -18 5 -31 -15 -9 -14
-20 -22 -25 -18 -13 15 -29 99 -24 122 7 25 -45 59 -54 34 -21 -65 -59 -45
-59 31 0 109 -2 119 -22 124 -10 2 -23 15 -29 27 -6 14 -23 26 -41 29 -37 8
-71 57 -71 104 0 37 -105 149 -150 160 -36 8 -50 22 -50 49 0 13 -11 34 -24
48 -24 27 -46 34 -46 15 0 -6 -12 -9 -27 -7 -29 3 -30 5 -19 50 5 22 1 32 -19
50 -16 14 -23 28 -20 39 4 10 -3 26 -16 38 -43 40 -22 49 116 48 120 -1 126 0
142 22 14 21 21 23 75 18 54 -5 61 -3 83 20 14 16 29 24 39 20 11 -4 24 3 38
18 14 17 28 23 40 19 13 -4 35 12 82 62 44 45 70 65 80 61 23 -9 129 98 121
122 -6 19 20 49 128 147 72 66 78 79 47 89 -11 3 -20 11 -20 16 0 5 9 14 20
21 13 8 20 24 20 43 0 23 9 37 40 59 47 35 50 48 13 65 -25 11 -26 14 -10 23
22 12 47 4 47 -16 0 -9 7 -12 20 -9 15 4 20 14 20 37 0 20 8 38 21 50 12 10
19 25 16 36 -3 11 4 26 19 39 14 12 21 27 18 36 -8 19 54 85 73 78 7 -3 13
-19 13 -37z m385 -501 c0 -32 -19 -45 -29 -19 -9 22 3 56 17 51 7 -2 12 -16
12 -32z m-1747 -588 c-4 -44 -24 -44 -38 -1 -10 29 -10 38 1 45 21 12 40 -11
37 -44z m5752 -1683 c0 -22 5 -34 13 -34 21 0 77 -55 77 -75 0 -10 9 -29 21
-41 l21 -23 -21 -13 c-12 -7 -21 -17 -21 -22 0 -13 92 -96 107 -96 7 0 13 -6
13 -12 0 -15 124 -148 138 -148 5 0 15 7 23 16 16 19 55 11 87 -19 28 -26 25
-37 -17 -51 -43 -15 -44 -30 -2 -34 22 -2 46 -15 69 -38 20 -19 45 -34 59 -34
13 0 26 -7 29 -15 15 -39 77 -42 89 -4 5 14 15 19 46 19 45 0 53 -19 18 -44
-41 -29 -17 -46 54 -39 59 5 65 4 80 -17 24 -35 260 -35 284 0 15 21 21 22
113 17 106 -6 122 -1 124 35 1 25 47 88 65 88 12 0 24 -36 16 -50 -3 -5 6 -19
20 -32 52 -45 38 -92 -57 -183 -78 -76 -81 -81 -79 -120 2 -46 -10 -62 -56
-74 -21 -6 -27 -13 -25 -29 2 -13 -5 -26 -17 -34 -13 -8 -21 -23 -21 -40 0
-17 -8 -33 -20 -40 -12 -8 -20 -24 -20 -40 0 -17 -8 -33 -20 -40 -12 -8 -20
-24 -20 -40 0 -17 -8 -33 -20 -40 -19 -12 -20 -24 -20 -303 0 -279 1 -291 20
-303 15 -9 20 -23 20 -60 0 -36 5 -50 20 -60 12 -7 20 -23 20 -40 0 -16 8 -32
20 -40 13 -8 20 -23 20 -42 0 -24 5 -31 28 -36 15 -4 36 -17 48 -29 11 -12 27
-25 35 -29 11 -5 11 -7 1 -12 -70 -33 -47 -98 32 -88 59 8 67 -9 25 -50 -48
-46 -114 -42 -135 10 -10 25 -21 34 -37 34 -13 0 -33 11 -45 25 -13 15 -28 22
-37 19 -9 -4 -25 2 -36 12 -16 14 -39 19 -88 21 -155 4 -215 21 -177 48 37 28
13 43 -57 38 -59 -5 -67 -3 -79 16 -12 19 -22 21 -105 21 -83 0 -92 2 -98 20
-3 11 -9 20 -13 20 -4 0 -216 0 -471 1 -461 0 -464 0 -478 -21 -14 -20 -24
-21 -112 -20 -125 2 -119 3 -126 -21 -7 -21 -11 -21 -132 -16 -124 4 -126 4
-147 -20 -18 -21 -27 -24 -58 -19 -32 5 -41 2 -60 -20 -20 -22 -29 -25 -60
-20 -32 5 -41 2 -60 -20 -20 -22 -29 -25 -60 -20 -32 5 -41 2 -60 -19 -29 -33
-101 -36 -118 -5 -16 29 -31 25 -69 -20 -35 -41 -92 -55 -130 -31 -21 13 4 41
35 41 16 0 40 17 71 50 44 47 103 77 125 64 10 -6 36 18 208 189 81 81 117
123 113 135 -3 12 39 60 136 155 121 119 141 143 142 170 0 18 9 46 20 62 10
17 21 37 25 45 3 8 14 35 25 60 11 26 21 73 22 110 2 49 6 65 17 65 14 0 20
-28 21 -107 0 -15 4 -30 10 -34 16 -9 68 54 62 76 -3 12 3 23 16 32 13 8 21
23 21 40 0 17 8 33 20 40 24 15 28 73 5 82 -34 13 -18 37 98 145 26 24 47 51
47 61 0 9 9 27 19 39 10 12 17 30 14 41 -3 12 3 23 16 32 13 8 21 23 21 39 0
34 19 89 31 89 5 0 9 13 9 30 0 19 7 34 20 42 12 8 20 24 20 40 0 15 8 33 18
40 34 24 38 78 6 78 -24 0 -27 27 -5 49 12 12 21 29 21 40 0 10 10 25 21 33
27 17 28 64 4 82 -27 20 -12 50 20 42 31 -8 44 17 23 42 -30 34 -27 162 3 162
5 0 9 12 9 26 0 17 12 40 33 60 l32 34 28 -31 c18 -21 27 -43 27 -65z m-8762
44 c7 -7 12 -24 12 -38 0 -14 8 -30 20 -38 18 -11 20 -23 20 -140 0 -116 2
-128 20 -140 17 -10 20 -23 20 -80 0 -56 3 -69 20 -80 15 -9 20 -23 20 -58 0
-37 5 -52 25 -70 22 -20 25 -29 19 -60 -5 -29 -3 -38 15 -50 13 -9 21 -26 21
-42 0 -16 8 -32 20 -40 12 -7 20 -23 20 -40 0 -16 8 -32 20 -40 12 -7 20 -23
20 -40 0 -16 8 -32 20 -40 12 -7 20 -23 20 -40 0 -16 8 -32 20 -40 12 -7 20
-23 20 -40 0 -16 8 -32 20 -40 13 -8 20 -23 20 -42 0 -25 5 -30 36 -39 61 -17
96 -63 59 -77 -22 -9 -18 -31 6 -45 14 -7 19 -17 16 -30 -4 -14 8 -32 40 -64
30 -28 44 -49 40 -59 -4 -10 10 -31 40 -60 29 -28 44 -50 40 -60 -7 -19 178
-206 205 -206 11 0 18 -7 18 -20 0 -11 -4 -20 -10 -20 -24 0 2 -29 230 -258
232 -233 240 -242 240 -280 0 -54 -20 -69 -48 -37 -17 20 -27 23 -57 18 -31
-5 -41 -2 -61 20 -20 22 -30 25 -60 20 -30 -5 -40 -2 -60 21 -21 22 -31 25
-62 20 -31 -5 -40 -2 -59 19 -20 24 -27 25 -78 20 -52 -5 -59 -4 -81 20 -23
26 -25 26 -128 20 -100 -6 -104 -5 -111 16 -7 25 3 23 -152 21 -114 -1 -122 0
-128 19 -3 12 -9 21 -13 21 -14 0 -878 1 -889 0 -6 0 -15 -9 -18 -21 -6 -19
-13 -20 -96 -18 -82 3 -91 1 -105 -19 -12 -17 -25 -22 -62 -22 -37 0 -50 -5
-60 -21 -12 -18 -20 -20 -57 -15 -52 8 -69 -8 -37 -35 29 -23 28 -26 -15 -38
-56 -16 -71 -14 -95 14 -27 32 -42 31 -70 0 -12 -14 -28 -23 -36 -20 -21 8
-42 -13 -42 -41 0 -31 -62 -48 -145 -39 -33 3 -68 3 -78 -1 -28 -10 -20 -33
16 -42 22 -6 33 -15 35 -30 4 -26 -22 -40 -42 -23 -7 6 -41 14 -75 17 -48 5
-64 12 -73 27 -14 28 29 67 75 67 24 0 41 10 73 43 55 56 70 67 92 67 25 0 44
23 36 43 -3 10 2 21 15 29 13 8 21 23 21 40 0 17 8 33 20 40 12 8 20 24 20 40
0 17 8 33 20 40 12 8 20 24 20 40 0 15 8 33 19 40 11 8 21 32 25 60 4 26 13
54 21 61 22 22 23 247 2 277 -15 22 -15 26 -2 45 27 36 27 43 4 75 -18 23 -23
45 -24 90 -1 51 -4 63 -24 76 -15 11 -21 23 -18 36 4 13 -3 27 -19 41 -15 13
-24 31 -24 49 0 25 -4 28 -30 28 -36 0 -52 27 -27 45 23 16 21 32 -4 46 -14 7
-19 17 -16 30 4 15 -12 36 -59 82 -44 42 -64 68 -60 80 3 11 -11 33 -41 62
-30 28 -44 49 -40 59 4 10 -9 30 -37 58 -24 23 -42 47 -39 55 9 22 57 15 80
-11 24 -27 94 -26 121 1 16 15 51 17 72 3 20 -13 -3 -30 -43 -30 -22 0 -28 -4
-25 -17 3 -16 14 -18 90 -15 79 3 87 2 101 -19 24 -34 260 -33 284 1 15 21 21
22 100 17 92 -6 119 8 74 39 -24 17 -28 44 -7 44 8 0 21 -8 28 -18 27 -38 56
-34 104 14 37 36 52 44 83 44 35 0 47 9 182 146 79 81 154 156 167 169 12 12
22 32 22 43 0 12 9 26 20 32 24 13 26 35 5 44 -8 3 -15 10 -15 16 0 14 37 13
42 -2 3 -7 12 -9 22 -5 12 5 15 13 11 28 -5 16 3 31 39 65 28 28 43 50 39 59
-13 35 47 61 75 33z m10835 -395 c12 -12 -15 -33 -43 -33 -33 0 -43 9 -29 27
12 13 61 18 72 6z m-469 -209 c3 -9 6 -31 6 -49 0 -23 7 -39 21 -49 12 -8 19
-22 17 -33 -4 -25 -46 -30 -55 -6 -4 10 -13 23 -21 29 -21 15 -5 124 18 124 4
0 11 -7 14 -16z m73 -200 c5 -15 -39 -63 -59 -64 -13 0 -9 29 5 37 8 4 16 16
20 26 8 21 26 22 34 1z m-9600 -801 c4 -11 -1 -22 -15 -31 -12 -8 -22 -21 -22
-29 0 -20 -44 -13 -48 8 -2 11 6 19 22 23 17 4 26 13 26 26 0 24 28 27 37 3z
m3450 -283 c4 -14 14 -20 33 -20 32 0 55 -23 46 -45 -3 -9 4 -24 19 -37 15
-13 25 -32 25 -47 0 -15 8 -31 20 -39 12 -7 20 -23 20 -40 0 -16 8 -32 20 -40
15 -9 20 -23 20 -60 0 -37 4 -50 21 -60 14 -9 19 -20 16 -33 -4 -14 7 -32 39
-62 27 -26 44 -51 44 -65 0 -14 16 -37 40 -59 30 -28 38 -42 34 -59 -8 -29 10
-38 39 -19 22 14 26 14 57 -7 43 -30 48 -46 16 -58 -14 -5 -26 -12 -26 -15 0
-16 144 -143 156 -138 20 7 44 -15 44 -41 0 -30 54 -88 75 -80 11 5 31 -8 62
-40 30 -31 51 -45 62 -41 11 3 26 -4 39 -20 19 -21 28 -24 60 -19 31 5 40 2
60 -20 19 -23 27 -25 61 -20 32 5 41 3 54 -16 24 -34 539 -36 563 -2 13 19 24
21 99 20 97 -1 118 -13 81 -46 -15 -12 -23 -28 -20 -39 3 -12 -14 -36 -56 -77
-33 -32 -60 -64 -60 -70 0 -6 -10 -16 -22 -21 -20 -9 -23 -19 -26 -75 -4 -89
-18 -137 -44 -151 -14 -8 -23 -8 -25 -2 -2 6 -10 19 -18 29 -18 24 -37 2 -29
-33 4 -15 0 -26 -15 -35 -13 -8 -21 -23 -21 -40 0 -17 -8 -33 -20 -40 -12 -8
-20 -24 -20 -40 0 -17 -8 -33 -20 -40 -12 -8 -20 -24 -20 -40 0 -17 -8 -33
-20 -40 -15 -10 -20 -24 -20 -59 0 -50 -17 -109 -31 -109 -5 0 -9 -101 -9
-233 0 -221 1 -233 20 -245 16 -9 20 -23 20 -62 0 -28 4 -50 9 -50 12 0 31
-55 31 -89 0 -16 8 -31 21 -39 18 -11 21 -20 16 -53 -5 -37 -2 -43 39 -82 29
-28 44 -50 44 -67 0 -15 9 -31 21 -38 14 -9 19 -20 16 -33 -4 -13 7 -31 31
-56 36 -37 36 -38 42 -14 7 30 28 39 37 15 4 -10 0 -22 -10 -29 -10 -7 -17
-16 -17 -22 0 -14 61 -57 89 -63 31 -6 38 -26 12 -35 -31 -9 -26 -26 19 -64
41 -35 52 -69 28 -89 -7 -5 -75 -10 -154 -11 -138 -1 -141 0 -162 24 -28 32
-46 32 -74 -1 -22 -25 -24 -25 -166 -23 -136 2 -144 1 -158 -20 -12 -16 -25
-21 -62 -21 -37 0 -50 -4 -60 -21 -11 -18 -20 -21 -53 -16 -34 4 -44 1 -64
-20 -14 -16 -29 -23 -39 -20 -10 4 -31 -10 -60 -40 -29 -29 -50 -44 -60 -40
-20 8 -350 -324 -354 -357 -2 -13 -39 -57 -87 -104 -62 -61 -82 -86 -78 -101
3 -13 -2 -24 -16 -33 -13 -8 -21 -23 -21 -40 0 -17 -8 -33 -20 -40 -15 -10
-20 -24 -20 -60 0 -37 -5 -51 -20 -60 -12 -8 -20 -24 -20 -39 0 -14 -10 -34
-24 -46 -17 -15 -23 -28 -19 -43 13 -51 -21 -40 -89 30 -66 67 -67 69 -55 100
10 27 10 33 -6 41 -10 6 -17 22 -17 39 0 27 -3 30 -30 30 -36 0 -52 27 -27 45
23 16 21 32 -3 45 -12 7 -20 21 -20 38 0 17 -8 32 -21 40 -14 9 -19 20 -16 33
4 14 -7 32 -38 61 -37 35 -43 46 -38 70 7 34 -22 41 -32 8 -7 -23 -25 -26 -43
-8 -18 18 -15 36 8 43 22 7 28 35 7 35 -6 0 -27 16 -44 35 -19 21 -42 35 -56
35 -30 0 -132 102 -124 124 8 21 -59 87 -80 79 -10 -4 -22 3 -33 17 -17 23
-28 23 -61 -1 -18 -14 -69 -4 -69 12 0 6 9 13 20 16 32 8 21 39 -13 35 -18 -2
-30 4 -39 18 -8 12 -23 20 -40 20 -16 0 -33 9 -42 22 -14 20 -23 22 -81 20
-56 -3 -66 -1 -77 17 -12 20 -22 21 -159 21 -143 0 -146 0 -167 25 -28 32 -45
32 -76 -1 -23 -26 -26 -26 -120 -21 -92 5 -97 5 -119 -18 l-22 -24 -32 33 -33
33 25 21 c15 13 22 28 18 37 -4 11 8 30 36 56 49 47 51 59 11 59 -27 0 -49 40
-22 40 4 0 17 3 28 6 16 4 23 0 27 -15 7 -26 17 -26 51 0 31 24 33 45 6 54
-11 3 -20 11 -20 16 0 10 8 14 53 23 22 5 27 12 27 34 0 18 9 37 25 50 21 19
25 31 25 79 0 32 4 64 9 72 10 16 31 6 31 -15 0 -35 35 -9 36 26 1 44 12 80
25 80 5 0 9 13 9 28 0 18 9 37 25 50 22 19 24 28 19 61 -5 32 -3 41 15 53 20
14 21 22 20 269 -1 140 2 265 6 280 5 22 -4 36 -75 106 -74 73 -81 84 -78 115
3 29 6 33 33 33 36 0 46 28 16 45 -12 6 -21 21 -21 33 0 14 -17 41 -41 65 -25
25 -39 47 -36 56 9 23 -47 74 -85 78 -38 4 -51 33 -19 43 12 3 21 12 21 19 0
19 -57 57 -75 50 -26 -10 -55 24 -48 57 5 27 3 29 -24 29 -40 0 -142 100 -119
119 11 10 17 8 29 -10 20 -28 52 -19 44 13 -10 36 10 48 79 48 53 0 65 -3 78
-21 24 -35 539 -34 563 1 14 20 22 22 75 17 54 -5 61 -3 83 20 14 16 29 24 39
20 11 -4 25 3 39 19 15 18 28 23 44 19 30 -7 43 21 18 39 -10 7 -15 18 -11 24
10 17 51 15 66 -3 19 -23 32 -18 64 20 21 25 38 35 58 35 38 0 49 28 20 48
-24 16 -30 62 -8 62 7 0 33 11 57 23 24 13 61 27 81 31 47 9 57 24 29 45 l-22
17 21 19 c11 10 18 25 15 33 -3 8 6 27 20 44 14 16 25 33 25 37 0 5 26 20 58
35 73 33 102 58 102 88 0 13 15 37 35 57 26 25 35 43 37 70 1 20 2 55 3 79 3
60 29 86 54 54 16 -22 18 -22 31 -7 12 15 12 18 -4 27 -26 15 -37 52 -25 88
12 34 24 38 37 13 6 -9 16 -14 26 -10 19 7 11 93 -10 115 -14 13 -8 42 8 42 5
0 12 -9 15 -20z m-2803 -562 c11 -15 30 -24 63 -28 41 -4 48 -9 54 -33 4 -15
18 -36 31 -47 22 -18 22 -19 4 -26 -12 -5 -23 -2 -30 8 -6 8 -32 18 -58 22
-26 4 -54 13 -61 21 -8 7 -27 15 -42 17 -38 4 -52 29 -37 62 15 33 55 35 76 4z
m8911 -119 c0 -24 -5 -34 -15 -34 -16 0 -25 37 -16 62 10 26 31 8 31 -28z
m-3542 -35 c13 -14 -7 -34 -34 -34 -47 0 -36 37 12 39 9 1 18 -2 22 -5z m73
-9 c4 -8 15 -15 25 -15 23 0 25 -28 3 -37 -17 -6 -64 33 -64 54 0 18 29 17 36
-2z m-398 -271 c4 -30 -21 -48 -47 -34 -21 11 -28 40 -14 54 15 15 58 1 61
-20z m-179 -43 c25 -16 1 -31 -50 -31 -36 0 -49 4 -49 14 0 22 71 34 99 17z
m-59 -2508 c0 -33 -24 -39 -60 -13 -32 23 -41 65 -18 88 16 16 78 -43 78 -75z
m-3934 -44 c8 -14 -14 -29 -43 -29 -24 0 -38 14 -28 30 8 14 62 13 71 -1z
m-628 -297 c4 -25 -18 -29 -65 -11 l-28 11 30 13 c40 18 59 14 63 -13z m-3198
-97 c4 -24 11 -31 33 -33 15 -2 33 -12 40 -23 7 -11 23 -19 38 -19 35 0 55
-23 34 -40 -8 -7 -21 -10 -28 -7 -21 8 -41 -9 -33 -28 5 -14 14 -17 50 -12 37
5 46 3 64 -18 14 -16 27 -22 38 -18 10 4 25 -4 40 -20 15 -16 30 -24 40 -20
10 4 25 -4 40 -21 21 -22 31 -25 62 -20 31 5 40 2 60 -20 19 -22 28 -25 60
-20 31 5 40 2 59 -20 21 -24 26 -25 100 -20 73 5 79 4 99 -18 20 -24 23 -24
161 -20 136 4 141 3 156 -18 24 -34 340 -34 364 -1 14 21 20 22 199 19 181 -2
184 -2 200 20 15 22 21 23 116 19 91 -4 101 -3 120 17 16 17 31 21 86 21 55 0
67 3 70 18 3 14 -4 17 -37 17 -41 0 -61 31 -28 42 28 10 144 -8 161 -25 24
-24 42 -21 69 9 19 22 28 25 59 20 31 -5 41 -2 62 20 20 23 30 26 60 21 30 -5
40 -2 59 18 l22 24 33 -33 c32 -33 32 -35 14 -48 -14 -9 -20 -25 -20 -53 0
-70 -17 -168 -28 -172 -7 -2 -15 16 -20 43 -13 67 -31 67 -39 0 -6 -42 -13
-59 -31 -71 -27 -17 -54 -20 -54 -5 0 21 -26 9 -54 -25 -16 -19 -35 -35 -43
-35 -21 0 -15 -28 7 -35 22 -7 25 -30 10 -69 -17 -47 -50 -27 -50 30 0 13 -3
24 -6 24 -11 0 -43 -45 -44 -62 0 -41 -61 -138 -86 -138 -8 0 -14 -10 -14 -26
0 -32 -18 -66 -31 -59 -5 4 -9 15 -9 26 0 14 -5 19 -17 17 -12 -3 -17 -12 -16
-30 1 -20 -9 -36 -38 -62 -24 -22 -39 -45 -39 -59 0 -15 -22 -44 -64 -85 -47
-45 -63 -67 -59 -81 3 -13 -2 -23 -16 -30 -29 -16 -26 -39 5 -51 36 -14 30
-54 -8 -58 -26 -3 -28 -1 -28 33 0 33 -2 35 -20 25 -13 -7 -20 -21 -20 -41 0
-17 -6 -32 -15 -35 -9 -4 -15 -19 -15 -35 0 -18 -8 -34 -20 -41 -12 -8 -20
-24 -20 -40 0 -17 -8 -33 -20 -40 -12 -8 -20 -24 -20 -40 0 -17 -8 -33 -20
-40 -12 -8 -20 -24 -20 -40 0 -17 -8 -33 -20 -40 -13 -9 -20 -24 -20 -44 0
-23 -5 -33 -20 -37 -11 -3 -20 -12 -20 -20 0 -9 9 -19 20 -22 42 -13 17 -45
-35 -45 -29 0 -39 -27 -25 -64 7 -18 7 -33 0 -46 -5 -10 -10 -34 -10 -52 0
-60 -10 -78 -40 -78 -35 0 -41 -16 -34 -85 4 -47 2 -56 -16 -67 -18 -11 -20
-23 -20 -99 0 -78 -2 -87 -24 -107 -21 -17 -24 -27 -19 -56 6 -41 -9 -66 -41
-66 -31 1 -126 101 -126 134 0 22 -4 26 -28 26 -24 0 -32 7 -46 38 -24 53 -91
122 -118 122 -15 0 -46 24 -88 65 -61 62 -74 69 -112 66 -24 -3 -60 18 -53 30
4 5 24 9 46 9 26 0 39 4 39 14 0 16 -59 28 -99 20 -56 -11 -142 61 -110 93 21
21 0 33 -45 27 -37 -6 -45 -3 -59 16 -15 22 -19 22 -201 21 -177 -2 -185 -1
-196 18 -14 27 -36 27 -51 0 -10 -20 -17 -21 -94 -17 -95 6 -149 -10 -178 -55
-29 -45 -67 -65 -82 -44 -21 29 -63 21 -100 -19 -41 -43 -58 -40 -66 12 -10
59 8 74 93 74 l68 0 0 39 c0 33 4 40 26 45 21 6 25 11 20 29 -4 19 12 40 94
121 62 61 100 106 100 120 4 94 7 108 23 117 19 11 23 39 6 39 -6 0 -9 12 -7
28 3 28 5 29 48 19 44 -11 55 5 52 74 -3 59 -2 63 33 99 l37 37 5 208 c5 201
4 207 -16 222 -18 12 -21 25 -21 81 0 56 -3 69 -20 80 -12 7 -20 23 -20 40 0
16 -8 32 -20 40 -12 7 -20 23 -20 40 0 17 -8 32 -21 40 -13 9 -19 20 -16 32 3
13 -8 33 -33 59 -29 30 -40 52 -46 86 -8 59 -56 118 -72 90 -5 -10 -7 -25 -5
-35 2 -9 -2 -22 -10 -28 -23 -19 -52 19 -37 48 6 11 11 44 12 73 0 65 3 69 41
65 27 -2 33 -8 37 -33z m2910 16 c0 -5 -7 -14 -15 -21 -9 -7 -15 -29 -15 -54
0 -47 -13 -66 -46 -66 -35 0 -50 26 -25 42 12 7 21 23 21 37 0 30 36 71 62 71
10 0 18 -4 18 -9z m8805 -135 c17 -12 18 -16 5 -31 -8 -10 -19 -32 -25 -49
-14 -42 -40 -45 -60 -6 -34 66 24 127 80 86z m-2796 -62 c19 -22 28 -25 60
-20 32 5 41 2 59 -19 12 -14 31 -25 42 -25 31 0 36 27 9 49 -23 18 -23 20 -5
27 12 5 23 2 30 -8 6 -8 30 -17 54 -21 24 -3 52 -13 62 -22 19 -17 30 -16 61
6 20 15 69 3 69 -16 0 -11 -11 -15 -40 -15 -49 0 -51 -14 -8 -52 29 -26 37
-28 88 -23 50 5 58 3 77 -18 20 -23 25 -24 121 -20 95 4 101 3 116 -19 16 -22
19 -22 200 -20 178 3 185 2 199 -19 24 -33 381 -33 404 1 15 21 21 22 156 18
138 -4 141 -4 161 20 20 22 26 23 99 18 74 -5 79 -4 100 20 19 22 28 25 59 20
30 -5 41 -2 55 14 10 11 28 20 40 20 13 0 33 12 46 26 19 22 28 25 59 20 31
-5 41 -2 62 20 15 17 30 25 40 21 10 -4 24 2 37 17 30 34 128 37 131 3 8 -117
-29 -191 -60 -121 -16 33 -36 21 -28 -17 4 -22 1 -32 -14 -41 -12 -8 -20 -24
-20 -40 0 -17 -8 -33 -20 -40 -15 -10 -20 -24 -20 -60 0 -37 -5 -50 -22 -62
-35 -24 -35 -577 0 -601 13 -10 22 -26 22 -43 0 -17 8 -32 21 -40 18 -11 20
-20 16 -52 -6 -46 36 -100 77 -100 25 0 45 -49 49 -123 1 -16 17 -43 41 -67
23 -24 36 -46 33 -54 -4 -10 18 -39 60 -80 44 -43 64 -70 60 -80 -4 -9 3 -24
14 -35 34 -32 20 -45 -54 -47 -58 -2 -69 1 -82 19 -13 19 -25 21 -100 22 -74
1 -88 4 -105 23 -27 29 -45 28 -72 -3 l-21 -25 -184 2 c-180 2 -184 2 -199
-20 -11 -16 -22 -21 -35 -17 -13 4 -27 -2 -44 -21 -19 -20 -33 -26 -65 -26
-35 1 -47 -5 -79 -39 -21 -21 -48 -39 -59 -39 -28 0 -192 -166 -192 -195 0
-18 -10 -27 -45 -42 -34 -14 -45 -23 -45 -41 0 -17 -10 -26 -40 -38 -55 -22
-57 -58 -2 -71 45 -11 50 -40 10 -62 -24 -14 -30 -14 -63 2 -48 23 -67 21 -99
-8 -50 -46 -86 -28 -86 45 0 34 -5 48 -20 58 -17 10 -20 23 -20 81 0 43 -4 71
-11 73 -13 4 -28 81 -28 148 -1 34 -6 48 -21 58 -12 7 -20 23 -20 38 0 14 -6
32 -14 40 -8 8 -18 36 -22 62 -4 28 -14 52 -25 60 -11 8 -19 25 -19 43 0 16
-4 29 -9 29 -12 0 -31 55 -31 89 0 15 -8 31 -20 39 -12 7 -20 23 -20 40 0 16
-8 32 -20 40 -11 7 -20 23 -20 36 0 14 -15 39 -35 59 -19 19 -35 44 -35 56 0
12 -11 31 -25 43 -15 13 -25 32 -25 47 0 16 -8 31 -21 39 -14 9 -19 20 -16 33
4 15 -11 36 -59 81 -42 41 -64 70 -64 85 0 14 -16 37 -41 60 -27 25 -39 43
-36 55 4 13 -15 38 -60 83 -44 43 -64 69 -60 80 5 10 -22 44 -83 105 -84 85
-110 103 -110 80 0 -23 -40 -9 -46 16 -4 15 -24 43 -46 62 -26 24 -38 42 -35
54 4 13 -19 42 -79 100 -78 77 -84 86 -84 124 0 67 46 87 89 38z m660 -77 c14
-17 4 -27 -25 -27 -28 0 -42 19 -23 31 20 12 35 11 48 -4z m2355 -1598 c15
-14 -1 -22 -46 -23 -38 -1 -43 2 -46 23 -4 22 -2 23 40 16 24 -4 47 -11 52
-16z m-11888 -31 c8 -12 -24 -40 -41 -35 -5 2 -11 13 -13 25 -4 24 40 33 54
10z m11783 -41 c17 -21 -7 -37 -55 -37 -46 0 -71 19 -52 38 16 16 93 15 107
-1z m-5983 -59 c22 -22 34 -43 34 -60 0 -16 4 -28 9 -28 15 0 31 -59 31 -111
0 -27 4 -49 9 -49 14 0 31 -59 31 -109 0 -35 5 -49 20 -59 15 -9 20 -23 20
-60 0 -37 4 -50 21 -60 13 -9 20 -22 19 -40 -4 -63 -1 -72 30 -78 31 -7 35
-13 45 -80 4 -30 13 -44 29 -52 21 -9 22 -15 18 -72 -4 -54 -2 -63 17 -76 13
-10 21 -26 21 -45 0 -16 4 -29 10 -29 11 0 33 -77 25 -90 -3 -5 7 -20 21 -33
17 -16 25 -31 21 -41 -4 -10 9 -30 38 -58 30 -29 45 -51 45 -68 0 -15 9 -31
21 -38 14 -9 19 -20 16 -33 -10 -38 63 -99 77 -64 9 24 23 18 35 -15 8 -26 7
-33 -11 -50 l-21 -19 62 -58 c44 -40 61 -62 58 -75 -4 -12 8 -31 34 -57 21
-21 39 -47 39 -59 0 -29 346 -373 366 -365 19 7 84 -56 84 -82 0 -11 -16 -35
-34 -53 l-35 -33 -161 2 c-157 2 -161 2 -177 -20 -10 -15 -22 -21 -35 -18 -12
4 -27 -4 -42 -20 -15 -16 -30 -24 -40 -20 -10 4 -23 -1 -33 -13 -10 -11 -30
-20 -45 -20 -21 0 -33 -10 -59 -50 -18 -27 -37 -50 -44 -50 -6 0 -27 -16 -46
-36 -21 -21 -41 -33 -51 -31 -12 4 -47 -25 -109 -87 l-92 -91 -2 -58 c-2 -67
-18 -93 -40 -63 -20 26 -47 14 -39 -18 4 -18 1 -28 -15 -38 -13 -8 -21 -23
-21 -40 0 -17 -8 -33 -20 -40 -12 -8 -20 -24 -20 -40 0 -17 -8 -33 -20 -40
-12 -8 -20 -24 -20 -40 0 -17 -8 -33 -20 -40 -12 -8 -20 -24 -20 -39 0 -15
-10 -34 -25 -47 -15 -13 -22 -28 -19 -37 8 -21 -14 -45 -41 -45 -33 0 -49 24
-42 65 5 32 1 39 -52 93 -57 56 -58 60 -66 127 -5 53 -12 73 -27 83 -12 9 -18
22 -15 33 4 14 -9 33 -40 64 -28 26 -43 49 -40 58 9 24 -298 326 -324 320 -15
-4 -22 0 -26 16 -7 27 -30 27 -38 0 -9 -28 -49 -22 -53 8 -3 17 3 26 23 33 34
13 22 34 -16 26 -22 -4 -32 -1 -41 14 -8 12 -24 20 -39 20 -15 0 -34 10 -47
25 -14 15 -27 22 -38 18 -10 -4 -24 4 -39 19 -23 25 -24 25 -159 20 l-137 -5
-34 35 -35 35 25 21 c30 26 31 42 5 72 -49 56 6 121 56 67 35 -38 87 -25 71
16 -7 18 25 87 51 110 19 18 20 18 35 -4 20 -27 52 -19 42 11 -7 23 142 191
206 231 l37 24 -19 31 c-36 60 20 158 60 105 10 -13 23 -21 30 -17 18 11 13
45 -9 63 -11 10 -20 21 -20 25 0 13 38 9 42 -4 8 -24 39 0 32 26 -4 18 -1 28
15 38 13 8 21 23 21 40 0 17 8 33 20 40 11 7 25 30 31 50 6 23 22 47 39 60 34
25 36 33 15 55 -14 14 -13 20 10 59 15 25 24 52 21 62 -11 34 10 49 32 22 25
-31 41 -19 40 31 0 23 6 47 16 58 20 22 20 31 -1 46 -21 16 -11 31 27 38 24 5
30 12 30 32 0 14 8 33 19 44 10 10 21 39 25 65 4 25 14 52 22 60 8 8 14 25 14
39 0 32 20 87 31 87 5 0 9 13 9 29 0 35 19 91 31 91 5 0 9 22 9 50 0 39 4 53
20 62 15 10 20 24 20 59 0 36 5 50 25 67 22 19 24 28 19 61 -5 33 -3 41 15 53
12 7 21 23 21 38 0 57 47 66 96 18z m4424 -511 c0 -44 -99 -91 -113 -53 -7 18
12 36 39 36 14 0 25 8 29 20 9 29 45 26 45 -3z m-3524 -1253 c5 -25 3 -39 -7
-44 -18 -12 -29 -3 -29 25 0 60 26 73 36 19z m759 -623 c7 -12 -26 -31 -54
-31 -25 0 -28 27 -3 33 30 8 51 7 57 -2z m-965 -81 c0 -20 -15 -25 -44 -14
-28 11 -18 34 14 34 23 0 30 -4 30 -20z m1125 -34 c32 -23 -9 -37 -70 -24
l-50 11 30 13 c39 17 67 17 90 0z"/>
<path d="M17997 5803 c-17 -17 -7 -44 16 -41 29 4 38 48 9 48 -10 0 -22 -3
-25 -7z"/>
</g>
</svg>
