<?xml version="1.0" standalone="no"?>
<!DOCTYPE svg PUBLIC "-//W3C//DTD SVG 20010904//EN"
 "http://www.w3.org/TR/2001/REC-SVG-20010904/DTD/svg10.dtd">
<svg version="1.0" xmlns="http://www.w3.org/2000/svg"
 width="600.000000pt" height="600.000000pt" viewBox="0 0 600.000000 600.000000"
 preserveAspectRatio="xMidYMid meet">
<g transform="translate(0.000000,600.000000) scale(0.100000,-0.100000)"
fill="#ffffff" stroke="none">
<path d="M3922 4848 c-34 -51 -102 -151 -152 -223 -49 -71 -125 -182 -168
-245 -43 -63 -115 -167 -160 -230 -44 -63 -95 -135 -112 -160 -134 -195 -177
-256 -260 -376 -52 -75 -132 -191 -177 -257 -45 -66 -89 -125 -97 -129 -24
-14 -46 14 -290 366 -123 178 -188 267 -192 263 -3 -3 4 -33 15 -68 31 -95 91
-298 162 -544 11 -38 27 -87 35 -108 8 -20 14 -51 14 -67 0 -26 -4 -30 -29
-30 -15 0 -57 9 -91 20 -34 11 -69 20 -76 20 -8 0 -22 4 -32 10 -9 5 -53 19
-97 30 -44 12 -123 34 -175 50 -52 16 -122 36 -155 45 -63 18 -109 32 -214 66
-35 11 -66 18 -69 14 -7 -7 -9 -6 93 -60 50 -26 119 -64 155 -83 36 -20 157
-87 270 -148 185 -101 205 -115 205 -138 0 -28 7 -22 -508 -434 -114 -92 -204
-168 -199 -170 4 -1 32 5 62 13 30 9 102 29 160 45 58 15 130 36 160 45 30 9
73 20 95 25 22 6 72 19 110 31 39 12 86 22 105 23 l35 1 3 -292 c1 -184 6
-293 12 -293 6 0 10 4 10 8 0 5 53 67 118 139 64 71 160 177 212 236 52 59
102 107 111 107 8 0 61 -58 118 -130 56 -71 105 -130 108 -130 3 0 2 69 -2
153 -6 130 -5 155 8 165 12 10 21 10 48 -2 34 -14 69 -28 169 -65 30 -11 85
-32 121 -46 36 -14 72 -25 80 -25 8 0 23 -7 33 -15 11 -8 26 -15 34 -15 8 0
28 -6 45 -14 18 -7 73 -28 122 -46 50 -18 129 -47 177 -66 49 -19 94 -34 101
-34 7 0 17 -4 22 -9 6 -5 44 -20 85 -34 91 -31 120 -42 280 -102 106 -40 180
-68 295 -110 11 -4 -18 20 -65 55 -47 34 -104 76 -127 94 -24 17 -62 45 -85
62 -24 17 -176 130 -338 251 -476 353 -725 537 -745 549 -13 7 -16 17 -11 35
5 20 58 49 311 173 167 83 302 152 300 154 -5 5 -181 -20 -285 -39 -30 -6 -75
-13 -100 -15 -25 -3 -93 -12 -151 -21 -58 -9 -113 -13 -122 -10 -29 11 -27 15
59 202 48 105 74 168 74 179 0 6 4 16 9 21 4 6 32 66 60 135 29 69 58 139 66
155 7 17 21 48 30 70 9 22 27 63 40 90 18 41 77 177 115 270 5 11 25 55 44 98
20 44 36 82 36 86 0 7 21 55 39 91 4 8 32 71 61 140 29 69 68 158 87 199 18
40 32 78 31 83 -2 5 -31 -32 -66 -84z"/>
</g>
</svg>
