<?xml version="1.0" standalone="no"?>
<!DOCTYPE svg PUBLIC "-//W3C//DTD SVG 20010904//EN"
 "http://www.w3.org/TR/2001/REC-SVG-20010904/DTD/svg10.dtd">
<svg version="1.0" xmlns="http://www.w3.org/2000/svg"
 width="2256.000000pt" height="2256.000000pt" viewBox="0 0 2256.000000 2256.000000"
 preserveAspectRatio="xMidYMid meet">
<g transform="translate(0.000000,2256.000000) scale(0.100000,-0.100000)"
fill="#ffffff" stroke="none">
<path d="M10840 19980 c-190 -3 -350 -8 -356 -12 -6 -4 -94 -12 -195 -18 -101
-6 -231 -17 -289 -25 -58 -8 -188 -26 -290 -40 -102 -14 -214 -32 -250 -40
-36 -8 -92 -17 -125 -21 -33 -3 -79 -12 -103 -20 -23 -8 -62 -14 -85 -14 -25
0 -54 -8 -72 -20 -16 -11 -38 -20 -47 -20 -38 0 -96 -40 -102 -70 -13 -68 1
-71 289 -68 341 4 635 -30 880 -102 133 -38 407 -196 455 -261 3 -3 27 -32 54
-62 27 -31 56 -67 65 -80 9 -14 28 -42 42 -63 103 -154 90 -322 -39 -515 -9
-14 -26 -40 -38 -57 -22 -33 -35 -50 -167 -204 -130 -153 -228 -301 -243 -367
-3 -14 -14 -48 -24 -76 -38 -104 -45 -143 -45 -245 0 -132 30 -233 100 -336
24 -35 173 -174 187 -174 5 0 40 -17 76 -39 37 -21 83 -42 102 -46 19 -4 48
-13 65 -21 158 -68 529 -110 740 -85 254 31 280 36 440 88 54 18 183 82 252
126 191 121 308 402 253 607 -5 19 -16 60 -24 90 -18 68 -46 140 -62 160 -6 8
-15 26 -19 40 -8 25 -33 62 -115 169 -78 101 -203 255 -220 271 -9 8 -29 35
-45 60 -16 25 -37 53 -47 63 -10 10 -18 25 -18 33 0 8 -7 25 -15 37 -86 131
-65 309 57 487 43 63 206 220 246 236 17 8 32 19 32 24 0 5 11 12 25 16 14 3
25 10 25 15 0 5 8 12 18 15 9 4 42 17 72 31 101 46 115 51 170 67 91 27 231
56 310 66 41 5 125 15 185 22 64 7 224 13 381 13 294 0 308 3 302 53 -4 33
-175 122 -234 122 -16 0 -45 5 -64 10 -19 6 -78 17 -130 25 -52 7 -114 18
-137 24 -22 6 -76 15 -120 21 -43 5 -159 21 -258 35 -99 14 -245 30 -325 35
-80 5 -221 17 -315 25 -192 17 -682 23 -1205 15z m698 -523 c6 -7 12 -33 14
-57 3 -41 6 -45 33 -50 49 -8 41 -46 -18 -87 -26 -19 -52 -31 -58 -27 -14 8
-2 55 18 69 10 8 14 19 9 30 -9 26 -76 -44 -76 -80 0 -14 -7 -28 -15 -31 -9
-4 -15 -19 -15 -35 0 -18 -8 -34 -20 -41 -15 -10 -20 -24 -20 -60 0 -37 -5
-51 -20 -60 -26 -17 -31 -378 -6 -404 8 -8 18 -36 22 -62 4 -28 14 -52 25 -60
11 -7 19 -25 19 -40 0 -16 8 -32 20 -40 12 -7 20 -23 20 -40 0 -17 8 -32 21
-40 14 -9 19 -20 16 -33 -4 -14 8 -32 40 -64 30 -28 44 -49 40 -59 -4 -11 15
-36 59 -78 43 -42 64 -69 61 -80 -4 -12 22 -45 79 -102 46 -46 84 -91 84 -99
0 -8 9 -26 20 -39 l19 -25 -23 -23 c-23 -21 -24 -27 -21 -119 l4 -96 -34 -34
c-21 -20 -41 -31 -49 -28 -10 4 -32 -11 -60 -39 l-44 -46 -94 2 c-119 3 -116
4 -123 -20 -6 -19 -15 -20 -200 -20 -185 0 -194 1 -200 20 -7 23 -6 23 -105
20 -69 -1 -77 0 -97 24 -14 16 -28 23 -39 19 -10 -4 -25 4 -41 21 -15 16 -31
25 -40 22 -10 -4 -35 13 -69 46 -53 52 -54 54 -54 114 0 63 15 124 31 124 5 0
9 13 9 30 0 19 7 34 20 42 12 8 20 24 20 39 0 19 17 42 62 85 l63 59 0 60 c0
66 19 83 56 49 10 -9 19 -12 19 -6 0 6 11 23 24 37 14 15 22 33 19 45 -3 12 3
23 16 32 12 7 21 23 21 38 0 17 15 39 45 68 25 24 43 47 40 52 -8 13 14 90 25
90 6 0 10 13 10 29 0 18 8 35 19 43 11 8 21 32 25 60 4 26 13 54 21 62 11 10
14 53 16 178 l2 165 -31 30 c-35 33 -52 70 -52 114 0 16 -4 29 -10 29 -11 0
-33 77 -25 90 3 5 -15 28 -40 52 -47 45 -62 107 -33 136 18 18 531 17 546 -1z"/>
<path d="M14365 19543 c-70 -17 -74 -78 -9 -128 26 -19 52 -35 59 -35 7 0 18
-6 24 -14 7 -8 26 -18 44 -22 17 -3 68 -24 113 -45 46 -22 85 -39 88 -39 4 0
29 -16 56 -35 27 -19 54 -35 58 -35 5 0 34 -19 65 -42 31 -24 82 -62 114 -86
113 -83 283 -269 283 -309 0 -5 8 -20 18 -33 49 -71 63 -184 36 -303 -20 -85
-37 -119 -121 -237 -21 -28 -94 -97 -128 -120 -83 -56 -107 -71 -166 -102 -83
-45 -173 -82 -274 -114 -44 -13 -102 -31 -128 -40 -58 -18 -164 -39 -307 -59
-58 -8 -118 -19 -135 -24 -16 -5 -93 -12 -170 -16 -77 -3 -171 -12 -210 -20
-38 -7 -88 -16 -110 -20 -75 -12 -270 -74 -317 -100 -14 -8 -32 -15 -39 -15
-23 0 -153 -94 -220 -160 -65 -64 -89 -101 -137 -210 -59 -133 -24 -415 69
-560 5 -8 16 -28 24 -45 48 -100 210 -268 320 -334 22 -14 42 -27 45 -31 10
-13 117 -68 175 -90 33 -12 78 -31 101 -41 23 -11 49 -19 58 -19 10 0 27 -5
39 -12 24 -13 130 -30 292 -49 207 -23 601 42 805 134 157 70 350 228 436 357
61 91 72 108 96 155 24 46 38 77 97 206 12 25 21 52 21 61 0 9 6 21 14 27 8 7
17 24 21 39 8 35 53 129 64 136 5 3 12 22 15 41 4 19 11 35 16 35 5 0 19 17
30 38 45 83 113 162 187 218 67 50 131 92 163 107 59 27 166 67 178 67 6 0 40
9 74 19 208 65 548 80 808 37 80 -13 156 -28 170 -34 14 -5 48 -12 75 -16 28
-4 66 -13 85 -21 58 -23 200 -65 219 -65 10 0 24 -7 31 -15 7 -8 20 -15 29
-15 9 0 33 -9 54 -20 20 -11 42 -20 48 -20 7 0 30 -9 53 -19 23 -11 88 -40
146 -66 58 -25 112 -50 120 -55 8 -5 62 -33 120 -63 58 -31 125 -67 150 -80
25 -14 64 -35 87 -47 23 -12 57 -31 75 -44 18 -12 59 -37 92 -56 32 -19 73
-44 92 -55 18 -11 59 -36 91 -54 32 -19 83 -52 113 -73 30 -21 59 -38 64 -38
6 0 19 -8 30 -19 157 -142 357 -179 381 -71 23 105 -13 163 -242 380 -180 171
-179 171 -433 377 -34 28 -207 159 -230 175 -14 10 -43 31 -65 47 -22 16 -60
42 -85 57 -25 15 -48 32 -52 38 -3 5 -20 17 -37 25 -16 9 -54 32 -83 52 -83
57 -202 133 -218 142 -8 4 -35 20 -60 36 -25 16 -89 56 -144 88 -54 32 -115
68 -135 80 -20 12 -49 29 -66 38 -16 9 -43 24 -60 33 -100 57 -327 180 -370
199 -16 8 -37 18 -45 23 -8 5 -36 19 -62 31 -26 11 -61 28 -78 37 -134 72
-403 202 -417 202 -6 0 -16 6 -22 14 -7 8 -23 17 -36 20 -21 5 -85 34 -241
107 -22 10 -44 19 -49 19 -5 0 -29 9 -54 21 -25 11 -59 27 -76 34 -16 7 -55
24 -86 39 -31 14 -62 26 -70 26 -8 1 -32 9 -54 20 -22 11 -48 19 -57 20 -9 0
-19 4 -23 9 -3 5 -22 15 -43 21 -39 13 -110 42 -152 65 -14 7 -41 16 -60 20
-19 4 -44 13 -55 20 -11 7 -36 16 -55 20 -19 4 -44 13 -55 20 -11 7 -38 16
-59 20 -21 3 -48 13 -60 20 -12 8 -39 18 -61 24 -22 6 -96 30 -165 54 -242 85
-306 105 -397 126 -92 21 -111 23 -148 14z m1463 -1018 c14 -15 27 -22 38 -18
10 4 25 -4 40 -21 21 -22 31 -25 62 -20 31 5 40 2 59 -20 14 -16 28 -23 39
-19 10 4 25 -4 40 -21 21 -22 31 -25 62 -20 31 5 40 2 59 -20 14 -16 28 -23
39 -19 10 4 25 -4 40 -20 14 -16 30 -24 39 -20 10 3 35 -14 70 -49 l54 -54
-34 -33 -35 -33 -95 5 c-94 6 -97 5 -118 -19 -19 -22 -28 -25 -59 -20 -31 5
-41 2 -62 -20 -20 -23 -30 -26 -61 -21 -30 5 -40 2 -58 -19 -19 -22 -28 -25
-59 -20 -32 5 -41 2 -60 -19 -13 -16 -28 -23 -39 -20 -11 4 -37 -15 -82 -61
-43 -44 -71 -65 -81 -61 -10 4 -55 -34 -138 -119 -86 -88 -128 -124 -140 -120
-34 8 -90 -61 -82 -101 6 -31 2 -38 -39 -79 -32 -31 -44 -49 -40 -63 3 -13 -2
-24 -16 -33 -13 -8 -21 -23 -21 -40 0 -17 -8 -33 -20 -40 -12 -8 -20 -24 -20
-40 0 -17 -8 -33 -20 -40 -17 -11 -20 -24 -20 -79 0 -69 -14 -97 -45 -86 -20
8 -44 -18 -38 -42 3 -13 -2 -24 -16 -33 -12 -7 -21 -23 -21 -37 0 -17 -20 -44
-64 -88 -43 -42 -63 -69 -60 -80 7 -24 -98 -128 -120 -120 -10 4 -25 -4 -40
-20 -15 -16 -30 -24 -40 -20 -11 4 -24 -3 -38 -18 -13 -15 -32 -25 -47 -25
-16 0 -31 -8 -39 -21 -12 -18 -22 -20 -90 -19 -102 3 -100 3 -107 -20 -6 -18
-15 -20 -117 -20 -100 0 -111 -2 -127 -21 -16 -20 -23 -21 -104 -14 -94 7
-109 15 -76 39 42 29 18 46 -55 39 -58 -5 -65 -4 -77 16 -11 16 -24 21 -59 21
-40 0 -50 5 -87 44 -29 30 -48 43 -61 40 -12 -4 -29 7 -53 35 -31 37 -59 53
-59 34 -1 -39 -22 -36 -70 12 -53 53 -60 69 -33 83 16 10 15 14 -12 62 -9 15
-15 52 -15 90 0 73 32 120 84 120 15 0 30 8 36 20 10 18 8 20 -22 20 -39 0
-63 13 -54 29 12 19 70 13 89 -9 23 -27 43 -25 69 5 20 23 27 25 79 20 53 -5
60 -3 81 20 23 24 27 25 142 22 115 -3 120 -2 142 21 21 24 25 25 139 19 115
-5 117 -5 138 20 21 23 26 24 99 19 74 -5 79 -4 102 21 22 24 29 25 80 20 52
-5 59 -3 80 20 22 24 29 25 80 20 52 -5 59 -3 80 20 15 16 30 24 40 20 11 -4
25 3 39 19 19 22 28 25 59 20 31 -5 41 -2 62 20 15 17 30 25 40 21 10 -4 25 4
40 20 15 16 30 24 40 20 10 -4 31 10 60 40 28 29 50 44 60 40 23 -9 326 297
319 323 -3 12 2 23 16 32 13 8 21 23 21 39 0 18 12 38 39 62 30 27 40 44 45
81 4 25 14 52 22 60 8 8 14 26 14 40 0 15 8 31 20 38 15 10 20 24 20 60 0 37
5 51 20 60 17 11 20 24 20 78 0 91 40 121 88 65z m-480 -687 c15 -15 16 -58 2
-58 -6 0 -20 -11 -32 -25 -25 -29 -46 -31 -74 -10 -19 15 -19 16 5 33 13 9 35
29 50 45 29 31 32 32 49 15z"/>
<path d="M7985 19522 c-33 -8 -80 -23 -105 -33 -25 -10 -61 -21 -80 -25 -19
-4 -41 -10 -50 -15 -15 -8 -132 -48 -200 -68 -19 -5 -66 -22 -105 -36 -38 -15
-88 -33 -110 -40 -22 -8 -69 -25 -105 -38 -36 -13 -108 -40 -161 -60 -53 -19
-105 -40 -115 -45 -11 -5 -46 -20 -79 -32 -33 -12 -78 -31 -100 -40 -22 -10
-74 -31 -115 -46 -41 -16 -91 -37 -110 -46 -19 -10 -40 -18 -48 -18 -7 0 -30
-9 -50 -20 -20 -10 -58 -28 -84 -40 -238 -102 -565 -259 -838 -402 -69 -36
-161 -84 -205 -107 -44 -23 -87 -46 -95 -51 -18 -11 -331 -189 -368 -210 -15
-8 -69 -41 -120 -72 -50 -32 -94 -58 -96 -58 -3 0 -54 -33 -114 -72 -60 -40
-116 -77 -124 -83 -9 -5 -62 -41 -117 -80 -56 -38 -110 -75 -121 -81 -46 -26
-448 -343 -565 -447 -167 -147 -381 -374 -394 -416 -32 -108 6 -171 102 -171
73 0 118 21 289 137 79 52 150 98 158 101 8 3 40 23 70 44 30 21 58 38 63 38
4 0 30 16 58 36 28 20 79 50 113 68 33 18 77 42 96 53 92 56 383 204 515 262
28 12 64 28 80 36 65 30 275 109 345 130 30 9 70 21 89 27 72 22 216 53 392
82 128 21 437 22 551 1 136 -25 373 -91 415 -114 10 -6 34 -18 53 -26 138 -63
297 -219 372 -367 17 -35 38 -69 45 -76 7 -7 13 -19 13 -27 0 -7 7 -26 15 -42
23 -45 65 -141 65 -149 0 -4 9 -27 20 -51 11 -24 29 -64 41 -90 30 -69 60
-124 81 -152 10 -13 18 -27 18 -32 0 -41 213 -268 310 -332 88 -57 103 -66
120 -73 8 -3 33 -14 55 -24 22 -10 60 -24 84 -30 24 -6 51 -15 60 -20 31 -17
186 -50 281 -60 52 -6 137 -15 188 -21 120 -13 409 18 507 55 22 8 47 15 56
16 9 0 22 7 29 15 7 8 21 15 32 15 19 0 187 80 262 125 44 26 123 93 175 148
20 21 52 55 71 75 38 41 50 58 80 117 11 22 27 49 35 59 8 11 15 27 15 35 0 9
9 34 19 56 53 111 56 123 56 275 l0 145 -37 78 c-61 127 -120 193 -245 277
-41 28 -78 50 -81 50 -4 0 -20 7 -37 16 -148 77 -369 128 -620 144 -82 6 -184
16 -225 24 -41 8 -111 19 -155 25 -44 6 -98 15 -120 20 -22 6 -78 19 -125 31
-47 11 -98 24 -115 30 -70 21 -149 51 -159 59 -6 5 -22 12 -36 16 -33 10 -111
43 -130 55 -8 6 -26 16 -40 22 -86 42 -309 254 -310 295 0 4 -12 31 -25 58
-14 28 -25 58 -25 67 0 10 -5 37 -11 60 -55 204 193 537 556 750 28 16 57 33
65 38 35 21 188 90 201 91 8 0 37 13 64 29 28 16 66 38 86 49 31 17 48 43 49
74 1 46 -119 61 -245 29z m-1247 -984 c7 -7 12 -24 12 -38 0 -14 8 -30 20 -38
16 -9 20 -23 20 -62 0 -28 4 -50 10 -50 14 0 33 -79 26 -112 -5 -23 2 -34 39
-70 30 -29 45 -51 45 -68 0 -15 9 -31 21 -38 14 -9 19 -20 16 -33 -6 -24 57
-91 79 -82 13 5 204 -171 204 -189 0 -4 -9 -10 -20 -13 -11 -3 -20 -11 -20
-16 0 -19 102 -108 117 -102 9 3 39 -20 80 -61 45 -46 71 -65 82 -61 11 3 26
-4 39 -20 14 -15 27 -22 38 -18 10 4 25 -4 40 -21 31 -33 48 -33 76 -1 24 28
59 33 77 11 10 -11 7 -17 -10 -29 -37 -26 -18 -50 33 -42 38 6 46 3 65 -19 18
-21 28 -24 58 -19 31 5 41 2 61 -20 21 -23 28 -25 80 -20 51 5 58 4 80 -20 23
-25 28 -26 102 -21 73 5 78 4 98 -19 21 -23 24 -24 139 -20 114 4 119 4 140
-19 21 -23 27 -24 141 -21 115 3 119 2 142 -22 21 -23 28 -25 81 -20 52 5 59
3 79 -20 19 -22 28 -25 58 -19 30 5 39 2 67 -26 l33 -32 1 -121 1 -122 -94
-93 c-61 -62 -99 -92 -108 -89 -10 4 -32 -11 -60 -40 -41 -42 -48 -45 -81 -40
-30 5 -40 2 -58 -19 -20 -23 -28 -25 -87 -22 -54 2 -65 0 -68 -14 -2 -10 5
-19 17 -23 25 -8 27 -23 5 -32 -10 -4 -22 1 -29 10 -20 27 -305 25 -322 -2
-10 -16 -20 -18 -55 -14 -71 8 -76 12 -49 34 41 33 21 49 -53 42 -58 -5 -65
-4 -77 16 -8 12 -24 21 -40 21 -15 0 -34 10 -47 25 -14 15 -27 22 -38 18 -10
-4 -25 4 -40 20 -15 16 -30 24 -40 20 -10 -4 -25 4 -40 20 -15 16 -30 24 -40
20 -24 -9 -164 134 -164 167 0 15 -9 31 -21 38 -14 9 -19 20 -16 33 4 14 -7
32 -39 62 -24 23 -44 51 -44 62 0 11 -7 28 -15 39 -8 10 -17 39 -21 65 -4 27
-14 51 -25 59 -11 7 -19 24 -19 38 0 15 -14 37 -40 60 -27 25 -40 45 -40 63 0
16 -8 31 -21 39 -14 9 -19 20 -16 33 4 14 -8 32 -40 64 -29 27 -43 49 -40 59
4 10 -25 45 -85 103 -49 48 -100 99 -112 112 -74 83 -149 149 -163 144 -9 -3
-31 12 -60 41 -30 31 -51 45 -62 41 -11 -3 -26 4 -39 20 -19 21 -28 24 -60 19
-31 -5 -40 -2 -59 20 -18 21 -28 24 -58 19 -31 -5 -41 -2 -61 20 -21 23 -28
25 -80 20 -50 -5 -58 -4 -79 19 -22 24 -28 25 -99 20 -76 -5 -76 -4 -110 29
l-35 33 54 54 c35 35 60 52 70 49 9 -4 25 4 39 20 15 16 30 24 40 20 11 -4 25
3 39 19 19 22 28 25 59 20 31 -5 41 -2 62 20 15 17 30 25 40 21 10 -4 25 4 40
20 15 16 30 24 40 20 11 -4 25 3 39 19 19 22 28 25 59 20 36 -6 68 11 68 35 0
13 14 11 28 -3z m266 -812 c27 -24 34 -60 15 -71 -14 -9 -81 65 -75 82 8 20
32 16 60 -11z m986 -1316 c0 -25 -25 -36 -45 -20 -25 21 -18 40 15 40 23 0 30
-4 30 -20z"/>
<path d="M19665 16246 c-84 -39 -80 -25 -77 -319 3 -249 -7 -386 -30 -411 -4
-6 -8 -18 -8 -29 0 -16 -25 -85 -51 -142 -11 -24 -45 -79 -80 -131 -35 -52
-201 -203 -264 -241 -71 -43 -179 -103 -184 -103 -3 0 -24 -10 -46 -21 -53
-29 -215 -88 -290 -105 -33 -8 -68 -19 -77 -24 -10 -6 -25 -10 -33 -10 -8 0
-41 -9 -72 -19 -32 -11 -85 -22 -118 -26 -33 -3 -94 -14 -135 -23 -107 -24
-547 -24 -670 0 -47 9 -110 19 -140 22 -60 7 -209 39 -280 60 -25 8 -65 17
-90 21 -25 4 -56 13 -70 20 -34 16 -152 55 -169 55 -8 0 -32 9 -55 19 -23 10
-75 32 -116 47 -41 16 -91 37 -110 46 -19 10 -42 18 -51 18 -9 0 -22 7 -29 15
-7 8 -17 15 -23 15 -10 0 -109 43 -137 60 -8 5 -46 25 -85 45 -91 47 -174 93
-205 113 -14 9 -55 32 -92 52 -36 19 -122 67 -190 106 -142 81 -372 194 -396
194 -6 0 -26 6 -44 14 -52 23 -159 54 -208 61 -25 4 -71 13 -103 21 -67 17
-400 20 -482 5 -138 -26 -345 -96 -394 -133 -13 -10 -29 -18 -36 -18 -6 0 -20
-9 -30 -20 -10 -11 -24 -20 -30 -20 -24 0 -197 -180 -230 -240 -20 -37 -70
-140 -90 -185 -47 -110 -48 -460 0 -555 7 -14 15 -38 19 -54 8 -31 84 -198 95
-206 4 -3 21 -25 39 -50 114 -159 410 -439 490 -464 12 -4 22 -11 22 -16 0 -4
15 -15 33 -24 17 -9 39 -21 47 -26 8 -6 26 -15 40 -20 14 -6 50 -24 80 -40 30
-17 59 -30 64 -30 5 0 28 -9 50 -20 23 -10 59 -24 81 -29 22 -5 60 -16 85 -24
118 -38 167 -47 330 -57 227 -14 457 11 625 68 17 6 71 22 120 37 50 14 104
32 120 40 17 7 51 16 78 19 26 3 61 13 78 21 16 9 53 18 82 21 29 3 70 13 92
21 84 33 558 28 733 -7 243 -48 296 -60 327 -71 17 -6 53 -17 80 -24 28 -7 66
-18 85 -25 218 -77 457 -169 550 -213 41 -19 86 -38 100 -42 14 -4 32 -13 40
-19 8 -7 44 -25 80 -41 36 -15 72 -33 80 -41 8 -7 29 -16 45 -20 17 -4 35 -10
40 -14 6 -5 78 -42 160 -85 83 -42 168 -87 190 -100 22 -13 54 -31 70 -40 66
-35 88 -48 149 -88 36 -23 91 -58 123 -79 53 -33 162 -113 332 -243 128 -98
362 -327 475 -465 33 -41 67 -82 74 -90 31 -36 102 -129 102 -133 0 -3 28 -48
63 -100 84 -128 120 -187 131 -217 5 -14 17 -36 27 -49 11 -13 19 -27 19 -32
0 -4 18 -46 40 -93 22 -47 40 -91 40 -98 0 -8 4 -18 9 -23 12 -12 48 -113 66
-183 7 -29 18 -58 23 -65 5 -7 13 -28 16 -47 4 -19 13 -57 21 -85 34 -119 69
-331 85 -515 20 -229 72 -488 111 -550 5 -8 14 -26 19 -39 25 -57 111 -131
153 -131 87 0 168 88 270 294 23 48 78 222 102 327 7 31 17 72 23 90 6 19 16
70 21 114 6 44 15 95 20 114 6 19 13 75 17 125 3 50 13 125 21 166 23 110 22
956 0 1115 -9 61 -19 162 -22 225 -4 63 -11 131 -16 150 -4 19 -13 87 -19 150
-6 63 -17 140 -25 170 -7 30 -17 87 -20 125 -4 39 -13 97 -20 130 -7 33 -16
87 -20 119 -4 33 -11 71 -17 85 -5 14 -16 60 -23 101 -18 102 -54 259 -64 279
-5 9 -12 39 -15 66 -7 47 -34 152 -58 220 -6 17 -15 53 -20 80 -6 28 -16 64
-23 80 -8 17 -20 55 -28 85 -38 141 -108 343 -199 575 -39 99 -47 118 -87 205
-11 25 -25 56 -30 70 -6 14 -15 32 -20 40 -5 8 -23 45 -41 82 -17 37 -35 70
-40 73 -6 4 -10 13 -10 21 0 8 -14 38 -30 67 -17 28 -35 59 -40 67 -4 8 -20
38 -34 66 -23 48 -35 71 -116 219 -18 33 -41 72 -52 87 -10 14 -18 28 -18 31
0 3 -23 41 -52 84 -28 43 -72 110 -97 148 -125 192 -291 362 -411 422 -56 28
-54 28 -115 -1z m393 -1029 c6 -5 12 -21 12 -36 0 -15 8 -31 20 -39 11 -7 20
-23 20 -36 0 -14 15 -39 35 -59 19 -19 35 -42 35 -51 0 -9 9 -29 20 -44 11
-15 22 -46 24 -69 4 -34 13 -50 45 -80 27 -25 41 -46 41 -63 0 -14 8 -30 20
-38 12 -7 20 -23 20 -38 0 -14 6 -32 14 -40 8 -8 18 -36 22 -62 4 -28 14 -52
25 -60 11 -7 19 -25 19 -40 0 -16 8 -32 20 -40 13 -8 20 -23 20 -42 0 -17 4
-30 9 -30 12 0 31 -56 31 -91 0 -16 4 -29 10 -29 14 0 33 -79 26 -112 -4 -22
0 -33 19 -50 15 -13 25 -32 25 -47 0 -15 8 -31 20 -39 16 -9 20 -23 20 -62 0
-28 4 -50 9 -50 15 0 31 -59 31 -111 0 -27 4 -49 9 -49 14 0 31 -59 31 -109 0
-36 5 -49 21 -59 18 -11 21 -20 16 -53 -3 -27 -1 -44 9 -53 24 -24 34 -65 34
-134 0 -56 3 -69 20 -80 18 -11 20 -23 20 -100 0 -76 2 -89 20 -100 18 -11 20
-23 20 -102 0 -50 4 -90 9 -90 18 0 31 -64 31 -151 0 -56 4 -89 11 -91 7 -2
16 -31 20 -63 12 -90 10 -1196 -2 -1211 -17 -20 -39 -4 -39 27 0 22 -11 40
-40 66 -28 26 -40 45 -40 65 0 24 -4 28 -30 28 -36 0 -52 27 -27 45 23 16 21
32 -3 45 -12 7 -20 21 -20 38 0 16 -8 32 -20 40 -12 7 -20 23 -20 40 0 17 -8
32 -21 40 -14 9 -19 20 -16 33 4 14 -7 32 -39 62 -29 28 -44 50 -44 67 0 15
-9 31 -21 38 -14 9 -19 20 -16 33 4 15 -12 36 -59 82 -44 42 -64 68 -60 80 3
11 -11 33 -41 62 -29 27 -44 49 -40 59 8 20 -538 567 -559 559 -10 -3 -45 25
-100 80 -56 57 -90 84 -100 80 -10 -4 -37 17 -79 60 -47 48 -70 64 -84 60 -13
-3 -24 2 -33 16 -7 12 -23 21 -38 21 -17 0 -39 15 -67 44 -30 32 -48 43 -62
39 -13 -3 -24 2 -33 16 -7 12 -23 21 -38 21 -17 0 -39 15 -68 45 -27 29 -48
42 -58 38 -10 -4 -31 10 -60 40 -29 30 -50 44 -60 40 -10 -4 -25 4 -40 20 -15
16 -30 24 -40 20 -10 -4 -25 4 -40 20 -15 16 -30 24 -40 20 -10 -4 -25 4 -39
20 -20 21 -30 24 -64 20 -33 -5 -42 -2 -53 16 -7 12 -23 21 -38 21 -17 0 -39
15 -68 45 -28 29 -48 42 -58 38 -10 -4 -25 4 -40 20 -15 16 -30 24 -40 20 -10
-4 -25 4 -41 21 -15 17 -31 25 -42 21 -11 -3 -25 4 -39 20 -19 21 -28 24 -60
19 -31 -5 -40 -2 -59 20 -14 16 -28 23 -39 19 -10 -4 -25 4 -40 21 -21 22 -31
25 -62 20 -31 -5 -40 -2 -59 20 -18 21 -28 24 -58 19 -31 -5 -41 -2 -61 20
-20 22 -30 25 -60 20 -30 -5 -40 -2 -60 20 -15 16 -30 24 -40 20 -10 -4 -25 4
-40 20 -21 23 -28 25 -80 20 -51 -6 -58 -4 -81 21 -16 18 -31 25 -43 21 -13
-4 -23 1 -32 14 -8 13 -23 21 -41 21 -20 0 -30 6 -34 20 -7 27 -35 25 -52 -2
l-14 -22 -18 23 -19 23 -425 0 -426 1 -16 -23 c-15 -21 -20 -22 -115 -17 -96
5 -99 5 -122 -20 -15 -16 -30 -24 -40 -20 -10 4 -25 -4 -40 -20 -20 -22 -30
-25 -61 -20 -30 5 -40 2 -57 -19 -17 -19 -31 -24 -67 -24 -36 0 -49 -5 -59
-21 -11 -17 -22 -20 -70 -19 -80 2 -80 2 -87 -19 -9 -31 -659 -31 -678 0 -9
14 -23 19 -59 19 -37 0 -51 5 -60 20 -8 12 -24 20 -39 20 -15 0 -34 10 -47 25
-14 15 -27 22 -38 18 -10 -4 -25 4 -40 20 -15 16 -30 24 -43 20 -13 -3 -24 2
-33 16 -8 13 -23 21 -39 21 -18 0 -36 12 -60 40 -39 46 -56 50 -65 15 l-6 -26
-34 38 c-18 21 -33 45 -34 54 0 10 -29 45 -65 80 -47 45 -65 70 -65 88 0 15
-8 31 -20 39 -12 7 -20 23 -20 40 0 16 -8 32 -20 40 -12 7 -20 23 -20 40 0 16
-8 32 -20 40 -18 11 -20 23 -20 153 l0 142 95 95 c64 64 99 92 110 88 9 -3 24
4 38 20 19 22 28 25 59 20 32 -5 41 -2 59 18 l22 25 242 0 243 -1 21 -24 c19
-22 27 -24 79 -19 53 5 60 3 80 -20 19 -21 28 -24 60 -19 31 5 40 2 59 -20 14
-16 28 -23 39 -19 10 4 25 -4 40 -20 15 -16 30 -24 40 -20 10 4 25 -4 41 -21
15 -17 31 -25 42 -21 11 3 25 -4 40 -20 14 -17 28 -24 40 -20 11 3 25 -4 39
-20 14 -15 27 -22 38 -18 10 4 25 -4 40 -20 15 -16 30 -24 40 -20 10 4 25 -4
40 -20 15 -16 30 -24 40 -20 10 4 25 -4 40 -20 15 -16 30 -24 40 -20 10 4 31
-10 60 -40 29 -30 50 -44 60 -40 10 4 25 -4 40 -20 15 -16 30 -24 40 -20 10 4
25 -4 40 -20 15 -16 30 -24 40 -20 10 4 25 -4 40 -20 15 -16 30 -24 40 -20 10
4 25 -4 40 -20 15 -16 30 -24 40 -20 10 4 25 -4 40 -21 21 -22 31 -25 62 -20
31 5 40 2 59 -20 14 -16 28 -23 39 -19 10 4 25 -4 40 -21 21 -22 31 -25 62
-20 31 5 40 2 59 -20 14 -16 28 -23 39 -19 10 4 25 -4 40 -21 21 -22 31 -25
62 -20 31 5 40 2 60 -20 20 -24 27 -26 80 -21 53 5 60 3 80 -20 19 -22 28 -24
61 -19 33 5 41 3 53 -15 11 -18 22 -21 80 -21 57 0 70 -3 80 -20 18 -28 69
-27 87 2 l14 22 19 -24 20 -25 202 3 201 3 23 -25 c12 -14 29 -26 37 -26 8 0
25 12 37 26 l23 25 202 -3 c203 -3 203 -3 219 21 16 22 21 23 96 17 75 -5 80
-4 100 19 20 23 27 25 80 20 53 -5 60 -3 80 21 20 22 29 25 60 20 32 -5 41 -2
60 20 20 22 29 25 60 20 31 -5 41 -2 62 20 15 17 30 25 40 21 10 -4 25 4 40
20 15 16 30 24 40 20 10 -4 25 4 40 20 15 16 30 24 40 20 10 -4 31 10 60 40
29 29 50 44 60 40 10 -4 31 10 60 40 28 29 50 44 60 40 20 -8 287 258 279 279
-3 10 18 38 60 80 44 43 64 70 60 80 -4 10 11 31 40 60 29 28 44 50 40 60 -3
8 8 28 28 48 30 31 37 34 93 34 34 -1 67 -5 74 -11z m52 -2964 c0 -26 -16 -47
-29 -39 -20 13 -13 56 9 56 12 0 20 -7 20 -17z"/>
<path d="M2725 16236 c-98 -51 -275 -244 -396 -431 -14 -22 -48 -73 -75 -113
-57 -85 -88 -137 -104 -171 -6 -13 -35 -66 -65 -117 -30 -51 -55 -97 -55 -102
0 -5 -9 -20 -19 -34 -11 -13 -23 -37 -27 -52 -3 -15 -12 -30 -19 -33 -7 -2
-16 -16 -20 -31 -4 -15 -12 -34 -20 -42 -7 -8 -16 -26 -20 -40 -4 -14 -16 -36
-26 -49 -11 -13 -19 -29 -19 -35 0 -6 -13 -36 -30 -66 -16 -30 -33 -62 -36
-70 -11 -25 -43 -98 -63 -142 -11 -24 -23 -56 -27 -73 -4 -16 -12 -37 -18 -45
-15 -19 -53 -115 -62 -155 -3 -16 -12 -39 -19 -50 -6 -11 -24 -60 -39 -110
-15 -49 -32 -101 -38 -115 -19 -46 -48 -137 -59 -191 -6 -30 -16 -60 -21 -66
-6 -7 -16 -41 -23 -75 -8 -35 -21 -85 -30 -113 -29 -91 -70 -252 -90 -355 -7
-36 -17 -85 -24 -110 -15 -63 -41 -190 -56 -285 -7 -44 -18 -98 -23 -120 -6
-22 -14 -76 -18 -120 -4 -44 -10 -87 -14 -95 -5 -8 -13 -60 -19 -115 -6 -55
-18 -143 -26 -195 -8 -52 -17 -138 -20 -190 -3 -52 -12 -149 -20 -215 -39
-336 -17 -1168 36 -1385 6 -25 17 -85 24 -135 7 -49 21 -117 30 -150 8 -33 25
-96 36 -140 12 -44 27 -93 34 -110 7 -16 22 -57 35 -90 13 -33 31 -74 41 -91
11 -17 19 -38 19 -47 0 -24 101 -137 148 -164 71 -42 136 -20 192 64 17 24 30
47 30 50 0 4 6 14 13 22 17 20 45 101 58 166 5 28 16 77 24 110 13 55 21 117
55 450 7 61 16 125 22 143 5 18 16 67 23 110 18 99 42 190 59 222 8 14 17 45
21 70 4 25 13 54 20 66 7 11 18 36 24 55 22 74 49 141 60 152 6 6 11 15 11 20
0 10 86 185 131 267 66 118 238 359 343 480 94 107 240 260 249 260 4 0 42 33
83 73 42 39 83 76 92 81 9 5 28 20 42 34 14 14 41 35 60 47 19 12 47 33 61 47
14 13 63 50 110 81 46 31 104 71 128 87 47 33 175 111 244 148 23 12 60 34 82
47 22 14 47 28 55 31 8 3 22 10 30 15 8 5 26 14 40 20 14 6 32 16 40 24 8 7
26 16 40 20 24 7 128 57 270 131 36 18 72 34 81 34 9 0 22 7 29 15 7 8 17 15
23 15 8 0 69 27 139 61 9 5 58 24 108 44 50 20 99 40 108 44 9 5 51 21 92 36
41 15 91 33 110 41 19 8 53 18 75 23 22 6 72 21 110 35 97 35 279 74 500 108
234 35 712 8 815 -46 14 -7 46 -16 71 -19 26 -4 62 -13 80 -21 19 -8 75 -26
124 -41 50 -14 104 -31 120 -37 169 -59 473 -88 670 -65 143 17 288 47 350 71
22 8 46 15 54 16 14 0 90 34 221 98 67 33 228 132 260 159 24 22 65 56 111 93
62 51 118 107 175 175 27 32 55 66 62 75 38 44 91 120 110 155 38 73 72 152
72 169 0 9 6 27 14 39 17 27 46 206 46 285 0 125 -28 243 -95 396 -25 58 -88
143 -168 224 -38 40 -211 156 -247 167 -14 4 -34 13 -45 19 -25 16 -131 48
-248 75 -114 27 -412 30 -534 5 -154 -30 -294 -67 -330 -85 -21 -11 -43 -19
-50 -19 -7 0 -29 -9 -50 -19 -21 -10 -95 -47 -165 -81 -70 -35 -133 -69 -139
-76 -6 -8 -16 -14 -22 -14 -5 0 -82 -42 -170 -92 -208 -121 -237 -137 -392
-215 -71 -35 -142 -71 -157 -79 -14 -8 -32 -14 -39 -14 -6 0 -35 -11 -63 -24
-28 -14 -78 -34 -111 -46 -33 -12 -73 -28 -90 -36 -16 -7 -68 -25 -115 -40
-47 -14 -101 -32 -120 -39 -19 -7 -89 -25 -155 -40 -66 -14 -140 -32 -165 -40
-25 -8 -70 -17 -100 -20 -30 -4 -120 -16 -199 -27 -258 -36 -665 -12 -876 52
-61 18 -147 42 -222 60 -23 6 -45 15 -48 20 -3 6 -13 10 -22 10 -21 0 -126 41
-233 92 -73 34 -112 57 -245 148 -88 61 -219 209 -267 305 -94 185 -103 235
-104 560 0 244 -4 320 -15 329 -67 49 -138 57 -204 22z m-15 -1137 c0 -13 9
-30 20 -37 12 -7 20 -23 20 -40 0 -17 8 -32 21 -40 13 -9 19 -20 16 -32 -4
-14 39 -63 171 -195 186 -186 193 -191 232 -142 17 20 17 20 48 -14 l31 -34
-20 -17 c-27 -23 -18 -52 14 -44 17 4 32 -5 66 -40 29 -30 48 -43 60 -39 11 3
26 -4 40 -20 14 -17 28 -24 40 -20 11 3 25 -4 39 -20 19 -21 28 -24 60 -19 31
5 40 2 59 -20 14 -16 28 -23 39 -19 10 4 25 -4 40 -20 21 -23 28 -25 80 -20
51 6 58 4 80 -21 21 -22 31 -25 62 -20 31 5 40 2 59 -20 21 -24 26 -25 101
-20 75 6 80 5 96 -17 16 -24 17 -24 200 -21 181 3 184 3 200 -19 23 -34 130
-36 159 -3 20 23 21 24 264 23 240 -1 245 -1 260 20 21 31 65 25 77 -11 14
-41 -11 -69 -35 -39 -22 27 -45 27 -52 1 -4 -16 -14 -20 -51 -20 -41 0 -50 -5
-85 -41 -39 -42 -40 -42 -95 -36 -52 5 -59 3 -80 -20 -15 -16 -30 -24 -40 -20
-10 4 -25 -4 -40 -20 -20 -22 -30 -25 -60 -20 -30 5 -40 2 -60 -20 -20 -22
-30 -25 -61 -20 -30 5 -40 2 -58 -19 -19 -22 -28 -25 -59 -20 -31 5 -41 2 -62
-20 -15 -17 -30 -25 -40 -21 -11 4 -25 -3 -39 -19 -19 -22 -28 -25 -59 -20
-31 5 -41 2 -62 -20 -15 -17 -30 -25 -40 -21 -10 4 -25 -4 -40 -20 -15 -16
-30 -24 -40 -20 -10 4 -25 -4 -40 -20 -15 -16 -30 -24 -40 -20 -10 4 -30 -9
-58 -38 -29 -30 -51 -45 -68 -45 -14 0 -31 -9 -38 -20 -7 -12 -23 -20 -40 -20
-16 0 -32 -8 -40 -20 -7 -12 -23 -20 -40 -20 -16 0 -32 -8 -40 -20 -7 -12 -23
-20 -40 -20 -16 0 -32 -8 -40 -20 -7 -12 -23 -20 -40 -20 -16 0 -32 -8 -40
-20 -7 -12 -23 -20 -40 -20 -17 0 -32 -8 -40 -21 -9 -14 -20 -19 -33 -16 -14
4 -32 -7 -62 -39 -28 -29 -50 -44 -67 -44 -15 0 -31 -9 -38 -21 -9 -14 -20
-19 -33 -16 -14 4 -32 -8 -64 -40 -28 -30 -49 -44 -59 -40 -10 4 -31 -10 -60
-40 -28 -28 -50 -43 -60 -40 -21 8 -116 -88 -116 -117 0 -28 -53 -81 -74 -73
-9 4 -16 11 -16 17 0 21 -24 8 -58 -31 -24 -28 -41 -39 -54 -36 -13 4 -41 -17
-101 -79 -63 -65 -88 -84 -109 -84 -24 0 -28 -4 -28 -27 0 -29 -231 -270 -273
-286 -23 -8 -13 -27 14 -27 25 0 35 -25 21 -53 -5 -12 -13 -30 -16 -40 -10
-30 -30 -14 -41 32 -13 52 -29 57 -33 11 -3 -27 -17 -48 -62 -93 -39 -38 -57
-63 -53 -73 4 -10 -9 -30 -36 -55 -29 -28 -41 -47 -41 -67 0 -15 -9 -35 -20
-45 -11 -9 -20 -25 -20 -35 0 -10 -18 -34 -40 -55 -26 -24 -40 -45 -40 -62 0
-14 -9 -30 -20 -37 -12 -8 -20 -24 -20 -40 0 -17 -8 -33 -20 -40 -12 -8 -20
-24 -20 -40 0 -17 -8 -33 -20 -40 -12 -8 -20 -24 -20 -40 0 -17 -8 -33 -20
-40 -12 -8 -20 -24 -20 -40 0 -17 -8 -33 -20 -40 -12 -8 -20 -24 -20 -40 0
-17 -8 -33 -20 -40 -11 -7 -20 -24 -20 -37 0 -28 -58 -91 -77 -84 -11 4 -13
108 -12 552 0 534 5 641 28 649 7 2 11 41 11 113 0 98 2 110 20 121 17 11 20
24 20 99 0 85 13 149 31 149 5 0 9 22 9 49 0 52 16 111 31 111 5 0 9 31 9 70
0 59 3 72 20 82 17 11 20 24 20 99 0 85 13 149 31 149 5 0 9 22 9 49 0 52 16
111 31 111 5 0 9 22 9 49 0 51 14 101 31 112 5 3 11 39 13 80 4 87 15 119 50
147 15 12 26 30 26 44 0 33 20 88 31 88 5 0 9 13 9 29 0 35 19 91 31 91 5 0 9
13 9 29 0 18 8 35 19 43 11 8 21 32 25 60 4 26 14 54 22 62 8 8 14 26 14 40 0
15 8 31 20 38 12 8 20 24 20 40 0 17 8 33 20 40 12 8 20 24 20 40 0 17 8 33
20 40 12 8 20 24 20 40 0 17 8 33 20 40 12 8 20 24 20 40 0 17 8 33 20 40 12
8 20 24 20 40 0 17 8 33 20 40 12 8 20 24 20 40 0 17 8 33 20 40 11 7 20 24
20 38 0 17 15 39 44 67 30 29 43 48 39 61 -5 22 21 47 42 38 9 -3 24 4 37 19
l21 25 74 -74 c50 -50 73 -81 73 -97z m5399 25 c18 -21 27 -24 57 -18 33 6 39
3 80 -39 28 -29 50 -44 59 -40 10 3 36 -14 70 -48 l55 -54 0 -200 0 -200 -45
-43 c-28 -27 -42 -48 -38 -57 8 -21 -261 -290 -282 -282 -9 4 -31 -11 -59 -40
-29 -30 -50 -44 -60 -40 -10 4 -25 -4 -40 -20 -15 -16 -30 -24 -40 -20 -10 4
-25 -4 -40 -20 -15 -16 -30 -24 -40 -20 -11 4 -24 -3 -38 -18 -17 -20 -31 -25
-67 -25 -35 0 -49 -5 -58 -20 -12 -18 -25 -19 -298 -19 -279 1 -286 0 -303
-20 -25 -32 -82 -12 -82 29 0 32 -18 42 -61 33 -25 -5 -35 -1 -55 20 -20 22
-30 25 -60 20 -30 -5 -40 -2 -60 20 -20 22 -30 25 -60 20 -30 -5 -40 -2 -60
20 -20 22 -30 25 -60 20 -30 -5 -40 -2 -60 20 -23 25 -26 25 -122 20 -94 -5
-100 -4 -115 17 -15 22 -16 22 -362 22 l-346 1 -16 -23 -16 -23 -17 21 c-9 11
-30 22 -46 24 -42 4 -41 42 1 46 16 2 35 13 43 23 9 13 20 18 32 14 13 -4 26
2 42 20 20 23 27 25 80 20 53 -5 60 -3 80 21 20 22 29 25 60 20 32 -5 41 -2
60 20 20 22 29 25 60 20 31 -5 41 -2 62 20 15 17 30 25 40 21 10 -4 25 4 40
20 15 16 30 24 40 20 11 -4 25 3 39 19 19 22 28 25 59 20 31 -5 41 -2 62 20
15 17 30 25 40 21 10 -4 25 4 40 20 15 16 30 24 40 20 10 -4 25 4 40 20 15 16
30 24 40 20 10 -4 25 4 40 20 15 16 30 24 40 20 10 -4 25 4 40 20 15 16 30 24
40 20 10 -4 25 4 40 20 15 16 30 24 40 20 10 -4 25 4 40 20 15 16 30 24 40 20
10 -4 31 10 60 40 29 30 50 44 60 40 10 -4 25 4 40 20 15 16 30 24 40 20 10
-4 25 4 40 20 15 16 30 24 40 20 10 -4 25 4 40 20 15 16 30 24 40 20 10 -4 25
4 40 20 15 16 30 24 40 20 10 -4 25 4 40 20 15 16 30 24 40 20 11 -4 25 3 39
19 19 22 28 25 59 20 32 -5 41 -2 60 19 20 23 27 25 80 20 52 -5 60 -3 79 19
l21 25 243 0 243 0 21 -25z m-5189 -179 c0 -45 -28 -69 -59 -50 -24 14 -10 77
19 88 34 13 40 7 40 -38z m-276 -2326 c11 -10 -11 -39 -30 -39 -8 0 -20 -16
-29 -36 -18 -44 -39 -40 -43 9 -2 27 1 37 11 37 7 0 19 12 25 26 12 25 41 27
66 3z"/>
<path d="M9095 13420 c-181 -29 -394 -86 -500 -135 -17 -7 -41 -19 -55 -24
-79 -34 -221 -121 -363 -222 -176 -126 -405 -405 -511 -624 -26 -55 -54 -111
-61 -125 -7 -14 -15 -38 -19 -55 -4 -16 -15 -52 -26 -80 -33 -88 -85 -345 -96
-470 -4 -44 -11 -91 -16 -105 -5 -14 -16 -92 -24 -175 -20 -221 -72 -529 -99
-591 -8 -18 -17 -49 -21 -70 -4 -22 -13 -48 -20 -59 -8 -11 -14 -29 -14 -40 0
-11 -12 -42 -25 -70 -14 -27 -25 -58 -25 -67 0 -9 -5 -20 -10 -23 -6 -3 -15
-26 -21 -50 -6 -25 -17 -50 -25 -56 -8 -6 -14 -17 -14 -24 0 -17 -140 -289
-151 -293 -5 -2 -9 -9 -9 -15 0 -11 -40 -77 -106 -178 -13 -19 -24 -38 -24
-42 0 -7 -53 -85 -92 -137 -11 -14 -48 -63 -84 -109 -35 -46 -64 -87 -64 -90
0 -3 -18 -26 -40 -51 -61 -68 -64 -72 -96 -115 -16 -22 -38 -49 -49 -61 -11
-11 -58 -63 -105 -114 -47 -52 -94 -104 -106 -115 -261 -252 -459 -422 -606
-520 -29 -19 -71 -48 -93 -64 -46 -33 -191 -118 -283 -167 -35 -18 -69 -37
-75 -42 -7 -6 -24 -13 -39 -17 -15 -4 -32 -13 -39 -21 -6 -8 -19 -14 -28 -14
-9 0 -38 -11 -66 -25 -27 -13 -57 -25 -65 -25 -8 0 -28 -7 -43 -15 -15 -8 -45
-17 -65 -21 -20 -4 -41 -10 -47 -14 -5 -4 -44 -13 -85 -20 -41 -7 -91 -18
-110 -26 -96 -37 -581 -82 -750 -70 -47 4 -130 9 -185 12 -144 7 -376 49 -550
99 -27 8 -69 19 -92 25 -23 6 -44 14 -47 19 -3 5 -24 11 -47 15 -23 4 -51 13
-62 21 -12 8 -28 15 -37 15 -8 0 -32 9 -53 20 -20 11 -42 20 -48 20 -26 0
-288 131 -484 242 -202 115 -423 117 -470 4 -33 -78 -28 -224 12 -351 42 -135
161 -419 203 -485 5 -8 32 -62 61 -120 28 -58 71 -136 95 -175 24 -38 50 -81
57 -95 22 -46 210 -323 297 -439 47 -63 92 -124 100 -135 8 -12 49 -65 92
-119 43 -54 78 -101 78 -105 0 -4 8 -15 17 -23 10 -9 34 -36 53 -59 37 -45 94
-113 120 -140 8 -9 47 -52 85 -95 39 -44 95 -106 125 -139 86 -96 371 -387
410 -419 19 -16 71 -63 115 -105 100 -96 226 -209 285 -258 25 -20 80 -69 124
-108 43 -39 88 -79 100 -89 90 -76 233 -191 280 -227 31 -23 56 -45 56 -49 0
-4 15 -15 33 -26 17 -10 57 -37 87 -60 30 -23 111 -83 180 -134 69 -51 132
-97 140 -104 19 -15 326 -223 380 -257 35 -22 61 -40 152 -102 15 -10 31 -18
35 -18 4 0 34 -18 66 -40 31 -22 60 -40 64 -40 3 0 31 -17 62 -37 60 -41 102
-65 140 -82 12 -6 46 -26 75 -45 28 -18 69 -42 91 -53 55 -27 143 -75 185
-101 36 -23 468 -238 580 -290 36 -17 104 -48 152 -71 48 -23 91 -41 95 -41 4
0 25 -9 47 -19 88 -43 442 -178 626 -241 52 -18 111 -38 130 -45 69 -26 136
-46 180 -56 24 -5 71 -18 105 -28 156 -49 197 -61 216 -61 11 0 30 -5 42 -12
12 -6 49 -17 82 -24 62 -12 167 -36 245 -56 25 -6 86 -17 135 -24 50 -7 149
-25 221 -39 321 -61 1031 -106 1194 -75 119 23 217 75 264 138 42 59 47 194 9
234 -13 14 -23 29 -23 35 0 20 -131 132 -199 170 -36 20 -154 81 -261 136
-107 54 -231 118 -275 142 -44 23 -129 68 -190 99 -60 31 -127 67 -147 79 -20
12 -63 37 -95 56 -32 19 -76 49 -98 66 -22 17 -60 44 -85 60 -24 17 -51 36
-60 43 -8 7 -62 52 -120 99 -118 96 -285 258 -327 317 -16 21 -42 55 -60 75
-60 70 -155 207 -201 290 -12 22 -27 41 -32 41 -6 0 -10 7 -10 15 0 9 -18 47
-39 85 -22 38 -42 79 -46 92 -4 13 -16 37 -26 54 -11 17 -19 38 -19 46 0 9 -7
21 -15 28 -8 7 -15 19 -15 28 0 9 -9 34 -19 56 -11 23 -34 83 -51 135 -17 52
-34 100 -38 105 -4 6 -12 34 -18 61 -6 28 -16 64 -22 80 -29 79 -62 199 -62
226 0 17 -5 39 -11 50 -13 26 -46 146 -64 234 -7 39 -18 88 -24 110 -24 94
-50 225 -56 285 -3 36 -12 90 -20 120 -75 296 -87 1163 -21 1545 28 161 46
251 57 276 6 15 16 53 23 85 14 59 22 84 57 179 11 28 19 57 19 65 0 8 12 38
25 65 14 28 25 56 25 63 0 14 118 257 155 317 13 22 28 49 33 60 12 24 81 128
141 210 53 73 280 298 342 340 24 16 64 46 89 66 25 20 72 53 105 74 33 21 90
57 126 81 36 24 69 44 74 44 5 0 16 6 24 14 9 8 57 36 106 62 50 26 110 60
135 75 25 16 59 35 75 44 17 9 46 26 66 38 20 12 78 46 128 75 50 30 97 59
104 66 6 6 33 24 59 39 26 15 53 33 60 40 7 6 39 30 72 52 65 45 90 66 223
197 127 123 274 321 344 463 16 33 34 67 38 75 21 36 61 123 61 132 0 5 6 24
14 41 42 97 92 287 106 403 6 49 15 109 20 134 12 59 13 306 1 348 -5 18 -15
76 -21 130 -6 53 -17 117 -25 142 -8 25 -20 64 -25 87 -6 23 -15 45 -20 48 -6
3 -10 13 -10 22 0 14 -38 97 -80 173 -90 164 -316 368 -520 469 -36 18 -76 39
-90 46 -14 7 -42 16 -64 19 -21 4 -52 13 -70 21 -119 51 -496 82 -671 55z
m534 -536 c18 -20 27 -23 59 -18 31 5 40 2 59 -20 14 -16 28 -23 38 -19 11 4
31 -10 61 -40 29 -30 50 -44 60 -40 10 4 25 -4 40 -20 15 -16 30 -24 40 -20
23 9 124 -94 124 -127 0 -14 9 -31 20 -38 12 -7 20 -23 20 -40 0 -16 8 -32 20
-39 30 -20 30 -896 0 -916 -15 -9 -20 -23 -20 -59 0 -37 -5 -51 -20 -60 -12
-8 -20 -24 -20 -40 0 -17 -8 -33 -20 -40 -12 -8 -20 -24 -20 -40 0 -17 -8 -33
-20 -40 -11 -7 -20 -24 -20 -38 0 -19 -23 -47 -85 -108 -47 -46 -83 -88 -80
-93 12 -19 -16 -49 -45 -49 -26 0 -30 -4 -30 -28 0 -35 -99 -138 -124 -129
-10 4 -31 -10 -60 -40 -29 -29 -50 -44 -60 -40 -10 4 -37 -16 -79 -58 -44 -45
-71 -65 -88 -65 -14 0 -30 -9 -37 -21 -9 -14 -20 -19 -33 -16 -14 4 -32 -8
-64 -40 -28 -30 -49 -44 -59 -40 -10 4 -31 -9 -58 -38 -29 -30 -51 -45 -68
-45 -15 0 -31 -9 -38 -21 -9 -14 -20 -19 -33 -16 -13 4 -28 -4 -43 -20 -15
-16 -30 -24 -40 -20 -10 4 -30 -9 -58 -38 -29 -30 -51 -45 -68 -45 -15 0 -31
-9 -38 -21 -9 -14 -20 -19 -33 -16 -15 4 -36 -12 -82 -59 -42 -45 -68 -64 -80
-60 -12 3 -42 -21 -100 -80 -56 -58 -88 -83 -99 -80 -25 6 -248 -218 -241
-242 3 -12 -34 -54 -121 -139 -94 -93 -123 -127 -119 -142 3 -13 -2 -24 -16
-33 -13 -8 -21 -23 -21 -40 0 -17 -8 -33 -20 -40 -12 -8 -20 -24 -20 -40 0
-17 -8 -33 -20 -40 -12 -8 -20 -24 -20 -40 0 -17 -8 -31 -20 -38 -20 -11 -28
-40 -11 -40 18 0 19 -29 2 -52 -10 -13 -21 -35 -25 -50 -5 -23 -12 -28 -36
-28 -27 0 -30 -3 -30 -30 0 -19 -7 -34 -20 -42 -12 -8 -20 -24 -20 -40 0 -17
-8 -33 -20 -40 -12 -8 -20 -24 -20 -39 0 -15 -10 -34 -25 -47 -19 -17 -23 -28
-19 -50 7 -33 -12 -112 -26 -112 -6 0 -10 -22 -10 -50 0 -39 -4 -53 -20 -62
-15 -9 -20 -24 -20 -53 0 -49 -18 -115 -30 -115 -6 0 -10 -31 -10 -69 0 -60
-3 -72 -22 -85 l-21 -15 -1 -846 c-1 -643 2 -847 11 -853 22 -14 33 -63 33
-153 0 -49 4 -89 9 -89 18 0 31 -64 31 -149 0 -75 3 -88 20 -99 17 -10 20 -23
20 -82 0 -39 4 -70 9 -70 14 0 31 -59 31 -109 0 -35 5 -49 20 -59 16 -9 20
-23 20 -62 0 -28 4 -50 9 -50 14 0 31 -59 31 -109 0 -35 5 -49 20 -59 15 -9
20 -23 20 -60 0 -36 5 -50 20 -60 15 -9 20 -23 20 -60 0 -36 5 -50 20 -60 15
-9 20 -23 20 -60 0 -36 5 -50 20 -60 12 -7 20 -23 20 -40 0 -16 8 -32 20 -40
15 -9 20 -23 20 -60 0 -36 5 -50 20 -60 12 -7 20 -23 20 -40 0 -16 8 -32 20
-40 12 -7 20 -23 20 -40 0 -16 8 -32 20 -40 12 -7 20 -23 20 -40 0 -16 8 -32
20 -40 11 -7 20 -23 20 -37 0 -17 14 -37 40 -61 27 -25 40 -45 40 -63 0 -16 8
-31 21 -39 14 -9 19 -20 16 -33 -4 -14 8 -32 40 -64 30 -28 44 -49 40 -59 -4
-10 10 -31 40 -60 30 -29 44 -50 40 -60 -4 -10 9 -31 38 -58 26 -25 45 -52 45
-64 0 -30 415 -445 436 -437 10 4 37 -16 76 -57 61 -62 62 -63 119 -64 67 -1
95 -19 65 -41 -25 -19 -14 -49 15 -40 16 5 35 -8 95 -68 107 -107 101 -137
-31 -137 -74 0 -83 2 -103 25 -20 23 -26 24 -99 19 -75 -6 -79 -5 -101 20 -20
24 -27 26 -80 21 -53 -5 -60 -3 -80 20 -20 23 -27 25 -80 20 -53 -5 -60 -3
-79 19 -21 24 -25 24 -121 19 -94 -5 -101 -4 -114 16 -10 16 -23 21 -59 21
-36 0 -50 5 -66 24 -18 20 -28 23 -61 19 -33 -4 -42 -2 -56 18 -14 21 -23 23
-81 21 -56 -3 -66 -1 -77 17 -8 13 -23 21 -39 21 -15 0 -34 10 -47 25 -14 15
-27 22 -38 18 -10 -4 -25 4 -40 20 -20 22 -30 25 -60 20 -30 -5 -40 -2 -59 20
-20 21 -30 24 -64 20 -33 -5 -42 -2 -53 16 -8 12 -23 21 -39 21 -14 0 -34 10
-46 24 -18 20 -28 23 -61 19 -34 -5 -43 -2 -54 16 -8 12 -23 21 -39 21 -15 0
-34 10 -47 25 -14 15 -27 22 -38 18 -10 -4 -25 4 -40 20 -15 16 -30 24 -40 20
-10 -4 -25 4 -40 20 -15 16 -30 24 -40 20 -10 -4 -25 4 -40 20 -15 16 -30 24
-40 20 -10 -4 -25 4 -39 20 -20 21 -30 24 -64 20 -33 -5 -42 -2 -53 16 -8 13
-23 21 -40 21 -17 0 -33 8 -40 20 -8 12 -24 20 -40 20 -17 0 -33 8 -40 20 -7
11 -24 20 -38 20 -17 0 -39 15 -68 45 -28 29 -48 42 -58 38 -10 -4 -25 4 -40
20 -15 16 -30 24 -43 20 -13 -3 -24 2 -33 16 -8 13 -23 21 -40 21 -17 0 -33 8
-40 20 -8 12 -24 20 -40 20 -17 0 -33 8 -40 20 -7 11 -24 20 -38 20 -17 0 -39
15 -68 45 -28 29 -48 42 -58 38 -10 -4 -25 4 -40 20 -15 16 -30 24 -40 20 -10
-4 -31 10 -60 40 -29 30 -50 44 -60 40 -10 -4 -31 11 -60 40 -29 30 -50 44
-60 40 -10 -4 -25 4 -40 20 -15 16 -30 24 -40 20 -10 -4 -31 10 -60 40 -29 30
-50 44 -60 40 -10 -4 -31 11 -60 40 -28 30 -50 44 -60 40 -10 -4 -37 17 -80
60 -43 44 -70 64 -80 60 -10 -4 -31 11 -59 40 -29 29 -51 44 -62 41 -13 -3
-49 27 -121 100 -69 71 -107 103 -118 99 -10 -4 -37 17 -79 60 -44 44 -71 64
-83 61 -12 -4 -48 26 -120 100 -69 71 -108 103 -118 99 -10 -4 -68 47 -180
160 -114 115 -170 164 -180 160 -25 -9 -164 134 -164 169 0 24 -4 28 -27 28
-35 0 -259 219 -250 244 8 21 -139 167 -159 159 -22 -8 -126 96 -120 120 3 12
-32 53 -120 140 -88 86 -124 127 -120 140 3 11 -12 33 -41 62 -30 28 -44 49
-40 59 4 11 -21 42 -79 98 -58 57 -83 88 -80 101 3 11 -17 38 -61 82 -44 42
-64 69 -60 79 4 11 -15 37 -58 78 -50 47 -65 69 -65 90 0 24 -4 28 -28 28 -33
0 -52 31 -52 83 0 21 -7 36 -20 45 -13 8 -20 23 -20 42 0 17 -4 30 -10 30 -27
0 -42 178 -17 199 11 8 19 5 35 -14 14 -15 27 -22 38 -18 10 4 25 -4 40 -21
21 -22 31 -25 62 -20 31 5 40 2 59 -20 14 -16 28 -23 39 -19 10 4 25 -4 40
-21 21 -22 31 -25 62 -20 31 5 40 2 60 -20 19 -22 28 -25 60 -20 31 5 40 2 59
-19 20 -24 27 -25 78 -20 51 5 59 4 80 -19 22 -24 28 -25 100 -20 72 4 78 3
100 -20 22 -24 24 -24 163 -20 134 3 140 3 155 -18 23 -34 501 -34 524 0 15
21 21 21 155 18 139 -4 141 -4 163 20 22 23 28 24 100 20 72 -5 78 -4 100 20
21 23 29 24 80 19 51 -5 58 -4 78 20 19 21 28 24 59 19 32 -5 41 -2 60 20 20
22 29 25 60 20 32 -5 41 -2 60 19 14 16 28 23 39 20 11 -4 27 4 42 21 16 17
31 25 41 21 10 -4 25 4 40 20 15 16 30 24 40 20 10 -4 25 4 40 20 15 16 30 24
40 20 10 -4 25 4 40 20 15 16 30 24 40 20 10 -4 25 4 40 20 15 16 30 24 40 20
11 -4 24 3 38 18 13 16 28 23 39 20 11 -4 37 15 82 61 43 44 71 65 81 61 10
-4 38 17 80 60 43 43 70 64 80 60 11 -4 49 28 118 99 70 71 108 103 120 100
25 -6 488 457 482 482 -4 12 28 49 100 119 73 72 103 108 100 120 -3 13 27 49
100 121 72 70 103 107 99 118 -4 10 10 31 40 59 32 32 44 50 40 64 -3 13 2 24
16 33 12 7 21 23 21 38 0 17 15 39 44 67 32 30 43 48 39 62 -3 13 2 24 16 33
13 8 21 23 21 40 0 17 8 33 20 40 11 7 20 24 20 38 0 17 15 39 44 67 32 30 43
48 39 62 -3 13 2 24 16 33 13 8 21 23 21 40 0 17 8 33 20 40 12 8 20 24 20 40
0 15 8 33 19 40 11 8 21 32 25 60 4 26 14 54 22 62 8 8 14 26 14 40 0 15 8 31
20 38 15 10 20 24 20 60 0 37 5 51 20 60 12 8 20 24 20 39 0 34 19 89 31 89 5
0 9 13 9 29 0 35 19 91 31 91 5 0 9 13 9 29 0 35 19 91 31 91 5 0 9 21 10 48
0 69 15 146 28 150 7 2 11 34 12 85 1 121 13 230 27 235 8 2 12 33 13 90 0
104 12 185 28 190 7 2 11 35 11 91 0 87 13 151 31 151 5 0 9 22 9 49 0 52 16
111 31 111 5 0 9 13 9 30 0 19 7 34 20 42 12 8 20 24 20 40 0 17 8 33 20 40
11 7 20 24 20 38 0 17 15 39 45 68 28 27 42 48 38 57 -8 21 261 290 282 282 9
-4 31 11 59 40 29 30 50 44 60 40 10 -4 25 4 40 20 15 16 30 24 40 20 11 -4
24 3 38 18 14 16 28 23 39 20 12 -4 26 3 41 20 20 23 28 26 60 21 32 -5 41 -2
60 20 20 22 29 25 60 20 32 -5 41 -2 59 18 l22 25 302 0 302 0 22 -25z m325
-1932 c-29 -45 -80 0 -54 48 l12 23 26 -27 c22 -21 25 -30 16 -44z m-6484
-4737 c0 -9 8 -19 18 -22 25 -9 31 -22 23 -51 -10 -37 -27 -38 -46 -3 -8 17
-29 38 -45 46 -46 24 -38 45 17 45 23 0 33 -5 33 -15z m320 -322 c0 -8 9 -17
21 -20 16 -5 19 -12 17 -42 -4 -48 -35 -57 -44 -11 -5 23 -15 34 -41 45 -39
16 -39 36 -2 46 31 7 49 1 49 -18z m4573 -1839 c40 -45 46 -68 21 -78 -29 -11
-44 -6 -50 19 -3 13 -15 27 -25 30 -21 7 -24 27 -8 56 13 25 17 24 62 -27z
m315 -326 c15 -15 16 -58 2 -58 -5 0 -10 5 -10 10 0 6 -11 15 -25 20 -25 9
-31 21 -18 33 10 11 38 8 51 -5z"/>
<path d="M13030 13424 c-48 -5 -230 -44 -255 -55 -11 -4 -40 -13 -65 -20 -25
-6 -56 -17 -70 -24 -34 -19 -138 -65 -144 -65 -3 0 -25 -14 -48 -30 -24 -17
-61 -43 -83 -57 -22 -15 -49 -35 -60 -45 -11 -10 -48 -43 -82 -74 -94 -84
-273 -338 -273 -387 0 -7 -7 -25 -15 -41 -28 -53 -64 -196 -75 -297 -6 -56
-15 -112 -21 -126 -12 -33 -12 -299 1 -343 6 -19 15 -73 20 -120 10 -88 50
-262 67 -296 6 -10 14 -37 18 -59 4 -22 13 -51 20 -65 7 -14 25 -54 40 -90 14
-36 30 -72 36 -80 5 -8 12 -22 16 -30 21 -49 107 -188 165 -270 154 -214 334
-381 593 -550 59 -38 352 -215 375 -226 8 -4 55 -30 103 -58 49 -28 114 -65
145 -82 138 -77 392 -253 497 -343 63 -55 265 -262 283 -290 9 -15 40 -59 69
-98 29 -40 53 -75 53 -79 0 -3 26 -51 59 -107 32 -56 62 -113 66 -127 4 -14
13 -32 19 -40 7 -8 27 -53 45 -99 18 -46 36 -91 41 -100 17 -34 49 -127 55
-161 4 -19 15 -57 25 -85 36 -101 50 -152 60 -224 6 -41 17 -94 25 -118 8 -24
15 -60 15 -81 0 -20 7 -68 15 -107 36 -176 36 -931 0 -1165 -8 -52 -17 -129
-21 -170 -4 -41 -11 -86 -16 -100 -5 -14 -16 -68 -23 -120 -17 -121 -52 -296
-64 -319 -5 -9 -14 -46 -19 -82 -12 -78 -39 -192 -58 -239 -7 -19 -18 -57 -23
-85 -5 -27 -20 -81 -32 -120 -12 -38 -29 -97 -39 -130 -9 -33 -21 -71 -27 -85
-5 -14 -23 -62 -38 -108 -15 -45 -36 -99 -46 -119 -11 -21 -19 -45 -19 -54 0
-9 -7 -22 -15 -29 -8 -7 -15 -19 -15 -27 0 -8 -9 -31 -19 -51 -11 -20 -41 -82
-68 -137 -26 -55 -54 -104 -60 -108 -7 -4 -13 -12 -13 -18 0 -5 -8 -22 -19
-37 -10 -15 -48 -72 -84 -127 -36 -55 -94 -134 -128 -175 -71 -85 -357 -370
-371 -370 -6 0 -34 -22 -63 -48 -56 -52 -200 -153 -305 -216 -135 -80 -185
-108 -300 -168 -52 -27 -106 -56 -120 -64 -14 -7 -37 -19 -51 -26 -55 -26
-327 -167 -409 -212 -47 -25 -96 -50 -110 -56 -47 -21 -128 -96 -171 -159 -42
-61 -44 -66 -44 -140 0 -124 68 -196 231 -247 79 -25 603 -25 761 -1 54 9 140
19 192 22 86 5 212 22 336 44 28 5 95 16 150 25 55 10 118 22 140 27 45 12
124 30 235 53 123 26 358 92 558 156 34 11 70 20 80 20 10 0 26 6 37 13 11 8
38 19 60 25 22 6 72 22 110 37 39 14 90 31 115 37 25 6 52 16 61 24 8 8 22 14
30 14 8 0 32 9 54 20 21 11 54 23 72 26 18 3 37 12 43 19 6 8 26 17 43 21 18
3 41 13 52 20 11 8 26 14 34 14 8 0 37 11 65 24 28 14 74 34 101 46 28 12 64
27 80 35 17 7 59 26 95 41 36 15 72 33 80 40 8 7 27 15 42 19 15 4 32 13 39
21 6 8 16 14 21 14 10 0 114 46 138 61 8 5 26 14 40 19 14 6 33 15 43 20 9 6
61 34 115 62 53 29 120 65 147 80 28 15 66 35 84 44 19 9 58 30 85 48 28 18
58 36 66 40 8 4 33 18 55 31 22 13 54 31 70 39 17 9 62 36 100 61 39 25 80 50
92 55 11 5 24 14 28 20 4 6 17 16 28 21 12 5 42 23 67 39 25 16 70 43 100 61
30 18 73 46 95 63 61 48 120 86 132 86 6 0 17 7 24 17 8 9 50 40 94 70 104 69
170 117 222 159 23 19 46 34 52 34 5 0 14 6 18 13 4 6 28 25 53 42 25 16 53
36 62 45 10 8 28 23 40 33 13 9 83 66 156 125 74 59 156 123 183 143 27 20 64
49 82 65 93 84 156 141 191 173 22 20 54 46 70 59 17 12 82 71 145 130 63 59
128 120 145 136 142 132 421 418 547 560 24 27 71 79 104 115 33 36 74 84 90
105 17 22 54 65 82 95 29 31 53 61 53 66 0 6 8 18 18 27 9 9 42 49 72 89 30
40 65 83 78 95 12 12 22 26 22 32 0 6 15 28 34 49 19 21 63 81 98 133 35 52
73 109 84 125 37 52 131 199 148 230 9 17 40 68 69 115 28 47 74 128 101 180
26 52 61 120 77 150 16 30 32 64 35 75 3 11 15 40 26 65 82 178 102 238 135
402 30 152 -5 289 -83 318 -32 13 -158 12 -204 0 -66 -17 -135 -43 -151 -57
-8 -7 -19 -13 -23 -13 -5 0 -54 -26 -110 -58 -55 -31 -128 -70 -161 -86 -33
-16 -90 -44 -128 -62 -37 -19 -73 -34 -80 -34 -6 0 -34 -12 -62 -25 -27 -14
-57 -25 -65 -25 -9 0 -25 -6 -36 -14 -11 -8 -38 -18 -60 -21 -21 -4 -45 -12
-52 -18 -19 -15 -293 -86 -393 -101 -47 -8 -110 -19 -140 -24 -30 -6 -97 -13
-149 -16 -52 -3 -138 -9 -190 -12 -196 -12 -537 21 -743 72 -54 13 -107 24
-119 24 -43 0 -357 111 -389 137 -8 7 -20 13 -25 13 -8 0 -91 37 -139 63 -78
41 -132 71 -145 81 -8 7 -26 18 -40 24 -26 13 -109 68 -145 96 -11 9 -60 46
-110 82 -113 84 -290 231 -376 315 -37 35 -91 87 -120 115 -93 89 -342 366
-365 405 -5 9 -24 34 -41 55 -18 22 -53 66 -78 99 -24 33 -51 67 -58 75 -31
36 -145 209 -207 315 -61 104 -64 109 -77 118 -6 4 -14 20 -18 36 -3 16 -12
35 -20 41 -7 6 -16 23 -20 37 -3 15 -15 38 -26 51 -10 14 -19 33 -19 42 0 10
-6 23 -14 29 -8 7 -18 25 -21 41 -3 16 -12 34 -20 40 -8 6 -17 24 -20 40 -3
16 -21 64 -39 107 -18 43 -36 92 -40 108 -4 17 -13 44 -21 60 -33 76 -77 261
-100 420 -7 50 -17 115 -23 145 -6 30 -14 101 -17 158 -4 57 -11 117 -16 135
-5 18 -16 87 -24 154 -8 67 -19 141 -24 165 -6 23 -18 75 -27 113 -9 39 -20
90 -25 115 -15 76 -101 287 -152 375 -167 288 -383 515 -631 665 -32 19 -73
45 -92 57 -19 13 -45 25 -59 29 -13 3 -29 12 -36 20 -6 8 -17 14 -23 14 -7 0
-29 9 -50 19 -21 11 -52 23 -69 26 -18 4 -41 13 -52 19 -22 14 -128 44 -275
77 -92 20 -413 35 -520 23z m520 -541 c17 -19 26 -22 58 -17 31 5 40 2 60 -20
19 -22 28 -25 60 -20 31 5 40 2 59 -20 14 -16 28 -23 39 -19 10 4 25 -4 40
-20 15 -16 30 -24 40 -20 10 4 25 -4 40 -20 15 -16 30 -24 40 -20 10 4 31 -10
60 -40 28 -29 50 -44 59 -41 23 9 325 -294 325 -326 0 -14 9 -31 20 -38 12 -7
20 -23 20 -40 0 -16 8 -32 20 -40 13 -8 20 -23 20 -42 0 -17 4 -30 9 -30 14 0
31 -59 31 -109 0 -35 5 -49 20 -59 17 -10 20 -23 20 -82 0 -39 4 -70 9 -70 18
0 31 -65 31 -151 0 -49 4 -89 9 -89 20 0 31 -69 31 -189 0 -115 2 -127 20
-139 18 -11 20 -23 20 -120 0 -96 2 -108 20 -120 17 -10 20 -23 20 -82 0 -39
4 -70 9 -70 14 0 31 -59 31 -109 0 -36 5 -49 21 -59 18 -11 20 -21 17 -77 -2
-58 0 -67 20 -81 13 -9 22 -26 22 -42 0 -16 8 -32 20 -40 12 -7 20 -23 20 -38
0 -14 6 -32 14 -40 8 -8 18 -36 22 -62 4 -28 14 -52 25 -60 11 -8 19 -25 19
-43 0 -25 4 -29 30 -29 32 0 50 -39 50 -111 0 -29 8 -45 34 -71 25 -25 36 -47
41 -82 6 -39 15 -55 46 -83 27 -24 39 -44 39 -62 0 -16 8 -31 21 -39 14 -9 19
-20 16 -33 -7 -26 56 -89 82 -82 21 5 71 -48 71 -76 0 -10 11 -28 25 -41 30
-28 31 -37 5 -45 -30 -9 -24 -26 21 -64 27 -24 39 -41 36 -53 -4 -13 15 -38
60 -83 45 -44 64 -69 59 -80 -4 -12 30 -51 120 -138 88 -85 124 -127 121 -139
-7 -24 538 -569 559 -561 10 3 38 -18 80 -60 43 -44 70 -64 80 -60 10 4 31
-11 60 -40 28 -30 50 -44 60 -40 10 4 37 -17 80 -60 43 -44 70 -64 80 -60 10
4 32 -11 61 -41 30 -31 51 -45 62 -41 11 3 25 -4 39 -20 14 -15 27 -22 38 -18
10 4 25 -4 40 -20 15 -16 30 -24 40 -20 10 4 25 -4 40 -20 15 -16 30 -24 40
-20 10 4 25 -4 40 -20 15 -16 30 -24 40 -20 10 4 25 -4 40 -21 21 -22 31 -25
62 -20 31 5 40 2 59 -20 14 -16 28 -23 39 -19 10 4 25 -4 40 -21 21 -22 31
-25 62 -20 31 5 40 2 59 -19 20 -24 27 -25 78 -20 52 5 59 4 81 -20 23 -25 28
-26 102 -21 72 5 78 4 98 -18 20 -24 23 -24 161 -20 135 3 141 3 156 -18 23
-33 541 -34 564 0 14 20 21 21 135 17 117 -4 121 -3 143 21 22 23 28 24 100
20 72 -5 78 -4 100 20 21 23 29 24 80 19 51 -5 58 -4 78 20 19 21 28 24 59 19
32 -5 41 -2 60 20 20 22 29 25 60 20 31 -5 41 -2 62 20 15 17 30 25 40 21 11
-4 25 3 39 19 19 22 28 25 59 20 32 -5 41 -2 60 19 16 19 31 25 63 25 67 0 88
-46 40 -88 -15 -14 -22 -27 -18 -38 4 -10 -4 -25 -20 -40 -16 -15 -24 -30 -20
-40 4 -10 -10 -31 -40 -59 -41 -41 -45 -48 -40 -82 4 -36 1 -41 -60 -100 -46
-44 -64 -68 -60 -81 3 -13 -9 -30 -36 -55 -27 -24 -41 -45 -41 -62 0 -14 -9
-30 -20 -37 -12 -8 -20 -24 -20 -38 0 -19 -18 -43 -64 -88 -44 -42 -63 -67
-60 -79 3 -13 -21 -43 -80 -100 -58 -57 -83 -88 -80 -100 4 -13 -31 -54 -120
-140 -87 -86 -123 -128 -120 -140 6 -25 -698 -728 -720 -720 -11 4 -79 -58
-218 -199 -143 -144 -208 -203 -220 -200 -24 6 -88 -58 -81 -82 7 -28 -22 -45
-62 -39 -33 5 -39 2 -98 -59 -42 -44 -68 -64 -80 -60 -11 3 -38 -17 -82 -61
-42 -43 -69 -64 -79 -60 -10 4 -38 -17 -80 -60 -43 -43 -70 -64 -80 -60 -10 4
-32 -10 -60 -40 -29 -30 -50 -44 -60 -40 -11 4 -36 -15 -78 -59 -43 -44 -69
-64 -81 -60 -11 3 -33 -11 -62 -41 -28 -30 -49 -44 -59 -40 -10 4 -25 -4 -40
-20 -15 -16 -30 -24 -40 -20 -10 4 -31 -10 -60 -40 -29 -29 -50 -44 -60 -40
-10 4 -31 -10 -60 -40 -29 -30 -50 -44 -60 -40 -10 4 -31 -9 -58 -38 -29 -30
-51 -45 -68 -45 -14 0 -31 -9 -38 -20 -7 -12 -23 -20 -40 -20 -16 0 -32 -8
-40 -20 -7 -12 -23 -20 -40 -20 -17 0 -32 -8 -40 -21 -9 -14 -20 -19 -33 -16
-14 4 -32 -7 -62 -39 -28 -29 -50 -44 -67 -44 -15 0 -31 -9 -38 -21 -9 -14
-20 -19 -33 -16 -13 4 -28 -4 -43 -20 -15 -16 -30 -24 -40 -20 -11 4 -24 -3
-38 -18 -13 -15 -32 -25 -47 -25 -15 0 -31 -8 -39 -20 -7 -12 -23 -20 -40 -20
-16 0 -32 -8 -40 -20 -7 -12 -23 -20 -40 -20 -16 0 -32 -8 -40 -20 -7 -12 -23
-20 -40 -20 -16 0 -32 -8 -40 -20 -7 -12 -23 -20 -40 -20 -16 0 -32 -8 -40
-20 -7 -12 -23 -20 -40 -20 -17 0 -32 -8 -40 -21 -11 -18 -20 -21 -53 -16 -34
4 -44 1 -64 -20 -14 -16 -29 -24 -39 -20 -10 4 -25 -4 -40 -20 -20 -22 -30
-25 -61 -20 -30 5 -40 2 -57 -19 -13 -14 -33 -24 -47 -24 -16 0 -31 -9 -39
-21 -11 -18 -20 -21 -54 -16 -33 4 -43 1 -61 -19 -12 -14 -32 -24 -46 -24 -16
0 -31 -9 -39 -21 -11 -18 -20 -21 -53 -16 -34 4 -44 1 -64 -20 -19 -22 -29
-25 -59 -20 -30 5 -40 2 -60 -20 -20 -22 -30 -25 -60 -20 -30 5 -40 2 -60 -20
-20 -22 -30 -25 -61 -20 -30 5 -40 2 -57 -19 -17 -19 -31 -24 -67 -24 -36 0
-49 -5 -59 -21 -13 -20 -20 -21 -114 -16 -96 5 -100 5 -121 -19 -19 -22 -26
-24 -79 -19 -53 5 -60 3 -80 -20 -20 -23 -27 -25 -80 -20 -53 5 -60 3 -80 -21
-22 -25 -26 -26 -101 -20 -73 5 -79 4 -99 -19 -35 -41 -132 -36 -175 8 l-31
32 54 54 c34 33 59 51 68 48 10 -4 39 17 80 60 43 43 70 64 80 60 10 -4 55 34
138 119 86 87 128 124 140 120 25 -6 208 178 201 202 -3 12 23 43 81 99 58 57
83 88 80 100 -4 12 16 38 60 80 45 44 63 68 59 81 -3 13 9 30 36 55 27 24 41
45 41 62 0 14 9 30 20 37 12 8 20 24 20 40 0 17 8 33 20 40 11 7 25 30 31 51
5 20 14 37 19 37 6 0 10 13 10 30 0 19 7 34 20 42 12 8 20 24 20 40 0 17 8 33
20 40 12 8 20 24 20 40 0 17 8 33 20 40 12 8 20 24 20 40 0 17 8 33 20 40 12
8 20 24 20 40 0 17 8 33 20 40 12 8 20 24 20 39 0 34 19 89 31 89 5 0 9 13 9
30 0 19 7 34 20 42 15 10 20 24 20 59 0 50 17 109 31 109 5 0 9 22 9 49 0 52
16 111 31 111 5 0 9 22 9 50 0 39 4 53 20 62 15 10 20 24 21 58 0 67 15 144
28 148 6 2 11 25 11 53 0 38 4 52 20 61 17 11 20 24 20 79 0 67 15 129 31 129
5 0 9 31 9 69 0 69 15 131 31 131 5 0 9 31 9 69 0 71 12 120 33 133 19 12 17
1576 -2 1587 -15 10 -29 81 -30 154 -1 26 -5 47 -10 47 -14 0 -31 59 -31 108
0 30 -5 49 -16 57 -10 7 -19 32 -22 63 -2 29 -8 52 -12 52 -11 0 -30 57 -30
89 0 15 -8 31 -20 39 -13 8 -20 23 -20 42 0 17 -4 30 -9 30 -12 0 -31 55 -31
89 0 15 -8 31 -20 39 -13 8 -20 23 -20 42 0 17 -4 30 -9 30 -12 0 -31 55 -31
89 0 15 -8 31 -20 39 -12 7 -20 23 -20 40 0 16 -8 32 -20 40 -11 7 -20 23 -20
37 0 17 -14 37 -40 61 -27 25 -40 45 -40 63 0 16 -8 31 -21 39 -14 9 -19 20
-16 33 4 14 -8 32 -40 64 -29 28 -44 49 -40 59 4 10 -16 37 -60 80 -41 41 -63
70 -60 80 8 21 -218 245 -241 240 -11 -3 -44 23 -99 80 -58 59 -88 83 -100 80
-12 -4 -38 15 -81 60 -42 44 -67 63 -78 59 -10 -4 -31 10 -59 40 -32 32 -50
44 -64 40 -13 -3 -24 2 -33 16 -7 12 -23 21 -38 21 -17 0 -39 15 -67 44 -30
32 -48 43 -62 39 -13 -3 -24 2 -33 16 -8 13 -23 21 -39 21 -18 0 -38 13 -63
40 -22 24 -45 40 -58 40 -14 0 -40 18 -66 45 -28 29 -48 42 -58 38 -10 -4 -25
4 -40 20 -15 16 -30 24 -43 20 -13 -3 -24 2 -33 16 -7 12 -23 21 -38 21 -19 0
-43 18 -88 65 -41 42 -67 62 -77 58 -22 -8 -365 334 -365 365 0 13 -16 37 -40
58 -27 25 -40 45 -40 63 0 15 -8 31 -20 39 -12 7 -20 23 -20 38 0 14 -6 32
-14 40 -8 8 -18 36 -22 62 -4 28 -14 52 -25 60 -14 10 -19 26 -19 60 0 36 -5
50 -20 60 -38 24 -28 802 11 802 5 0 9 13 9 30 0 19 7 34 20 42 11 7 20 24 20
37 0 32 142 176 165 167 9 -3 24 4 37 19 14 16 28 23 39 20 11 -4 32 10 62 41
31 31 51 45 62 41 10 -4 24 3 37 18 20 23 27 25 80 20 53 -5 60 -3 79 20 l22
24 283 -1 283 -1 21 -24z m790 -3144 c0 -5 14 -15 30 -20 22 -8 30 -17 30 -34
0 -62 -41 -77 -60 -21 -6 19 -21 38 -35 44 -27 13 -32 27 -12 35 22 9 47 7 47
-4z m1687 -891 c11 -13 29 -28 39 -34 21 -13 19 -18 -13 -28 -16 -5 -23 -2
-28 14 -3 11 -13 20 -20 20 -18 0 -28 17 -21 35 8 21 19 19 43 -7z m366 -340
c7 -21 -12 -48 -33 -48 -20 0 -29 38 -13 53 11 12 41 8 46 -5z m3485 -1354
c12 -20 22 -46 22 -59 0 -26 -21 -46 -28 -26 -2 7 -17 26 -33 42 -30 31 -33
38 -23 63 10 26 38 17 62 -20z m-6500 -3791 c-4 -20 -36 -28 -57 -14 -21 13
-4 31 30 31 24 0 30 -4 27 -17z"/>
<path d="M1824 9495 c-4 -9 -2 -21 4 -27 15 -15 44 -1 40 19 -4 23 -36 29 -44
8z"/>
<path d="M19794 5965 c-3 -8 -15 -17 -25 -20 -12 -4 -19 -14 -17 -23 5 -25 32
-21 36 6 2 12 10 22 18 22 8 0 14 7 14 15 0 19 -19 20 -26 0z"/>
</g>
</svg>
