<?xml version="1.0" standalone="no"?>
<!DOCTYPE svg PUBLIC "-//W3C//DTD SVG 20010904//EN"
 "http://www.w3.org/TR/2001/REC-SVG-20010904/DTD/svg10.dtd">
<svg version="1.0" xmlns="http://www.w3.org/2000/svg"
 width="391.000000pt" height="500.000000pt" viewBox="0 0 391.000000 500.000000"
 preserveAspectRatio="xMidYMid meet">
<g transform="translate(0.000000,500.000000) scale(0.100000,-0.100000)"
fill="#ffffff" stroke="none">
<path d="M1578 4513 l-378 -378 515 -515 515 -515 112 112 113 113 -408 407
-407 408 160 160 160 160 165 -166 165 -165 -134 -132 -133 -131 108 -109 108
-108 241 241 240 240 -378 378 c-207 207 -379 377 -382 377 -3 0 -175 -170
-382 -377z m417 301 c14 -9 25 -21 25 -28 0 -6 -5 -4 -11 4 -9 13 -10 13 -6 0
2 -8 8 -15 13 -15 21 0 69 -51 68 -72 -1 -16 4 -20 19 -18 20 4 56 -29 57 -52
0 -6 5 -15 12 -19 7 -4 8 -3 4 4 -4 7 -2 10 7 6 14 -5 62 -63 62 -76 0 -8 15
-23 24 -23 18 0 56 -42 55 -62 -1 -12 3 -20 8 -17 4 3 5 11 1 17 -4 7 12 -4
34 -23 23 -19 40 -41 40 -49 -1 -8 11 -21 27 -30 17 -10 37 -30 46 -47 9 -16
23 -29 31 -29 15 0 75 -64 72 -76 -2 -5 5 -5 14 -2 9 4 14 2 10 -3 -3 -6 7
-18 24 -28 16 -9 29 -23 29 -29 0 -7 -4 -6 -10 3 -5 8 -10 10 -10 5 0 -6 5
-16 12 -23 9 -9 9 -12 -1 -12 -7 0 -9 -4 -6 -10 3 -5 1 -10 -5 -10 -13 0 -100
-86 -100 -99 0 -6 -5 -13 -12 -17 -7 -4 -8 -3 -4 4 4 7 3 12 -2 12 -5 0 -12
-9 -15 -21 -4 -13 -10 -18 -18 -13 -7 4 -10 3 -5 -4 3 -6 -9 -23 -29 -38 -19
-14 -35 -32 -35 -39 0 -7 -18 -24 -40 -39 -22 -14 -40 -33 -40 -41 0 -8 -12
-21 -27 -29 -16 -8 -39 -27 -52 -41 l-25 -27 -17 23 c-12 17 -18 19 -22 8 -4
-11 -6 -11 -6 1 -1 17 -63 86 -100 112 -20 14 -22 20 -11 33 7 8 17 15 22 15
12 0 29 17 52 53 10 15 23 27 28 27 12 0 29 17 53 53 10 16 24 26 31 23 8 -3
14 1 14 8 0 7 9 23 20 36 24 28 25 34 4 54 -8 9 -12 16 -7 16 4 0 -15 21 -42
46 -28 25 -45 44 -39 42 7 -2 12 2 12 7 1 6 -5 9 -13 7 -7 -1 -59 43 -115 99
-56 55 -107 102 -114 104 -6 1 -19 5 -28 9 -18 8 -81 -40 -72 -55 3 -5 -1 -7
-8 -5 -7 2 -46 -32 -86 -75 -40 -43 -76 -80 -80 -81 -4 -2 -6 -7 -4 -12 2 -5
-3 -4 -11 2 -12 10 -14 8 -12 -13 2 -14 0 -23 -4 -20 -10 5 -46 -33 -54 -58
-4 -10 -12 -16 -19 -12 -7 4 -5 0 5 -8 12 -10 14 -16 6 -19 -14 -5 37 -68 56
-68 8 0 21 -16 30 -35 10 -19 26 -37 36 -40 11 -4 17 -11 14 -16 -4 -5 0 -9 8
-9 8 0 17 -9 20 -20 3 -11 20 -26 38 -34 21 -9 27 -15 18 -19 -11 -4 -10 -6 2
-6 9 -1 19 -9 21 -19 3 -10 22 -26 42 -36 23 -11 36 -24 36 -37 0 -11 8 -22
18 -26 23 -8 62 -44 62 -57 0 -6 15 -21 33 -34 19 -12 40 -34 47 -47 7 -14 19
-25 27 -25 7 0 13 -4 13 -9 0 -5 9 -11 20 -14 12 -3 20 -14 20 -26 0 -12 8
-25 18 -28 22 -9 42 -29 42 -43 0 -6 5 -8 10 -5 6 3 10 0 10 -8 0 -8 12 -23
28 -33 35 -22 114 -104 101 -104 -6 0 -8 -4 -5 -9 3 -5 -1 -12 -10 -15 -9 -4
-14 -9 -11 -13 10 -10 -52 -65 -65 -57 -7 4 -8 3 -4 -4 4 -7 2 -12 -4 -12 -6
0 -8 -5 -5 -11 4 -6 0 -9 -11 -7 -13 2 -18 -2 -16 -14 1 -9 -7 -22 -19 -28
-12 -7 -19 -8 -16 -3 5 9 -70 83 -78 75 -3 -3 -5 0 -5 6 0 7 -87 99 -192 205
-106 105 -192 195 -190 199 1 5 -4 7 -11 5 -6 -1 -11 4 -9 12 2 9 -3 11 -13 7
-9 -3 -14 -2 -11 2 3 5 -4 16 -15 25 -10 9 -19 13 -19 9 0 -4 -9 8 -20 26 -11
17 -27 32 -35 32 -8 0 -15 4 -15 9 0 13 -238 251 -250 251 -6 0 -10 5 -10 12
0 11 -58 68 -69 68 -4 0 -12 9 -18 20 -9 14 -10 21 -1 26 7 5 8 3 3 -6 -5 -9
-4 -11 4 -6 6 4 9 11 6 16 -6 10 44 64 53 56 8 -8 33 15 27 24 -7 11 44 62 55
55 8 -5 24 12 25 25 0 14 45 61 53 56 6 -3 16 2 23 11 10 12 10 14 2 9 -23
-13 -13 6 17 34 18 17 39 27 50 25 14 -3 18 1 15 16 -4 21 41 73 55 64 8 -5
24 12 25 25 0 13 46 62 52 57 8 -9 34 13 28 23 -6 10 45 64 53 56 8 -8 33 15
27 24 -7 11 44 62 55 55 4 -2 13 2 20 10 7 8 9 15 5 15 -5 0 0 9 10 20 22 24
38 25 70 4z"/>
<path d="M495 3430 l-380 -380 515 -515 c283 -283 515 -515 516 -515 1 0 49
48 108 107 l106 108 -407 407 -408 408 163 163 163 164 135 -137 135 -138 110
111 110 111 -243 243 -243 243 -380 -380z m440 265 c27 -28 64 -68 83 -90 19
-22 37 -40 41 -40 3 1 21 -17 40 -40 40 -48 47 -55 36 -35 -6 13 14 -9 73 -79
11 -13 12 -13 6 -1 -4 8 9 -3 29 -25 20 -22 36 -44 37 -48 0 -5 4 -6 9 -2 5 3
13 0 17 -6 5 -8 3 -9 -6 -4 -8 5 -11 3 -8 -5 5 -15 -128 -150 -148 -150 -7 0
-19 7 -26 15 -7 9 -18 22 -25 29 -7 8 -9 17 -5 21 4 5 1 5 -6 1 -16 -10 -85
61 -75 77 3 6 1 7 -6 3 -7 -5 -24 7 -43 28 -17 19 -35 33 -40 30 -4 -3 -11 2
-14 10 -7 18 -64 22 -64 5 0 -6 -7 -8 -16 -5 -8 3 -12 2 -9 -4 3 -6 1 -10 -6
-10 -7 0 -10 -3 -7 -6 10 -9 -43 -55 -60 -52 -11 2 -16 -3 -15 -12 2 -9 -42
-62 -97 -118 -58 -60 -100 -111 -100 -122 0 -11 -5 -20 -12 -20 -7 0 5 -17 25
-38 20 -21 37 -44 37 -51 0 -8 6 -11 16 -7 15 6 15 4 3 -11 -11 -13 -11 -15
-1 -9 9 6 41 -20 100 -80 48 -49 78 -79 68 -66 -11 12 -16 22 -13 22 4 0 20
-18 36 -40 15 -21 32 -36 36 -32 5 4 5 2 2 -4 -4 -6 11 -25 33 -43 22 -18 40
-38 40 -46 0 -8 6 -15 13 -15 7 0 18 -9 25 -20 7 -12 17 -18 23 -15 5 4 8 1 7
-7 -2 -7 2 -12 7 -12 6 1 19 -7 30 -19 11 -11 13 -16 5 -12 -8 5 -4 -4 9 -18
13 -15 27 -24 31 -22 4 3 15 -4 25 -15 10 -11 14 -20 9 -20 -4 0 40 -47 100
-105 71 -69 109 -113 110 -130 2 -13 0 -22 -4 -20 -5 3 -10 -2 -14 -10 -3 -8
-11 -15 -18 -15 -7 0 -26 -16 -41 -35 -16 -20 -33 -32 -39 -29 -6 4 -8 3 -5
-3 9 -14 -14 -33 -34 -30 -16 3 -106 90 -169 163 -18 22 -29 33 -25 26 9 -17
-161 153 -204 203 -18 22 -35 38 -36 35 -1 -3 -19 15 -40 40 -21 25 -39 43
-40 40 -1 -3 -18 13 -37 35 -18 22 -118 124 -222 227 -167 166 -188 190 -182
212 3 14 16 30 29 36 22 11 22 11 2 -6 -12 -10 -14 -15 -5 -12 8 3 20 15 27
29 15 30 203 222 211 215 8 -8 33 15 27 24 -9 14 121 135 142 134 12 -1 19 6
20 19 2 24 42 69 55 61 5 -3 7 0 6 8 -2 7 3 12 10 10 8 -1 12 3 10 9 -5 15 33
56 48 52 6 -2 17 4 25 14 13 17 13 17 -6 3 -11 -8 -4 3 15 26 19 22 40 39 46
37 7 -3 15 1 20 8 5 8 3 10 -6 4 -8 -5 -11 -4 -7 3 12 18 32 8 82 -43z"/>
<path d="M2530 3295 l-515 -514 113 -114 112 -113 112 115 c62 64 244 249 404
411 l292 295 164 -163 163 -163 -138 -136 -138 -137 108 -108 109 -108 239
240 c132 132 241 244 243 248 1 4 -168 177 -375 384 l-378 378 -515 -515z
m554 424 c-2 -4 9 -16 26 -25 16 -10 30 -22 30 -27 0 -4 -4 -6 -8 -3 -5 3 -9
-2 -9 -10 0 -10 4 -11 11 -4 13 13 29 13 21 0 -3 -5 -1 -10 5 -10 14 0 50 -61
43 -73 -3 -6 -1 -7 5 -3 9 5 9 13 2 27 -6 10 -8 19 -6 19 3 0 12 -13 20 -28 8
-15 25 -34 39 -41 17 -9 23 -20 21 -37 -1 -13 2 -22 7 -18 5 3 6 11 2 17 -4 7
6 1 21 -13 15 -14 33 -37 42 -52 8 -15 20 -25 27 -22 13 4 61 -51 62 -71 0 -5
9 -9 19 -7 10 2 16 -1 13 -5 -3 -5 8 -18 24 -28 16 -11 28 -27 26 -35 -1 -10
6 -15 20 -14 13 1 20 -2 18 -7 -3 -4 6 -16 20 -27 14 -11 24 -24 23 -29 -2 -4
0 -8 4 -8 14 0 77 -69 71 -78 -3 -6 -2 -7 3 -4 6 3 16 2 24 -4 13 -7 13 -9 0
-9 -9 -1 -6 -5 8 -10 12 -5 22 -18 22 -28 0 -22 -116 -139 -133 -134 -7 2 -9
0 -4 -4 10 -10 -63 -85 -76 -77 -6 3 -7 1 -4 -4 4 -6 -15 -31 -41 -55 -26 -25
-71 -70 -101 -102 -30 -31 -57 -56 -61 -56 -4 0 -42 34 -84 75 l-77 75 28 40
c15 22 36 42 46 46 9 3 22 15 29 27 6 12 22 30 35 40 13 10 29 25 37 32 7 8
17 11 21 7 4 -4 6 -1 3 7 -2 8 9 27 25 43 17 15 25 28 18 28 -6 0 -11 9 -11
21 0 13 -4 18 -12 13 -6 -4 -8 -3 -4 4 3 6 0 17 -8 25 -8 8 -12 17 -9 21 4 3
2 6 -3 6 -14 0 -83 67 -76 74 3 3 1 6 -4 6 -5 0 -29 19 -54 42 -25 23 -38 38
-30 33 13 -8 13 -6 1 8 -7 9 -17 15 -21 12 -4 -3 -15 7 -24 20 -10 14 -22 23
-28 19 -7 -4 -8 -3 -4 5 4 6 0 18 -8 27 -9 8 -16 12 -16 8 0 -3 -6 -1 -14 5
-23 19 -67 4 -105 -35 -20 -20 -36 -41 -36 -45 0 -5 -3 -9 -7 -9 -5 0 -13 0
-19 0 -5 0 -7 5 -3 12 4 7 3 8 -4 4 -9 -5 -9 -13 -2 -26 7 -13 7 -21 -2 -26
-7 -5 -8 -3 -3 7 5 8 -39 -35 -98 -94 -70 -71 -111 -106 -119 -101 -7 4 -10 4
-6 -1 11 -11 -12 -36 -25 -28 -6 3 -7 1 -3 -5 9 -15 -31 -55 -46 -46 -6 4 -8
3 -5 -3 8 -13 -92 -115 -104 -107 -5 3 -6 -1 -3 -9 3 -8 -2 -17 -11 -21 -9 -3
-13 -11 -9 -18 5 -8 2 -9 -9 -5 -10 3 -17 3 -17 -1 0 -14 -64 -92 -75 -92 -5
0 -4 4 4 9 10 7 6 9 -13 8 -22 -2 -24 -4 -11 -13 14 -10 12 -17 -18 -49 -23
-25 -39 -35 -47 -30 -9 5 -11 4 -6 -4 4 -6 2 -18 -4 -26 -14 -16 -60 -16 -57
0 1 5 -3 9 -10 8 -6 -1 -17 4 -23 12 -7 8 -10 15 -8 15 10 0 -57 66 -73 72 -9
4 -19 18 -21 32 -3 14 -2 23 3 21 4 -3 22 12 39 32 18 21 29 31 25 23 -5 -8
10 5 33 30 23 25 39 51 37 58 -3 7 0 10 5 7 11 -7 250 228 250 245 0 6 4 9 9
6 13 -8 63 53 55 66 -4 7 -2 8 5 4 15 -10 85 60 75 75 -4 8 -3 9 5 5 7 -5 87
68 210 192 110 110 206 202 213 204 16 6 49 -13 42 -23z"/>
<path d="M2189 2670 c-8 -6 -8 -9 0 -14 6 -4 11 -2 11 5 0 8 4 9 13 0 10 -8
14 -7 14 2 0 15 -19 18 -38 7z"/>
<path d="M1308 3155 l-378 -380 108 -107 107 -108 380 380 380 380 -110 108
-110 107 -377 -380z m450 266 c12 -7 22 -18 22 -26 0 -7 14 -23 30 -35 17 -12
30 -30 30 -40 0 -10 -13 -28 -30 -40 -16 -12 -30 -29 -30 -37 0 -9 -3 -14 -6
-10 -3 3 -27 -17 -54 -44 -26 -27 -52 -49 -58 -49 -5 0 -18 -12 -28 -27 -23
-36 -35 -48 -56 -56 -10 -3 -18 -11 -18 -17 0 -6 5 -8 12 -4 7 4 8 3 4 -5 -4
-6 -12 -9 -17 -5 -6 3 -13 -3 -16 -15 -3 -12 -9 -21 -14 -21 -8 0 -131 -115
-206 -193 -162 -167 -186 -188 -195 -173 -5 8 -9 19 -9 23 -1 15 -21 33 -31
27 -9 -6 -55 45 -51 57 1 4 -5 13 -15 21 -16 12 -16 11 -2 -6 14 -18 14 -18
-7 -6 -12 8 -19 18 -17 22 3 4 0 8 -6 8 -6 0 5 17 24 38 20 20 36 40 36 45 0
4 6 7 13 7 6 0 25 18 41 40 17 22 36 40 44 40 7 0 10 5 7 10 -3 6 -2 10 4 10
14 0 60 47 53 54 -3 3 2 6 12 6 9 0 14 5 11 10 -3 6 -2 10 4 10 15 0 60 48 52
56 -3 4 2 4 12 1 15 -6 17 -3 11 15 -6 20 -5 21 10 9 14 -11 16 -11 16 2 0 9
9 22 20 30 11 8 17 17 13 20 -3 4 1 7 10 7 11 0 14 5 10 18 -6 15 -5 15 10 3
14 -11 17 -11 17 0 1 19 35 59 51 59 7 0 10 2 7 5 -9 9 61 76 73 69 8 -4 9 0
4 15 -4 15 -3 19 7 16 8 -3 21 8 32 25 11 20 23 29 33 26 11 -5 13 -1 7 17 -6
21 -6 21 13 4 19 -16 20 -16 19 5 -1 13 4 22 12 21 6 -2 12 3 12 10 0 6 10 0
23 -15 12 -14 32 -31 45 -37z"/>
<path d="M1578 2883 l-108 -108 380 -380 380 -381 109 111 110 110 -377 378
c-208 207 -380 377 -383 377 -2 0 -53 -48 -111 -107z m218 -56 c80 -73 230
-222 262 -260 17 -21 32 -37 32 -34 0 3 65 -60 145 -140 80 -80 145 -153 145
-162 0 -18 -88 -115 -128 -143 -19 -12 -28 -14 -37 -5 -6 7 -31 29 -54 50 -23
21 -39 42 -36 47 4 6 -1 7 -11 3 -12 -4 -15 -3 -10 5 4 7 3 12 -2 12 -14 0
-102 93 -102 109 0 8 -3 12 -6 8 -9 -9 -150 120 -172 158 -4 7 -27 29 -50 49
-24 20 -41 36 -37 36 4 0 2 6 -4 13 -6 8 -8 17 -4 21 4 4 0 4 -9 1 -18 -7 -64
48 -53 64 3 5 0 13 -6 17 -7 4 -9 3 -6 -3 4 -6 0 -13 -8 -17 -8 -3 -17 0 -21
6 -5 7 -2 8 7 3 8 -5 -14 19 -47 53 l-62 62 29 21 c16 11 29 28 29 36 0 9 3
14 6 11 3 -3 28 16 56 44 l50 50 32 -39 c17 -21 49 -55 72 -76z"/>
<path d="M2662 2882 l-103 -105 408 -409 408 -408 -160 -160 c-88 -88 -164
-160 -169 -160 -5 0 -69 60 -141 134 l-132 134 -109 -109 -109 -109 245 -245
245 -245 380 380 380 380 -515 515 c-283 283 -517 514 -520 513 -3 -1 -51 -49
-108 -106z m141 15 c-3 -6 -1 -7 5 -3 7 4 12 2 12 -4 0 -7 7 -10 14 -7 9 4 13
1 10 -6 -2 -7 9 -21 25 -32 17 -11 32 -28 35 -38 2 -10 13 -21 23 -23 10 -3
27 -18 38 -35 11 -16 37 -41 57 -56 21 -16 38 -32 38 -36 0 -11 26 -37 37 -37
8 0 43 -36 43 -44 0 -9 110 -116 120 -116 6 0 13 -7 16 -15 8 -19 211 -225
223 -225 5 0 20 -18 35 -40 14 -22 32 -40 40 -40 8 0 21 -11 29 -24 9 -13 42
-50 74 -83 32 -33 59 -65 61 -72 1 -7 -6 -21 -18 -31 -11 -9 -20 -21 -20 -24
0 -4 -7 -14 -15 -22 -8 -9 -15 -13 -15 -9 0 4 -7 -1 -16 -9 -8 -9 -12 -21 -8
-27 4 -8 3 -9 -4 -5 -7 4 -25 -8 -43 -26 -17 -18 -28 -27 -24 -20 3 6 4 12 1
12 -3 0 -13 -16 -22 -35 -9 -19 -20 -32 -25 -29 -5 3 -9 -3 -9 -12 0 -10 -3
-15 -6 -11 -9 9 -36 -21 -29 -33 3 -5 0 -7 -8 -5 -7 3 -19 -5 -26 -19 -9 -16
-19 -22 -30 -19 -9 4 -13 3 -9 -1 3 -4 -7 -22 -23 -38 -16 -17 -29 -35 -29
-39 0 -5 -7 -6 -15 -3 -8 4 -15 2 -15 -2 0 -5 -18 -29 -41 -54 -22 -25 -38
-39 -34 -32 3 6 4 12 0 12 -3 0 -10 -12 -15 -26 -6 -14 -14 -22 -20 -19 -6 4
-7 -1 -3 -11 4 -12 3 -15 -5 -10 -7 4 -12 1 -12 -8 0 -10 -6 -13 -17 -9 -10 3
-15 3 -11 -1 3 -4 -16 -30 -43 -57 -27 -28 -47 -54 -44 -59 3 -6 -1 -7 -9 -4
-9 3 -16 1 -16 -5 0 -24 -23 -7 -110 80 -81 82 -112 124 -77 103 8 -5 8 -2 -2
9 -15 18 -26 23 -16 7 3 -5 2 -10 -4 -10 -5 0 -57 47 -114 105 -57 57 -107
101 -111 98 -3 -3 -6 -1 -6 5 0 6 5 14 10 17 6 3 10 12 10 18 0 7 -4 6 -10 -3
-5 -8 -10 -10 -10 -4 0 19 26 35 46 28 13 -4 15 -3 6 3 -10 7 1 24 43 66 30
31 59 57 64 57 5 0 33 -28 61 -62 29 -35 54 -61 55 -58 1 3 19 -15 40 -40 44
-53 51 -60 40 -40 -5 8 4 3 20 -12 30 -31 54 -35 87 -15 24 13 59 52 70 76 4
11 7 12 7 3 1 -15 71 55 71 71 0 6 2 8 5 5 7 -7 145 133 146 147 1 6 5 18 10
27 6 11 5 19 -2 23 -5 4 -8 12 -6 18 2 7 -9 25 -25 40 -15 16 -28 33 -28 38 0
4 -14 16 -30 24 -18 9 -28 21 -24 27 4 7 3 8 -4 4 -8 -4 -16 3 -22 20 -6 15
-13 24 -16 21 -4 -3 -32 21 -64 53 -32 32 -61 56 -64 53 -3 -4 -6 -1 -6 6 0 8
-33 45 -72 84 -40 38 -72 74 -70 79 1 5 -2 7 -8 3 -5 -3 -14 5 -20 19 -5 14
-12 26 -16 26 -3 0 -3 -7 0 -16 3 -8 2 -12 -4 -9 -6 3 -10 13 -10 21 0 8 -4
14 -10 14 -5 0 -10 8 -10 17 0 9 -2 14 -6 11 -9 -9 -246 230 -239 241 4 7 -1
8 -12 4 -16 -5 -10 4 61 82 5 6 6 4 1 -4 -5 -9 -4 -12 3 -7 7 4 12 13 12 19 0
7 19 27 42 45 39 30 44 31 55 16 7 -9 10 -21 6 -27z"/>
<path d="M355 2203 l-240 -243 380 -380 380 -380 515 515 515 515 -109 109
-109 109 -403 -404 c-222 -222 -407 -404 -411 -404 -5 0 -80 72 -168 160
l-160 160 135 135 136 136 -109 109 c-60 61 -110 109 -110 108 -1 -1 -110
-111 -242 -245z m281 152 c19 -20 40 -32 46 -29 7 5 9 1 5 -9 -4 -11 -1 -17 9
-17 8 0 19 -11 26 -25 6 -13 14 -22 18 -20 10 6 18 -26 12 -44 -4 -11 -6 -11
-13 0 -7 11 -9 10 -9 -5 0 -12 -5 -16 -16 -12 -8 3 -12 2 -9 -4 3 -5 -25 -41
-62 -79 -37 -39 -73 -76 -79 -83 -5 -7 -21 -20 -35 -30 -19 -13 -22 -19 -11
-29 6 -7 12 -20 12 -29 0 -18 173 -200 190 -200 6 0 15 -12 20 -26 6 -14 19
-28 29 -31 10 -2 24 -14 30 -26 12 -23 54 -47 82 -47 9 0 84 66 166 148 83 81
170 165 194 188 24 23 78 77 119 120 41 43 70 72 66 64 -5 -8 7 3 25 25 19 22
74 79 122 127 49 48 86 91 83 96 -3 5 5 8 18 8 20 -1 108 -66 89 -66 -4 0 2
-7 13 -16 10 -8 13 -12 5 -8 -9 5 -12 3 -7 -5 4 -6 11 -9 16 -6 4 3 20 -9 34
-26 l26 -30 -25 -25 c-13 -13 -29 -24 -35 -24 -5 0 -10 -5 -10 -10 0 -6 -11
-20 -25 -32 -13 -11 -22 -25 -19 -29 8 -14 -17 -22 -29 -9 -10 10 -8 11 8 6
15 -6 17 -4 8 5 -19 19 -35 1 -22 -24 7 -12 8 -19 4 -15 -4 4 -19 -4 -32 -18
-13 -14 -28 -22 -35 -18 -6 4 -8 3 -5 -3 10 -16 -59 -87 -74 -78 -8 5 -10 4
-5 -3 4 -7 2 -12 -3 -12 -6 0 -11 -6 -11 -12 0 -7 -33 -44 -72 -82 -40 -38
-66 -66 -58 -61 12 6 12 5 3 -5 -14 -15 -36 -4 -26 13 4 7 -1 6 -11 -2 -9 -8
-15 -20 -12 -28 7 -16 -113 -135 -127 -126 -6 3 -7 1 -3 -5 3 -6 -9 -25 -26
-43 -18 -18 -34 -36 -34 -41 -1 -4 -2 -10 -3 -13 0 -3 -10 -1 -22 5 -19 11
-20 10 -9 -10 7 -13 8 -20 3 -17 -13 8 -65 -47 -56 -58 5 -4 1 -5 -7 -3 -8 3
-14 11 -12 17 1 7 -2 10 -6 7 -5 -3 -8 -17 -7 -31 2 -14 -1 -23 -6 -19 -5 3
-9 1 -9 -5 0 -5 -13 -18 -30 -28 -17 -9 -30 -22 -30 -27 0 -9 -88 -96 -105
-104 -10 -5 -133 122 -127 132 3 5 -2 7 -11 3 -10 -4 -17 -2 -17 5 0 6 -13 23
-29 39 -16 15 -26 31 -23 35 4 4 -1 4 -10 1 -10 -4 -18 -2 -18 5 0 6 -13 23
-29 39 -16 15 -26 31 -23 35 4 4 -1 4 -10 1 -10 -4 -18 -2 -18 4 0 15 -66 80
-74 72 -3 -3 -6 -2 -6 4 0 16 -66 84 -73 76 -4 -3 -7 -1 -7 6 0 15 -66 81 -74
74 -3 -4 -6 -2 -6 3 0 15 -66 84 -74 77 -3 -3 -6 0 -6 7 0 7 -12 25 -27 40
-30 28 -41 60 -22 60 6 0 9 7 6 14 -4 9 -1 13 6 10 7 -2 20 9 30 26 10 16 25
30 34 30 9 0 14 2 11 5 -10 10 62 76 74 69 8 -5 9 -2 5 9 -3 10 -2 17 3 17 14
0 59 48 51 56 -3 4 2 4 12 1 13 -5 17 -3 15 5 -3 7 10 25 28 39 19 15 31 29
27 33 -3 3 1 6 11 6 9 0 14 5 11 10 -3 6 -2 10 4 10 6 0 25 15 43 34 18 19 34
35 36 35 1 1 19 -15 38 -34z"/>
<path d="M2395 2070 l-380 -380 108 -108 107 -107 380 380 380 380 -108 107
-107 108 -380 -380z m402 305 c4 -4 2 -5 -6 0 -9 5 -12 4 -7 -3 4 -7 13 -12
21 -12 7 0 17 -9 20 -20 4 -12 15 -20 27 -20 12 0 19 -3 15 -6 -3 -3 4 -16 16
-28 45 -43 62 -68 47 -64 -9 2 -14 -3 -12 -11 2 -8 -3 -11 -13 -8 -8 4 -15 1
-15 -5 0 -6 -143 -154 -319 -329 -175 -175 -316 -321 -315 -324 2 -3 1 -3 -3
0 -3 3 -12 0 -19 -6 -8 -7 -14 -6 -20 2 -5 8 -3 9 6 4 8 -5 11 -4 6 3 -4 6
-12 9 -19 7 -7 -2 -28 15 -47 38 -19 22 -29 37 -21 32 10 -6 12 -4 7 4 -4 7
-13 10 -19 8 -7 -2 -21 9 -33 24 -11 16 -25 25 -29 21 -5 -4 26 28 68 71 68
69 80 77 95 66 14 -11 15 -11 6 0 -17 18 -7 42 29 71 17 14 28 20 24 13 -12
-19 9 -24 24 -6 8 9 9 14 3 10 -7 -4 -14 0 -18 8 -3 8 -2 14 3 12 10 -3 131
120 124 126 -3 3 7 4 21 3 15 -2 29 1 33 7 3 6 1 7 -5 3 -7 -4 -12 -3 -12 2 0
17 289 304 300 297 5 -3 7 0 4 9 -6 16 19 17 33 1z"/>
<path d="M1575 1792 l-110 -113 85 -80 c47 -44 231 -226 410 -404 l326 -324
-163 -163 -163 -163 -165 165 -166 165 136 134 136 133 -108 109 -108 109
-242 -242 -243 -243 380 -380 380 -380 380 380 380 380 -517 515 -518 516
-110 -114z m130 49 c0 -4 39 -47 88 -95 50 -49 85 -92 81 -98 -4 -7 -3 -8 4
-4 14 8 55 -31 47 -45 -8 -13 14 -41 26 -33 5 3 7 11 3 17 -3 7 4 1 17 -13 12
-14 26 -24 30 -22 5 1 9 -5 9 -13 0 -8 4 -15 8 -15 5 0 17 -7 28 -16 10 -8 12
-12 4 -8 -8 4 4 -12 28 -35 23 -23 39 -47 36 -53 -4 -6 -3 -8 3 -5 11 7 143
-116 143 -133 0 -6 -4 -8 -10 -5 -16 10 -11 -1 7 -16 9 -8 14 -9 10 -3 -4 7 0
14 8 18 8 3 14 2 13 -2 -2 -4 10 -20 25 -36 15 -16 26 -35 23 -43 -3 -7 0 -15
6 -19 6 -4 8 -3 4 4 -4 6 1 10 13 9 11 -1 18 -3 16 -5 -2 -2 44 -51 101 -109
93 -94 127 -138 92 -117 -9 5 -9 2 1 -9 14 -18 26 -23 17 -8 -3 5 1 11 9 15 8
3 17 0 21 -6 5 -7 2 -8 -7 -4 -8 4 -2 -2 14 -14 15 -12 32 -32 38 -43 10 -22
10 -22 -6 -2 l-17 20 6 -20 c3 -11 1 -27 -4 -35 -5 -8 -10 -11 -10 -6 0 12
-70 -60 -70 -73 0 -6 -7 -7 -17 -4 -11 4 -14 3 -9 -5 4 -7 3 -12 -3 -12 -6 0
-21 -15 -33 -33 -13 -19 -29 -32 -37 -29 -8 3 -11 0 -7 -7 4 -6 3 -11 -3 -11
-6 0 -21 -15 -33 -33 -14 -21 -29 -32 -38 -29 -8 3 -12 2 -8 -2 3 -4 -7 -20
-23 -35 -16 -16 -29 -33 -29 -39 0 -7 -8 -9 -17 -5 -10 3 -15 3 -11 -1 3 -4
-7 -20 -23 -35 -16 -16 -29 -33 -29 -39 0 -6 -7 -9 -15 -6 -11 5 -13 2 -8 -12
4 -10 2 -15 -4 -11 -11 7 -53 -36 -53 -55 0 -6 -3 -8 -6 -5 -9 8 -74 -57 -74
-74 0 -7 -3 -9 -6 -6 -8 8 -74 -57 -74 -73 0 -7 -7 -10 -14 -7 -10 4 -13 1
-10 -8 10 -25 -30 -11 -56 20 -39 47 -48 55 -60 55 -6 0 -14 8 -17 18 -7 18
-45 56 -82 82 -12 8 -21 18 -21 23 0 12 -27 37 -39 37 -6 0 -11 4 -11 9 0 13
-53 68 -78 81 -13 6 -21 14 -18 17 7 7 -57 72 -66 67 -4 -3 -12 6 -19 18 -13
24 -69 78 -81 78 -5 0 -8 4 -8 9 0 10 -106 121 -116 121 -4 0 -17 11 -29 24
l-22 24 34 46 c18 25 36 46 40 46 3 0 -2 -10 -13 -22 l-19 -21 27 18 c15 9 25
21 22 26 -3 5 0 9 6 9 6 0 8 5 5 10 -3 6 -2 10 4 10 5 0 40 29 76 65 37 36 72
62 78 58 6 -4 7 -1 2 6 -8 13 33 64 45 56 4 -3 13 2 20 10 7 8 9 15 5 15 -4 0
7 18 25 40 21 27 36 37 47 33 10 -4 14 -2 10 4 -4 6 2 13 13 16 21 5 45 -16
35 -32 -3 -6 0 -9 8 -6 17 7 51 -30 42 -45 -3 -6 -3 -10 2 -9 22 4 34 -3 31
-17 -2 -10 4 -19 12 -21 13 -4 13 -3 0 6 -10 7 -11 11 -3 11 7 0 17 -9 23 -20
9 -18 6 -27 -19 -56 -17 -19 -33 -34 -35 -35 -3 0 -35 -30 -72 -67 -69 -70
-119 -132 -93 -117 11 7 12 6 3 -6 -9 -10 -7 -21 6 -41 9 -16 20 -25 23 -21 4
3 7 1 7 -6 0 -15 24 -41 38 -41 5 0 12 -9 15 -20 3 -11 13 -23 24 -27 22 -8
36 -22 51 -49 6 -11 27 -31 46 -45 19 -13 37 -32 39 -41 3 -10 13 -21 23 -25
10 -3 26 -15 36 -25 23 -23 49 -23 76 2 12 11 24 20 27 20 10 0 115 109 115
120 0 5 4 10 8 10 13 0 152 137 152 150 0 6 4 9 9 6 11 -7 9 13 -3 33 -7 10
-5 12 5 7 8 -4 4 1 -8 10 -13 9 -23 21 -23 27 0 5 -66 74 -146 153 -95 93
-143 147 -138 155 4 7 3 10 -4 5 -5 -3 -24 5 -40 19 -16 13 -32 21 -36 18 -4
-4 -4 1 0 11 5 14 4 17 -4 12 -7 -4 -12 -2 -12 3 0 13 -208 221 -221 221 -5 0
-6 7 -2 15 3 9 1 15 -5 13 -13 -4 -142 121 -142 136 1 19 28 48 39 42 5 -4 13
-1 17 5 5 8 2 10 -7 5 -8 -4 -5 0 5 8 11 9 17 16 14 16 -3 0 10 17 29 38 19
20 41 36 49 34 8 -2 14 1 13 5 -3 17 1 26 9 19 4 -4 7 -11 7 -15z"/>
</g>
</svg>
