<?xml version="1.0" standalone="no"?> <!DOCTYPE svg PUBLIC "-//W3C//DTD SVG 20010904//EN" "http://www.w3.org/TR/2001/REC-SVG-20010904/DTD/svg10.dtd"> <svg version="1.0" xmlns="http://www.w3.org/2000/svg" width="600.000000pt" height="600.000000pt" viewBox="0 0 600.000000 600.000000" preserveAspectRatio="xMidYMid meet"> <g transform="translate(0.000000,600.000000) scale(0.100000,-0.100000)" fill="#ffffff" stroke="none"> <path d="M3450 4495 l0 -315 35 0 35 0 0 315 0 315 -35 0 -35 0 0 -315z"/> <path d="M2450 4245 l0 -315 35 0 35 0 0 315 0 315 -35 0 -35 0 0 -315z m37 -142 c-1 -76 -3 -14 -3 137 0 151 2 213 3 138 2 -76 2 -200 0 -275z"/> <path d="M3200 4245 l0 -315 35 0 35 0 0 315 0 315 -35 0 -35 0 0 -315z"/> <path d="M2206 3999 l2 -312 31 -2 31 -3 0 314 0 314 -32 0 -33 0 1 -311z"/> <path d="M2950 3997 l0 -313 35 0 35 0 0 313 0 313 -35 0 -35 0 0 -313z"/> <path d="M3700 3998 l0 -313 30 0 30 0 0 297 c0 163 3 303 6 312 5 13 -1 16 -30 16 l-36 0 0 -312z m37 95 c-2 -32 -3 -6 -3 57 0 63 1 89 3 58 2 -32 2 -84 0 -115z"/> <path d="M1952 3751 l-3 -309 35 -4 36 -4 0 313 0 313 -32 0 -33 0 -3 -309z m38 -7 c0 -153 -3 -280 -6 -283 -2 -3 -4 125 -4 283 1 159 3 286 6 283 3 -3 5 -130 4 -283z"/> <path d="M2700 3752 c0 -170 2 -311 5 -314 3 -2 18 -3 35 0 l30 4 0 309 0 309 -35 0 -35 0 0 -308z"/> <path d="M3450 3748 l0 -313 32 1 33 1 3 311 2 312 -35 0 -35 0 0 -312z"/> <path d="M2450 3500 l0 -310 35 0 35 0 0 310 0 310 -35 0 -35 0 0 -310z m37 -142 c-1 -79 -3 -15 -3 142 0 157 2 221 3 143 2 -79 2 -207 0 -285z"/> <path d="M3200 3500 l0 -310 35 0 35 0 0 310 0 310 -35 0 -35 0 0 -310z"/> <path d="M2950 3250 l0 -316 35 4 35 4 0 308 0 308 -35 4 -35 4 0 -316z"/> <path d="M2205 3250 l0 -310 33 0 32 0 0 310 0 310 -32 0 -33 0 0 -310z"/> <path d="M3670 3248 l0 -313 62 3 63 3 0 310 0 309 -62 0 -63 0 0 -312z m95 189 c0 -50 -1 -176 -3 -279 l-2 -188 -30 0 -30 0 0 280 0 280 33 0 32 0 0 -93z"/> <path d="M1985 3313 l-31 -4 1 -309 0 -308 33 -4 32 -4 0 318 c0 175 -1 317 -2 316 -2 0 -17 -3 -33 -5z m5 -314 c0 -150 -3 -275 -5 -278 -3 -2 -5 123 -5 279 0 156 2 281 6 278 3 -3 5 -129 4 -279z"/> <path d="M3420 3003 l0 -313 65 0 65 0 0 309 0 309 -65 4 -65 3 0 -312z m100 -2 l1 -279 -33 -5 c-18 -2 -34 -4 -35 -3 -1 1 -3 128 -5 284 l-3 282 37 0 37 0 1 -279z"/> <path d="M2700 3000 l0 -310 35 0 35 0 0 310 0 310 -35 0 -35 0 0 -310z"/> <path d="M2483 3063 l-33 -4 0 -310 0 -309 35 0 35 0 0 315 c0 173 -1 314 -2 313 -2 0 -18 -3 -35 -5z m4 -450 c-1 -76 -3 -14 -3 137 0 151 2 213 3 138 2 -76 2 -200 0 -275z"/> <path d="M3170 2753 l0 -313 65 0 65 0 0 309 0 309 -65 4 -65 3 0 -312z m98 7 c2 -150 -1 -276 -5 -280 -4 -4 -20 -10 -35 -14 l-28 -6 0 283 c0 156 3 286 6 290 3 3 18 4 32 3 l27 -3 3 -273z"/> <path d="M3214 2625 c0 -82 2 -115 3 -72 2 43 2 110 0 150 -1 40 -3 5 -3 -78z"/> <path d="M1705 2750 l0 -310 33 0 32 0 0 310 0 310 -32 0 -33 0 0 -310z"/> <path d="M3920 2750 l0 -310 64 0 65 0 1 310 0 310 -65 0 -65 0 0 -310z m84 284 c14 -5 16 -39 16 -278 0 -288 -1 -296 -47 -296 l-23 0 0 290 c0 279 1 290 19 290 11 0 26 -3 35 -6z"/> <path d="M4004 2730 c0 -140 2 -198 3 -127 2 70 2 184 0 255 -1 70 -3 12 -3 -128z"/> <path d="M2210 2816 c0 -1 -2 -142 -3 -314 l-2 -312 33 0 32 0 0 309 0 309 -30 4 c-16 3 -30 4 -30 4z"/> <path d="M2920 2503 l0 -313 65 0 65 0 0 313 0 312 -65 0 -65 0 0 -312z m95 -3 l0 -275 -32 -3 -32 -3 -1 281 -1 281 33 -3 33 -3 0 -275z"/> <path d="M3670 2503 l0 -313 63 0 62 0 0 309 0 310 -63 3 -62 3 0 -312z m97 -1 l2 -282 -35 0 -34 0 0 278 c0 153 3 281 6 285 3 3 18 5 32 4 l27 -2 2 -283z"/> <path d="M2705 2562 c-3 -3 -5 -144 -5 -314 l0 -308 35 0 35 0 0 309 0 309 -30 4 c-17 3 -32 2 -35 0z"/> <path d="M3420 2253 l0 -313 65 0 65 0 -2 311 -3 311 -63 2 -62 1 0 -312z m91 277 c5 0 9 -117 9 -280 l0 -280 -35 0 -35 0 0 279 c0 286 1 297 38 285 8 -2 18 -4 23 -4z"/> <path d="M4170 2250 l0 -310 63 0 62 0 0 310 0 310 -62 0 -63 0 0 -310z m83 281 c16 -1 17 -21 17 -267 0 -159 -4 -273 -10 -284 -8 -16 -15 -17 -38 -9 l-27 9 3 279 c2 258 4 279 20 276 9 -2 25 -4 35 -4z"/> <path d="M4211 2494 c0 -11 3 -14 6 -6 3 7 2 16 -1 19 -3 4 -6 -2 -5 -13z"/> <path d="M3170 2003 l0 -313 65 0 65 0 -2 311 -3 311 -63 2 -62 1 0 -312z m97 -1 l-2 -277 -30 0 c-16 0 -32 3 -35 7 -3 3 -4 128 -2 276 l3 271 22 3 c46 8 46 11 44 -280z"/> <path d="M3214 1900 c0 -80 2 -112 3 -72 2 39 2 105 0 145 -1 39 -3 7 -3 -73z"/> <path d="M3420 1505 l0 -315 65 0 65 0 0 315 0 315 -65 0 -65 0 0 -315z m100 0 l-1 -285 -29 0 c-16 0 -31 3 -34 8 -7 12 -17 529 -10 547 4 9 19 15 40 15 l34 0 0 -285z"/> </g> </svg>