<?xml version="1.0" standalone="no"?>
<!DOCTYPE svg PUBLIC "-//W3C//DTD SVG 20010904//EN"
 "http://www.w3.org/TR/2001/REC-SVG-20010904/DTD/svg10.dtd">
<svg version="1.0" xmlns="http://www.w3.org/2000/svg"
 width="423.000000pt" height="388.000000pt" viewBox="0 0 423.000000 388.000000"
 preserveAspectRatio="xMidYMid meet">
<g transform="translate(0.000000,388.000000) scale(0.100000,-0.100000)"
fill="#ffffff" stroke="none">
<path d="M1380 2793 c-208 -5 -664 -43 -677 -56 -2 -2 36 -12 84 -21 697 -134
1208 -333 1911 -743 79 -45 149 -83 155 -83 18 0 218 144 382 276 134 107 357
305 363 322 3 9 -270 87 -478 136 -271 65 -610 119 -915 146 -137 12 -592 31
-675 28 -30 -1 -98 -3 -150 -5z m780 -62 c171 -15 412 -45 560 -71 63 -11 131
-22 150 -25 19 -3 47 -10 62 -16 16 -6 39 -9 53 -7 14 3 23 3 20 0 -3 -3 34
-14 82 -24 48 -9 96 -22 106 -28 10 -6 22 -8 27 -5 6 4 25 2 43 -4 17 -6 70
-22 115 -36 122 -37 126 -39 107 -75 -9 -17 -18 -30 -21 -30 -3 0 -2 5 2 12 4
7 3 8 -4 4 -7 -4 -12 -11 -12 -17 0 -14 -63 -68 -79 -69 -8 0 -11 -3 -8 -6 4
-4 -9 -19 -28 -34 -19 -15 -31 -31 -27 -35 4 -5 2 -5 -4 -2 -6 4 -30 -11 -53
-32 -22 -21 -41 -36 -41 -33 0 3 -8 -3 -19 -14 -26 -26 -61 -55 -61 -49 0 3
-10 -4 -22 -15 -13 -12 -32 -29 -43 -39 -11 -10 -28 -21 -37 -24 -10 -4 -18
-11 -18 -17 0 -6 -4 -9 -9 -5 -6 3 -15 -4 -21 -15 -6 -11 -15 -18 -19 -16 -4
3 -21 -7 -38 -22 -16 -16 -35 -26 -41 -24 -5 1 -14 -2 -18 -9 -5 -8 -3 -9 6
-4 9 6 11 4 5 -5 -6 -10 -11 -9 -21 4 -7 10 -15 13 -18 7 -4 -5 -31 7 -63 27
-31 20 -59 37 -62 37 -3 0 -34 17 -69 38 -35 20 -69 37 -76 37 -7 0 -20 8 -29
18 -9 10 -43 31 -76 47 -33 15 -58 31 -56 35 2 4 -1 7 -8 7 -22 1 -97 40 -90
46 3 4 -8 10 -25 13 -18 4 -32 10 -32 15 0 5 -6 9 -14 9 -22 0 -97 36 -89 43
3 4 1 7 -6 7 -7 0 -10 4 -7 9 4 5 -3 7 -14 4 -11 -3 -28 1 -37 8 -12 10 -14
10 -9 2 10 -18 2 -16 -24 7 -13 11 -32 20 -42 20 -12 0 -16 4 -12 12 4 7 3 8
-4 4 -6 -4 -23 1 -37 10 -14 9 -28 14 -32 11 -3 -4 -18 2 -32 12 -28 20 -125
59 -127 51 0 -3 -8 1 -16 8 -9 7 -24 15 -34 17 -52 13 -123 43 -116 50 4 5 2
5 -4 2 -12 -7 -59 5 -99 24 -12 6 -27 11 -35 13 -8 2 -22 6 -30 9 -8 3 -58 18
-110 32 -189 50 -280 78 -280 85 0 35 755 42 1120 11z"/>
<path d="M2547 2109 c7 -7 15 -10 18 -7 3 3 -2 9 -12 12 -14 6 -15 5 -6 -5z"/>
<path d="M2144 1979 c-31 -34 -193 -154 -284 -209 -159 -97 -346 -183 -560
-258 -121 -42 -399 -116 -407 -109 -2 3 11 29 30 58 50 78 90 161 130 269 42
114 78 240 69 240 -4 0 -17 -29 -30 -64 -28 -78 -118 -232 -203 -346 -76 -103
-235 -294 -278 -334 -17 -17 -31 -33 -31 -38 0 -12 271 -10 413 3 513 45 1014
208 1550 502 99 54 99 54 -133 180 -127 70 -235 127 -239 127 -4 0 -16 -9 -27
-21z m90 -60 c14 -11 30 -17 36 -14 5 3 10 2 10 -3 0 -5 14 -15 31 -22 17 -7
47 -24 66 -37 19 -13 31 -18 27 -11 -9 15 67 -40 78 -56 5 -7 8 -7 8 1 0 9 7
7 20 -5 20 -17 20 -17 -15 -50 -21 -20 -42 -32 -50 -28 -10 3 -15 -1 -15 -11
0 -9 -3 -13 -7 -10 -3 4 -11 3 -17 -2 -21 -16 -125 -71 -135 -71 -6 0 -32 -12
-58 -28 -26 -15 -54 -28 -60 -28 -30 -2 -34 -5 -27 -15 4 -8 -1 -9 -16 -4 -15
5 -20 4 -16 -4 4 -6 1 -11 -8 -11 -8 0 -41 -11 -73 -24 -95 -40 -272 -102
-373 -130 -52 -15 -111 -33 -130 -40 -19 -8 -51 -11 -70 -8 -19 2 -31 1 -27
-4 16 -17 -365 -71 -564 -80 -97 -5 -133 -3 -145 7 -12 10 -12 14 -2 20 10 7
11 9 0 9 -7 0 3 14 22 31 19 16 38 39 41 50 4 11 11 17 16 14 5 -4 9 -3 9 2 0
9 64 83 72 83 2 0 5 -7 5 -15 0 -8 -5 -12 -11 -8 -6 3 3 -6 19 -21 36 -30 55
-31 160 -6 44 10 84 16 89 13 5 -3 6 -1 2 5 -4 7 7 13 31 17 21 4 73 18 116
32 43 14 84 26 91 27 8 1 21 8 30 15 8 7 20 10 26 6 5 -3 10 -1 10 4 0 6 5 11
11 11 14 0 132 52 139 61 3 3 12 6 20 6 8 0 39 15 69 32 30 18 62 30 72 28 12
-3 16 0 12 10 -3 7 -2 13 3 12 19 -3 31 2 52 21 12 12 22 19 22 16 0 -7 39 15
107 62 34 23 67 42 72 42 6 0 11 4 11 9 0 5 20 22 45 38 24 15 44 34 45 41 0
7 5 10 10 7 6 -3 10 -1 10 5 0 6 4 9 9 6 5 -3 11 1 15 9 8 21 49 18 80 -6z"/>
</g>
</svg>
