<?xml version="1.0" standalone="no"?> <!DOCTYPE svg PUBLIC "-//W3C//DTD SVG 20010904//EN" "http://www.w3.org/TR/2001/REC-SVG-20010904/DTD/svg10.dtd"> <svg version="1.0" xmlns="http://www.w3.org/2000/svg" width="1800.000000pt" height="1800.000000pt" viewBox="0 0 1800.000000 1800.000000" preserveAspectRatio="xMidYMid meet"> <g transform="translate(0.000000,1800.000000) scale(0.100000,-0.100000)" fill="#ffffff" stroke="none"> <path d="M8999 16590 c-38 -11 -89 -51 -89 -69 0 -8 -12 -25 -27 -37 l-28 -22 4 -1274 c2 -924 6 -1275 14 -1280 8 -5 8 -16 1 -40 -6 -18 -12 -85 -12 -148 -1 -63 -8 -144 -16 -180 -8 -36 -20 -93 -26 -128 -12 -66 -62 -234 -80 -264 -5 -10 -10 -34 -10 -53 0 -23 -5 -35 -13 -35 -17 0 -42 -75 -38 -112 1 -16 -3 -28 -8 -28 -6 0 -11 -7 -11 -15 0 -8 -12 -27 -26 -42 -49 -53 -115 -165 -109 -184 9 -27 -3 -43 -21 -28 -11 9 -14 8 -14 -2 0 -8 -18 -39 -40 -69 -22 -30 -53 -74 -68 -97 -15 -23 -34 -45 -42 -48 -8 -2 -21 -18 -28 -34 -7 -17 -46 -58 -85 -93 -40 -35 -97 -87 -127 -115 -30 -29 -60 -53 -66 -53 -6 0 -19 -11 -28 -25 -9 -14 -24 -25 -32 -25 -9 0 -24 -10 -34 -23 -10 -12 -43 -35 -74 -51 -30 -15 -60 -34 -67 -42 -6 -8 -18 -14 -25 -14 -8 0 -22 -9 -31 -20 -10 -11 -28 -20 -40 -20 -12 0 -27 -9 -33 -21 -9 -16 -17 -19 -41 -14 -24 5 -29 3 -29 -12 0 -31 -19 -43 -47 -30 -21 9 -27 7 -52 -24 -25 -29 -31 -32 -45 -20 -11 9 -20 10 -28 3 -7 -5 -49 -21 -92 -36 -44 -15 -85 -31 -92 -37 -7 -6 -38 -12 -69 -14 -31 -2 -61 -8 -68 -13 -7 -5 -52 -13 -102 -17 -49 -3 -108 -11 -130 -15 -74 -16 -155 -18 -155 -3 0 8 -12 13 -30 13 -34 0 -49 22 -30 44 8 10 8 20 1 33 -5 11 -10 89 -9 174 1 667 -13 1963 -22 1979 -5 10 -8 25 -5 32 3 9 -5 20 -20 28 -14 7 -25 19 -25 26 0 6 -16 21 -35 33 -19 11 -35 27 -35 34 0 11 -14 14 -57 13 -53 0 -57 -2 -76 -33 -10 -18 -24 -33 -31 -33 -22 0 -67 -55 -60 -73 3 -10 1 -24 -5 -31 -11 -13 -12 -586 -1 -1736 1 -173 2 -354 1 -402 l-1 -87 -32 -15 c-28 -13 -120 -16 -563 -20 -1197 -12 -1542 -18 -1576 -27 -48 -12 -125 -94 -134 -142 -4 -20 -4 -50 0 -67 9 -41 64 -102 115 -129 39 -20 44 -20 1115 -14 l1075 6 -1 -34 c0 -19 -4 -70 -8 -114 -4 -44 -4 -85 0 -91 8 -9 1 -41 -22 -99 -4 -11 -20 -72 -34 -135 -15 -63 -38 -144 -51 -179 -13 -35 -24 -78 -24 -96 0 -18 -7 -38 -15 -45 -8 -7 -15 -21 -15 -32 0 -10 -10 -29 -22 -42 -29 -30 -60 -85 -53 -96 3 -4 -2 -13 -10 -20 -8 -7 -15 -21 -15 -32 0 -11 -8 -22 -18 -25 -18 -4 -92 -140 -92 -168 0 -14 -4 -17 -32 -19 -14 -1 -64 -64 -88 -110 -8 -16 -30 -41 -47 -55 -18 -14 -33 -33 -33 -41 0 -8 -14 -21 -31 -29 -25 -11 -30 -18 -25 -37 6 -22 4 -24 -19 -18 -15 4 -25 2 -25 -4 0 -6 -9 -14 -20 -17 -24 -8 -26 -25 -3 -25 14 0 12 -4 -7 -22 -24 -22 -38 -25 -32 -7 4 15 -5 10 -41 -23 -42 -39 -120 -107 -162 -141 -16 -13 -41 -28 -55 -32 -33 -10 -196 -103 -211 -121 -6 -8 -24 -14 -39 -14 -15 0 -33 -7 -40 -15 -7 -8 -23 -15 -35 -15 -12 0 -28 -7 -35 -15 -7 -8 -28 -17 -49 -21 -20 -4 -44 -13 -53 -21 -10 -9 -24 -13 -32 -10 -8 3 -22 -1 -33 -8 -10 -8 -32 -15 -48 -15 -17 0 -40 -7 -52 -15 -12 -8 -39 -17 -60 -19 -21 -2 -91 -14 -155 -25 -170 -29 -520 -39 -1590 -45 -694 -4 -922 -9 -937 -18 -15 -9 -25 -9 -46 0 -41 19 -289 16 -305 -3 -7 -8 -23 -15 -36 -15 -13 0 -28 -9 -34 -20 -6 -11 -18 -20 -28 -20 -25 0 -73 -66 -79 -109 -5 -34 0 -43 42 -92 90 -104 86 -101 121 -94 19 3 35 1 39 -5 5 -8 235 -9 793 -3 433 4 1044 7 1357 7 321 1 573 5 576 10 4 5 27 -1 52 -13 35 -17 66 -23 131 -24 56 -1 86 -6 86 -13 0 -7 27 -14 63 -18 34 -4 72 -13 83 -21 12 -8 30 -11 41 -9 11 3 52 -10 94 -29 146 -69 190 -86 204 -81 7 3 22 -4 32 -16 20 -24 73 -54 113 -63 14 -4 45 -25 70 -47 25 -22 62 -49 82 -60 20 -11 39 -24 43 -29 3 -5 30 -21 60 -36 30 -14 55 -32 55 -39 0 -20 30 -41 53 -38 16 3 19 -1 14 -17 -4 -16 0 -21 14 -21 10 0 19 -4 19 -9 0 -5 38 -47 85 -94 47 -47 85 -90 85 -96 0 -7 11 -16 25 -21 14 -5 25 -17 25 -26 0 -9 17 -37 38 -61 41 -50 96 -134 113 -175 6 -16 17 -28 25 -28 8 0 14 -10 14 -25 0 -15 6 -25 14 -25 8 0 16 -15 19 -38 4 -20 18 -53 32 -72 14 -18 25 -40 25 -46 0 -7 6 -17 14 -21 7 -4 16 -21 19 -38 6 -33 84 -269 98 -297 5 -10 9 -26 9 -37 0 -10 7 -32 15 -47 9 -17 13 -40 9 -57 -3 -15 -1 -33 4 -40 9 -10 19 -204 12 -232 -1 -5 -2 -18 -1 -27 1 -10 -1 -18 -6 -19 -28 -2 -592 -9 -1223 -15 -860 -7 -847 -7 -862 -22 -15 -15 -48 -16 -48 -1 0 16 -12 9 -69 -40 -78 -66 -97 -118 -70 -187 19 -53 110 -121 142 -108 8 3 19 -1 25 -8 9 -12 350 -14 1022 -6 41 1 145 1 230 2 273 1 521 5 659 12 74 3 149 3 168 -1 63 -12 62 4 69 -788 3 -392 5 -858 4 -1037 -2 -364 3 -448 31 -482 70 -86 92 -105 125 -116 20 -6 43 -7 53 -3 9 5 33 17 54 27 21 10 35 24 33 31 -3 7 7 22 22 35 57 49 54 -15 48 1164 -4 796 -2 1097 6 1121 10 26 18 32 52 37 79 11 192 8 261 -8 39 -8 112 -22 162 -31 51 -9 125 -27 165 -40 40 -14 82 -25 93 -25 11 0 43 -11 70 -25 28 -13 60 -25 73 -25 12 0 31 -9 42 -20 11 -11 26 -20 34 -20 8 0 32 -10 53 -22 59 -35 95 -55 133 -73 19 -9 45 -25 57 -37 12 -11 27 -17 33 -13 7 4 15 3 19 -2 3 -5 23 -17 44 -26 21 -11 37 -25 37 -35 0 -9 14 -23 30 -30 17 -8 30 -20 30 -28 0 -8 7 -14 16 -12 9 2 21 -6 28 -17 16 -28 49 -54 68 -55 10 0 25 -15 34 -32 18 -35 178 -198 194 -198 6 0 10 -8 10 -18 0 -10 11 -29 25 -42 13 -12 37 -41 52 -64 15 -22 34 -47 41 -54 6 -7 12 -20 12 -28 0 -26 52 -94 71 -94 15 0 19 -8 19 -39 0 -34 3 -38 20 -34 15 4 20 0 20 -14 0 -10 -6 -25 -12 -32 -11 -11 -8 -12 15 -7 26 6 39 -8 15 -17 -10 -4 -10 -8 0 -23 7 -11 19 -35 28 -54 8 -19 19 -44 24 -55 5 -11 12 -34 15 -52 4 -18 15 -50 25 -71 28 -59 71 -217 80 -299 5 -39 13 -95 19 -125 22 -112 31 -390 37 -1158 3 -437 5 -806 4 -820 -7 -82 1 -692 11 -770 5 -41 11 -88 12 -104 1 -20 9 -31 25 -37 12 -5 31 -24 42 -42 32 -55 89 -71 153 -43 33 14 51 30 90 81 46 61 47 75 41 505 -11 824 -9 2340 4 2439 11 84 30 168 79 351 8 30 18 70 23 88 4 18 12 38 18 45 5 7 13 26 16 44 4 17 13 37 21 43 8 6 17 25 20 41 4 16 11 29 16 29 15 0 39 63 28 74 -14 15 -11 23 11 29 25 6 84 100 85 135 0 20 6 28 23 30 12 2 22 10 22 18 0 8 8 22 18 32 44 44 87 108 84 124 -2 11 5 21 20 27 29 11 153 141 162 169 4 12 16 22 26 22 9 0 35 19 56 43 21 23 47 44 58 47 12 3 25 16 31 28 5 12 17 22 27 22 9 0 32 18 51 40 19 22 41 40 49 40 8 0 26 8 39 19 13 10 34 21 45 25 12 4 29 15 39 26 10 11 26 20 35 20 9 0 27 11 39 24 12 13 36 27 54 30 17 3 38 12 46 20 9 7 50 25 91 39 134 45 195 69 211 83 8 8 33 14 55 14 21 0 53 7 69 16 17 8 59 17 95 19 36 2 84 7 108 11 45 7 105 -14 115 -39 3 -7 5 -276 6 -597 2 -956 11 -1532 22 -1568 6 -18 9 -42 6 -52 -3 -11 1 -21 10 -24 7 -3 19 -19 24 -35 7 -20 15 -28 25 -24 17 6 54 -24 54 -44 0 -11 13 -13 63 -7 68 7 73 10 79 39 2 10 14 22 27 25 16 3 33 21 47 48 l23 43 -5 727 c-11 1546 -12 1481 13 1515 l23 30 857 4 c749 2 1091 6 1409 16 80 2 80 2 137 50 96 83 101 153 15 243 -28 30 -59 54 -69 54 -10 0 -21 5 -24 10 -6 9 -1254 7 -2023 -5 -156 -2 -294 0 -307 5 -37 14 -46 61 -35 179 5 57 14 109 19 115 5 6 9 28 9 50 0 21 5 43 11 49 6 6 11 22 11 36 0 27 5 43 50 176 17 50 32 101 34 115 2 14 4 30 4 37 1 7 13 24 27 39 14 15 25 34 25 43 0 19 39 97 69 140 12 17 20 35 16 40 -3 5 3 16 13 23 11 7 32 37 48 66 50 93 59 106 89 137 52 54 73 83 77 106 2 13 13 29 26 35 32 16 82 65 82 81 0 7 7 13 15 13 9 0 20 11 24 24 6 14 26 30 50 40 46 18 49 23 24 42 -14 10 -15 15 -6 25 10 10 15 10 27 0 12 -11 23 -7 58 21 24 18 45 36 48 39 3 3 13 8 23 12 10 4 17 15 15 24 -3 18 19 32 112 74 45 20 165 89 210 122 13 9 32 17 42 17 10 0 39 11 65 24 91 46 164 76 183 76 11 0 20 7 20 15 0 17 21 20 37 4 8 -8 20 -6 44 7 19 10 57 21 84 25 28 4 93 17 145 28 78 17 158 22 460 31 322 8 1782 21 2245 19 138 0 174 3 190 15 11 8 28 16 37 16 10 0 22 9 28 20 6 11 20 20 31 20 11 0 23 8 26 17 4 9 15 25 25 35 12 12 18 32 18 66 -1 43 -6 52 -60 112 -54 58 -64 65 -102 67 -154 10 -1960 0 -2293 -12 -82 -3 -219 -2 -303 2 -84 4 -157 4 -161 0 -5 -5 -20 -2 -33 7 -16 11 -53 16 -127 17 -85 2 -104 5 -108 18 -3 12 -19 16 -65 18 -47 1 -65 6 -80 22 -15 17 -23 19 -39 10 -26 -13 -51 -5 -43 16 5 11 -1 15 -20 15 -15 0 -46 8 -69 18 -70 31 -121 50 -147 58 -14 4 -48 21 -76 39 -28 18 -61 36 -75 40 -23 7 -41 21 -77 58 -9 9 -21 17 -27 17 -15 0 -134 79 -191 126 -27 23 -58 43 -69 45 -11 3 -21 14 -23 26 -2 16 -8 20 -24 15 -18 -4 -20 -2 -15 17 3 15 -1 24 -14 31 -32 18 -140 123 -155 153 -8 15 -21 27 -30 27 -8 0 -18 8 -21 18 -4 9 -39 62 -78 117 -39 55 -77 111 -83 125 -19 38 -34 62 -64 100 -14 19 -29 47 -33 62 -4 15 -13 29 -21 32 -8 3 -14 19 -14 40 0 19 -9 50 -20 68 -23 39 -90 240 -90 270 0 14 -5 18 -16 14 -14 -5 -15 -1 -9 30 5 27 2 41 -10 54 -12 13 -18 45 -21 117 -3 54 -10 117 -16 140 -8 31 -7 50 1 71 24 57 6 56 641 59 1092 6 1599 13 1622 22 15 6 31 5 43 -1 14 -8 21 -7 30 6 7 9 26 16 48 16 29 0 36 4 39 23 2 14 11 23 26 25 26 4 49 43 58 100 7 45 -2 66 -55 130 -29 34 -42 42 -69 42 -18 0 -42 4 -52 10 -34 18 -1159 16 -2019 -5 -280 -6 -311 -4 -311 26 0 11 -5 29 -10 39 -11 20 -17 359 -26 1500 -3 355 -6 664 -7 687 -2 37 -10 50 -57 99 -68 69 -91 79 -131 58 -17 -8 -38 -13 -48 -9 -17 5 -55 -30 -97 -91 -19 -28 -19 -55 -19 -1146 0 -900 -3 -1120 -13 -1130 -19 -19 -174 -18 -167 1 4 10 -1 12 -21 7 -14 -4 -40 -2 -57 3 -18 5 -61 17 -97 26 -36 9 -111 29 -167 46 -56 16 -108 29 -115 29 -7 0 -29 11 -48 24 -19 13 -49 26 -67 30 -17 4 -37 14 -44 22 -18 22 -121 70 -141 66 -11 -2 -18 3 -18 13 0 8 -10 19 -23 24 -12 5 -42 25 -66 45 -23 20 -49 36 -57 36 -7 0 -18 8 -23 19 -6 10 -24 21 -41 24 -16 4 -30 12 -30 20 0 7 -13 21 -30 30 -16 10 -69 58 -117 108 -48 49 -93 89 -101 89 -7 0 -15 7 -19 16 -3 10 -19 29 -35 44 -15 15 -40 50 -55 78 -16 28 -55 79 -88 114 -33 35 -58 70 -57 79 1 8 -6 23 -17 33 -11 10 -26 35 -32 55 -7 20 -23 50 -36 67 -20 28 -64 125 -125 279 -11 28 -27 58 -35 67 -13 15 -14 20 -3 33 11 13 10 22 -9 55 -12 21 -25 70 -31 112 -5 41 -13 86 -19 100 -21 55 -39 452 -40 908 -1 256 -6 778 -11 1160 -5 382 -6 713 -3 736 3 22 0 67 -7 99 -10 48 -20 65 -58 103 -42 40 -97 74 -119 71 -4 0 -20 -4 -34 -9z m97 -101 c3 -5 7 -433 9 -951 7 -1286 13 -1718 30 -1878 18 -180 31 -244 95 -465 14 -51 32 -99 46 -128 8 -16 14 -33 14 -37 0 -5 28 -67 61 -137 181 -377 439 -672 804 -925 44 -30 92 -61 106 -69 90 -48 278 -142 299 -150 14 -4 70 -24 125 -44 99 -36 124 -44 220 -65 28 -6 64 -15 80 -20 38 -11 413 -55 419 -49 3 2 1 139 -4 304 -5 165 -10 669 -11 1120 0 451 -4 860 -7 908 -5 63 -4 91 5 98 6 6 37 9 69 7 l58 -3 2 -325 c2 -179 5 -572 9 -875 3 -302 6 -702 6 -887 0 -259 3 -339 13 -347 7 -6 15 -9 17 -7 10 10 348 17 1339 26 591 5 1093 12 1115 15 22 3 45 2 52 -3 12 -8 22 -120 11 -137 -4 -7 -400 -12 -1185 -14 -648 -2 -1218 -4 -1268 -5 l-90 -1 3 -100 c3 -91 8 -144 32 -315 13 -95 67 -309 81 -325 5 -5 9 -17 9 -27 0 -9 6 -32 14 -50 8 -18 24 -58 36 -88 64 -159 202 -404 279 -495 14 -17 35 -44 46 -60 52 -74 201 -228 320 -331 73 -63 190 -154 198 -154 3 0 31 -18 63 -39 149 -99 383 -208 564 -261 91 -27 178 -48 245 -59 28 -5 73 -13 100 -19 97 -20 391 -22 1670 -14 710 5 1292 7 1294 6 1 -2 4 -30 6 -63 3 -49 0 -61 -13 -64 -10 -3 -231 -5 -492 -6 -261 -1 -887 -6 -1390 -11 -948 -11 -958 -11 -1180 -56 -88 -18 -185 -42 -218 -55 -13 -5 -52 -19 -85 -30 -58 -19 -91 -32 -162 -64 -55 -24 -120 -56 -160 -79 -22 -12 -56 -31 -75 -42 -136 -76 -333 -228 -454 -350 -268 -269 -463 -581 -570 -909 -82 -250 -110 -396 -125 -660 -9 -144 -4 -159 47 -151 21 3 564 10 1207 15 644 6 1193 12 1220 16 28 3 55 2 62 -2 11 -8 21 -118 12 -128 -7 -6 -521 -13 -1649 -21 -660 -4 -897 -9 -901 -17 -3 -7 -2 -79 2 -162 5 -82 12 -625 18 -1205 7 -797 6 -1057 -2 -1062 -21 -13 -127 -9 -132 5 -2 6 -6 557 -7 1222 l-3 1210 -70 -3 c-66 -2 -205 -22 -305 -42 -25 -5 -63 -12 -85 -16 -138 -21 -414 -133 -625 -252 -182 -103 -301 -195 -471 -362 -278 -273 -470 -589 -595 -980 -15 -47 -31 -105 -35 -130 -4 -25 -12 -63 -17 -85 -6 -22 -18 -91 -27 -154 -16 -103 -16 -214 -10 -1250 4 -625 10 -1255 15 -1401 4 -146 5 -268 3 -272 -2 -5 -35 -8 -74 -8 l-69 0 0 453 c0 1294 -20 2374 -45 2492 -8 38 -15 81 -15 94 0 22 -5 44 -46 186 -27 96 -65 206 -94 270 -83 187 -148 301 -270 475 -91 129 -320 364 -442 453 -200 148 -218 159 -403 251 -164 81 -248 113 -445 169 -137 39 -422 76 -605 78 -75 0 -138 -1 -140 -3 -2 -2 0 -131 5 -288 5 -157 10 -703 11 -1215 l2 -930 -54 -7 c-30 -4 -59 -6 -64 -4 -7 2 -11 229 -13 652 -2 357 -6 652 -8 655 -2 4 -4 261 -4 572 -1 429 -4 566 -13 569 -7 3 -48 1 -92 -2 -44 -4 -217 -8 -384 -9 -168 -1 -308 -4 -311 -6 -4 -2 -263 -5 -576 -7 -313 -1 -652 -5 -754 -8 -102 -3 -191 -3 -199 1 -16 7 -23 102 -10 129 6 14 141 16 1166 19 637 1 1161 6 1165 9 8 9 -8 253 -22 342 -19 111 -42 223 -55 270 -7 25 -15 56 -18 70 -9 44 -73 213 -111 292 -20 41 -36 78 -36 83 0 4 -34 64 -76 134 -136 226 -331 461 -484 584 -35 29 -76 63 -90 76 -40 37 -256 177 -334 216 -39 20 -78 40 -86 45 -60 34 -189 84 -369 142 -47 15 -146 37 -206 47 -27 5 -75 14 -105 22 -63 15 -354 17 -1965 10 l-999 -5 -2 62 c-1 49 2 62 15 65 9 2 237 5 506 6 912 3 2269 22 2330 32 33 6 92 14 130 19 106 14 249 48 365 88 83 29 259 105 310 134 8 4 25 12 38 18 12 5 48 26 80 47 31 20 73 46 92 56 61 34 313 233 340 269 3 4 35 38 72 75 118 123 254 304 336 448 25 45 122 244 142 290 27 64 110 330 110 351 0 13 5 35 11 50 18 49 62 493 51 522 -3 10 -16 12 -46 8 -23 -3 -536 -10 -1141 -15 -605 -5 -1104 -10 -1110 -11 -41 -9 -46 -1 -43 65 l3 65 385 5 c212 2 736 7 1165 11 784 6 803 7 791 40 -9 25 -18 493 -26 1424 -6 741 -6 977 3 982 7 4 39 6 72 5 l60 -2 2 -465 c1 -256 4 -805 5 -1220 l3 -755 155 3 c85 2 184 8 220 13 36 6 85 12 110 15 53 5 175 30 245 49 28 8 59 16 70 19 72 17 291 109 411 172 249 131 540 365 688 554 24 30 54 66 66 80 49 55 176 256 237 375 51 99 119 269 147 365 8 30 22 78 30 105 8 28 22 93 31 145 8 52 21 124 28 160 14 74 13 806 -3 2109 -5 431 -7 787 -5 792 7 10 124 9 131 -2z"/> <path d="M11358 11445 c-3 -3 -66 -13 -139 -21 -129 -14 -172 -21 -269 -44 -25 -6 -61 -15 -80 -20 -37 -8 -56 -15 -185 -62 -309 -114 -591 -292 -830 -525 -80 -78 -185 -197 -229 -258 -74 -105 -147 -215 -156 -237 -6 -13 -20 -39 -31 -58 -24 -40 -48 -88 -73 -145 -10 -22 -23 -49 -28 -59 -6 -11 -14 -31 -18 -45 -5 -14 -18 -51 -30 -81 -12 -30 -26 -71 -30 -90 -5 -19 -18 -66 -30 -105 -11 -38 -25 -95 -29 -125 -5 -30 -14 -89 -20 -130 -18 -117 -30 -352 -19 -373 7 -13 16 -17 31 -13 12 3 87 13 167 22 80 9 153 20 162 25 9 5 30 9 47 9 17 0 48 6 68 14 21 7 65 21 98 30 265 76 564 231 779 404 106 86 183 159 316 301 69 73 220 286 274 386 15 28 31 57 36 65 18 31 90 188 105 231 16 44 73 228 100 325 8 28 15 64 15 80 0 16 5 45 10 64 14 45 33 251 34 355 1 73 -1 80 -19 83 -12 2 -24 0 -27 -3z m-102 -166 c15 -12 16 -28 11 -124 -4 -60 -18 -164 -33 -230 -14 -66 -29 -141 -33 -168 -4 -26 -17 -61 -29 -77 -12 -16 -22 -42 -22 -58 0 -16 -7 -35 -15 -42 -9 -7 -13 -21 -10 -31 4 -11 2 -19 -4 -19 -15 0 -71 -114 -71 -143 0 -13 -15 -38 -35 -57 -19 -19 -35 -41 -35 -48 0 -7 -17 -36 -38 -65 -21 -29 -42 -64 -46 -79 -3 -15 -17 -35 -31 -44 -14 -9 -25 -25 -25 -36 0 -11 -8 -22 -19 -25 -11 -3 -17 -11 -15 -18 3 -7 -38 -54 -90 -106 -53 -52 -96 -100 -96 -106 0 -7 -7 -13 -15 -13 -9 0 -19 -8 -22 -17 -8 -21 -43 -52 -59 -53 -5 0 -34 -21 -62 -47 -29 -27 -70 -57 -90 -69 -20 -11 -39 -29 -41 -40 -5 -26 -21 -35 -52 -29 -20 5 -28 1 -37 -19 -6 -15 -17 -23 -25 -21 -7 3 -24 -6 -37 -20 -13 -14 -30 -25 -37 -25 -17 0 -111 -47 -142 -71 -13 -11 -33 -19 -43 -19 -11 0 -32 -6 -46 -14 -56 -28 -103 -46 -125 -46 -13 0 -28 -5 -34 -11 -31 -31 -434 -107 -452 -84 -14 16 -25 163 -13 178 5 6 15 48 22 92 6 44 15 96 21 115 5 19 11 51 13 72 2 20 11 47 19 60 8 12 20 48 27 78 6 30 20 72 31 92 12 23 18 47 14 65 -3 15 -2 22 1 16 10 -22 24 -14 24 11 0 14 14 45 31 70 16 25 33 63 36 83 3 21 12 45 20 53 38 41 98 137 95 153 -2 9 2 17 8 17 17 0 40 26 40 44 0 9 4 16 8 16 5 0 14 11 20 25 6 14 18 25 26 25 9 0 12 7 9 20 -4 15 0 20 15 20 13 0 24 10 30 30 6 16 23 35 37 42 14 6 24 17 21 24 -3 8 0 11 8 8 6 -2 27 15 44 40 18 25 41 48 52 51 10 3 20 16 22 28 2 14 11 23 26 25 12 2 22 9 22 16 0 12 79 75 113 88 9 4 17 14 17 23 0 8 7 15 15 15 8 0 38 19 67 43 29 23 78 53 108 67 30 13 66 32 79 42 13 10 27 15 32 13 4 -3 16 6 25 20 12 19 23 25 37 21 12 -3 33 4 49 16 16 11 48 25 70 30 22 5 52 18 66 28 13 11 37 20 51 20 15 0 31 4 37 8 5 5 36 14 69 21 33 7 69 19 80 25 11 7 48 16 83 19 35 4 71 11 80 17 24 13 127 6 148 -11z"/> <path d="M6537 11396 c-8 -21 30 -388 52 -496 20 -93 61 -228 116 -380 38 -103 115 -254 208 -405 17 -27 102 -145 128 -175 11 -14 44 -54 73 -90 85 -104 255 -259 385 -352 199 -143 418 -255 631 -323 107 -34 148 -46 257 -74 75 -20 344 -45 493 -45 l145 -1 -3 105 c-3 105 -34 349 -53 425 -38 150 -87 302 -115 358 -8 16 -14 33 -14 39 0 14 -90 194 -123 245 -15 24 -27 45 -27 48 0 11 -130 195 -189 268 -210 259 -450 452 -758 608 -83 43 -167 82 -185 88 -18 5 -58 19 -88 31 -96 37 -250 77 -346 89 -34 5 -67 12 -74 16 -13 8 -349 34 -451 35 -39 0 -58 -4 -62 -14z m503 -147 c58 -10 157 -32 220 -49 63 -17 126 -34 140 -37 24 -5 46 -14 153 -62 27 -12 71 -28 99 -35 27 -7 53 -17 56 -23 4 -6 30 -22 58 -36 29 -15 73 -41 99 -59 26 -18 59 -41 73 -50 44 -28 73 -51 100 -80 15 -16 33 -28 42 -28 8 0 39 -22 67 -49 29 -27 59 -51 68 -55 8 -3 15 -16 15 -30 0 -31 16 -42 36 -25 21 17 43 -4 25 -24 -9 -12 2 -27 59 -82 38 -38 70 -74 70 -82 0 -7 9 -13 20 -13 13 0 20 -7 20 -18 0 -10 11 -28 25 -40 14 -12 22 -28 19 -36 -3 -9 3 -19 16 -26 12 -6 31 -31 41 -55 11 -24 35 -62 54 -85 19 -23 35 -48 35 -55 0 -7 7 -16 16 -19 11 -4 14 -13 11 -27 -3 -11 1 -32 9 -47 8 -15 14 -31 14 -37 0 -5 14 -30 30 -55 16 -25 30 -56 30 -70 0 -15 5 -31 11 -37 6 -6 14 -26 19 -44 5 -19 15 -54 24 -79 8 -25 20 -74 26 -109 7 -36 19 -70 27 -76 12 -9 14 -20 9 -40 -4 -17 0 -71 10 -126 19 -112 10 -154 -36 -164 -31 -6 -275 1 -288 9 -9 5 -29 9 -212 40 -52 9 -112 26 -133 36 -21 11 -44 20 -52 20 -9 0 -23 4 -33 9 -75 37 -92 42 -110 37 -15 -5 -34 3 -67 29 -35 26 -53 33 -71 29 -19 -5 -24 -2 -24 14 0 21 -18 32 -55 32 -12 0 -28 7 -35 15 -7 8 -18 15 -26 15 -7 0 -29 14 -47 30 -19 17 -38 30 -41 30 -9 0 -68 42 -81 57 -5 7 -28 26 -50 43 -22 18 -64 54 -93 81 -29 27 -59 49 -67 49 -9 0 -12 6 -9 15 4 10 0 15 -15 15 -12 0 -21 6 -21 13 0 11 -63 72 -119 117 -7 6 -27 37 -42 67 -6 12 -20 24 -30 26 -11 3 -19 13 -19 22 0 9 -7 24 -16 33 -9 8 -40 53 -70 99 -30 46 -61 86 -69 89 -8 4 -15 18 -15 33 0 15 -11 42 -25 61 -14 19 -25 39 -25 46 0 11 -33 79 -59 124 -22 36 -113 348 -132 450 -20 112 -23 133 -23 202 0 53 4 71 19 88 19 21 25 22 130 15 61 -4 157 -15 215 -26z"/> <path d="M8750 8915 c-96 -7 -202 -19 -235 -25 -33 -7 -78 -16 -100 -20 -53 -10 -185 -46 -238 -66 -23 -8 -58 -20 -77 -26 -19 -5 -39 -14 -45 -19 -5 -5 -16 -9 -25 -9 -27 0 -308 -147 -403 -211 -100 -68 -195 -138 -231 -173 -303 -284 -439 -460 -584 -758 -79 -164 -192 -500 -192 -574 0 -16 -5 -45 -10 -64 -14 -46 -33 -242 -34 -350 l-1 -85 100 3 c138 4 430 31 461 42 14 6 37 10 51 10 14 0 46 6 72 14 25 8 73 22 106 31 200 56 446 173 631 300 48 33 94 65 103 70 9 6 18 12 21 15 3 3 43 37 90 77 160 135 302 294 424 478 70 105 184 318 221 415 10 25 23 59 30 75 21 48 75 228 75 248 0 10 5 27 10 38 23 42 70 525 55 567 -5 14 -36 14 -275 -3z m136 -137 c10 -15 13 -191 4 -203 -4 -5 -11 -43 -14 -83 -4 -39 -13 -84 -21 -99 -8 -15 -17 -51 -21 -82 -4 -30 -18 -79 -31 -108 -16 -35 -23 -63 -19 -78 5 -18 2 -25 -9 -25 -11 0 -15 -10 -15 -35 0 -19 -4 -35 -10 -35 -13 0 -52 -78 -45 -90 3 -5 1 -11 -5 -15 -5 -3 -10 -17 -10 -30 0 -14 -9 -29 -20 -35 -11 -6 -20 -19 -20 -30 0 -10 -10 -31 -23 -47 -49 -58 -107 -153 -107 -172 0 -13 -12 -26 -30 -36 -16 -9 -30 -22 -30 -29 0 -7 -7 -20 -17 -27 -9 -8 -22 -29 -30 -46 -7 -18 -20 -33 -27 -33 -8 0 -17 -9 -21 -19 -3 -11 -15 -23 -26 -26 -10 -4 -19 -15 -19 -25 0 -10 -25 -40 -56 -67 -31 -26 -74 -65 -96 -85 -22 -21 -44 -38 -49 -38 -5 0 -15 -13 -24 -30 -9 -16 -23 -30 -32 -30 -29 0 -115 -61 -108 -78 4 -10 1 -12 -11 -8 -9 3 -30 -6 -52 -23 -63 -49 -285 -166 -347 -182 -22 -6 -45 -17 -51 -25 -7 -8 -50 -24 -95 -35 -46 -10 -100 -26 -119 -33 -19 -8 -61 -18 -93 -21 -32 -4 -73 -13 -91 -20 -44 -19 -321 -31 -358 -16 -27 10 -28 12 -28 93 0 46 5 103 11 127 5 25 14 79 20 120 5 42 19 104 30 139 12 35 19 72 16 82 -3 11 5 33 19 51 14 19 24 47 24 65 0 18 5 36 10 39 6 3 10 17 10 31 0 13 6 24 13 24 7 0 19 17 26 38 20 56 100 214 120 237 18 20 37 52 66 113 9 18 22 35 30 39 9 3 26 23 39 45 25 42 118 151 179 209 20 20 37 39 37 43 0 9 56 66 65 66 10 0 166 123 188 148 11 12 25 18 35 15 11 -5 14 -2 9 10 -5 12 -1 17 12 17 14 0 18 5 14 20 -5 21 11 28 22 10 11 -18 35 -10 45 15 6 15 17 25 29 25 10 0 21 7 25 15 3 8 15 15 27 15 12 0 57 18 101 40 44 22 87 40 94 40 8 0 14 7 14 15 0 11 7 14 23 10 15 -4 32 1 49 14 14 12 39 21 54 21 15 0 37 8 48 19 23 20 90 41 147 46 20 1 45 8 57 14 11 6 38 11 59 11 21 1 76 7 123 14 109 18 276 20 286 4z"/> <path d="M9155 8921 c-4 -7 -4 -22 -1 -35 3 -12 10 -85 16 -162 10 -130 28 -255 51 -349 28 -113 79 -277 91 -290 4 -5 8 -15 8 -23 0 -27 154 -330 215 -422 191 -289 452 -543 735 -714 109 -66 302 -163 380 -192 63 -23 197 -65 245 -76 22 -6 62 -16 89 -24 26 -8 62 -14 80 -14 17 0 47 -5 66 -11 31 -9 178 -26 280 -32 35 -2 35 -2 34 38 -2 83 -35 387 -44 411 -6 14 -10 37 -10 51 0 14 -6 46 -14 72 -76 247 -82 263 -121 356 -63 151 -176 349 -270 475 -88 118 -266 307 -351 375 -20 16 -49 41 -63 55 -39 37 -233 171 -276 191 -11 5 -36 19 -55 30 -19 12 -66 37 -105 56 -38 19 -78 38 -87 43 -22 12 -75 31 -203 74 -90 30 -127 40 -261 75 -22 6 -101 18 -175 27 -216 26 -246 27 -254 15z m260 -137 c33 -1 80 -9 105 -18 25 -9 63 -16 84 -16 48 0 134 -25 199 -56 27 -13 57 -24 67 -24 10 0 23 -7 30 -15 9 -11 23 -14 45 -9 24 4 35 2 41 -9 5 -8 58 -38 117 -67 60 -28 111 -58 113 -65 3 -8 20 -17 37 -20 58 -12 67 -16 67 -32 0 -19 29 -42 53 -43 10 0 20 -7 24 -15 3 -9 17 -22 32 -30 14 -7 42 -29 61 -49 19 -19 43 -36 52 -36 10 0 17 -3 17 -7 -4 -25 4 -33 31 -33 28 0 34 -8 31 -36 -1 -6 9 -10 21 -10 13 1 22 -4 21 -11 -2 -6 24 -40 56 -75 32 -35 71 -78 87 -97 16 -18 38 -43 50 -55 12 -11 28 -35 37 -51 8 -17 34 -53 56 -80 23 -27 41 -55 41 -62 0 -6 5 -24 10 -38 8 -22 13 -25 25 -15 11 9 16 5 24 -27 6 -21 11 -43 11 -49 0 -17 51 -104 60 -104 5 0 12 -17 16 -37 3 -21 19 -65 34 -98 15 -33 35 -85 44 -115 8 -30 28 -95 42 -145 15 -49 28 -112 29 -140 2 -27 8 -51 14 -53 6 -2 7 -12 1 -26 -5 -15 -4 -50 3 -91 11 -65 11 -68 -12 -86 -26 -21 -90 -25 -150 -10 -20 5 -70 15 -111 21 -41 7 -111 23 -155 37 -53 17 -80 22 -83 14 -2 -6 -8 -11 -13 -11 -4 0 -6 6 -3 14 3 9 -5 16 -22 20 -26 7 -139 56 -176 76 -10 6 -24 10 -32 10 -7 0 -19 7 -26 15 -7 8 -25 15 -41 15 -15 0 -32 6 -36 14 -4 7 -44 32 -87 56 -44 23 -95 57 -113 75 -19 18 -50 41 -69 50 -19 9 -34 22 -34 30 0 15 -11 19 -38 16 -7 -1 -19 12 -25 29 -10 26 -16 30 -35 25 -20 -5 -23 -2 -20 16 2 18 -4 24 -29 31 -23 6 -33 14 -33 28 0 11 -6 20 -13 20 -7 0 -29 18 -47 40 -18 22 -42 40 -52 40 -14 0 -18 5 -13 19 4 14 -5 28 -33 52 -21 19 -41 42 -45 52 -3 9 -11 17 -16 17 -5 0 -18 16 -30 35 -11 19 -28 35 -36 35 -12 0 -15 6 -10 20 4 12 -1 31 -13 48 -11 15 -32 51 -47 80 -23 45 -30 51 -43 40 -13 -11 -14 -9 -10 21 4 27 1 35 -14 39 -12 3 -18 14 -18 33 0 17 -6 32 -15 35 -8 4 -15 16 -15 28 0 12 -11 37 -25 56 -14 19 -25 42 -25 51 0 17 -7 39 -31 94 -30 70 -66 190 -62 206 3 11 -2 28 -12 39 -12 13 -15 27 -11 47 4 17 1 41 -8 58 -19 41 -29 183 -15 226 6 19 13 40 15 48 3 8 10 10 22 5 9 -4 44 -8 77 -10z"/> </g> </svg>